Sudo-Bold.ufo
<glyph name="exclam" format="1">
  <advance width="448"/>
  <unicode hex="0021"/>
  <outline>
    <contour>
      <point x="140" y="64" type="curve" smooth="yes"/>
      <point x="140" y="15"/>
      <point x="178" y="-10"/>
      <point x="224" y="-10" type="curve" smooth="yes"/>
      <point x="270" y="-10"/>
      <point x="308" y="15"/>
      <point x="308" y="64" type="curve" smooth="yes"/>
      <point x="308" y="111"/>
      <point x="270" y="138"/>
      <point x="224" y="138" type="curve" smooth="yes"/>
      <point x="178" y="138"/>
      <point x="140" y="111"/>
    </contour>
    <contour>
      <point x="174" y="212" type="line"/>
      <point x="274" y="212" type="line"/>
      <point x="290" y="640" type="line"/>
      <point x="158" y="640" type="line"/>
    </contour>
  </outline>
</glyph>
<glyph name="quotedbl" format="1">
  <advance width="448"/>
  <unicode hex="0022"/>
  <outline>
    <contour>
      <point x="193" y="640" type="line"/>
      <point x="61" y="640" type="line"/>
      <point x="71" y="384" type="line"/>
      <point x="183" y="384" type="line"/>
    </contour>
    <contour>
      <point x="387" y="640" type="line"/>
      <point x="255" y="640" type="line"/>
      <point x="265" y="384" type="line"/>
      <point x="377" y="384" type="line"/>
    </contour>
  </outline>
</glyph>
<glyph name="numbersign" format="1">
  <advance width="448"/>
  <unicode hex="0023"/>
  <outline>
    <contour>
      <point x="78" y="0" type="line"/>
      <point x="186" y="0" type="line"/>
      <point x="206" y="512" type="line"/>
      <point x="98" y="512" type="line"/>
    </contour>
    <contour>
      <point x="242" y="0" type="line"/>
      <point x="350" y="0" type="line"/>
      <point x="370" y="512" type="line"/>
      <point x="262" y="512" type="line"/>
    </contour>
    <contour>
      <point x="39" y="312" type="line"/>
      <point x="419" y="312" type="line"/>
      <point x="419" y="392" type="line"/>
      <point x="39" y="392" type="line"/>
    </contour>
    <contour>
      <point x="29" y="120" type="line"/>
      <point x="409" y="120" type="line"/>
      <point x="409" y="200" type="line"/>
      <point x="29" y="200" type="line"/>
    </contour>
  </outline>
</glyph>
<glyph name="dollar" format="1">
  <advance width="448"/>
  <unicode hex="0024"/>
  <outline>
    <contour>
      <point x="406" y="566" type="line"/>
      <point x="364" y="578"/>
      <point x="308" y="584"/>
      <point x="263" y="584" type="curve" smooth="yes"/>
      <point x="107" y="584"/>
      <point x="29" y="510"/>
      <point x="29" y="416" type="curve" smooth="yes"/>
      <point x="29" y="200"/>
      <point x="309" y="285"/>
      <point x="309" y="151" type="curve" smooth="yes"/>
      <point x="309" y="108"/>
      <point x="286" y="74"/>
      <point x="178" y="74" type="curve" smooth="yes"/>
      <point x="124" y="74"/>
      <point x="82" y="85"/>
      <point x="40" y="100" type="curve"/>
      <point x="21" y="18" type="line"/>
      <point x="74" y="1"/>
      <point x="136" y="-8"/>
      <point x="190" y="-8" type="curve" smooth="yes"/>
      <point x="342" y="-8"/>
      <point x="421" y="58"/>
      <point x="421" y="160" type="curve" smooth="yes"/>
      <point x="421" y="368"/>
      <point x="141" y="279"/>
      <point x="141" y="419" type="curve" smooth="yes"/>
      <point x="141" y="472"/>
      <point x="170" y="502"/>
      <point x="277" y="502" type="curve" smooth="yes"/>
      <point x="310" y="502"/>
      <point x="352" y="496"/>
      <point x="390" y="484" type="curve"/>
    </contour>
    <contour>
      <point x="172" y="-74" type="line"/>
      <point x="276" y="-74" type="line"/>
      <point x="276" y="650" type="line"/>
      <point x="172" y="650" type="line"/>
    </contour>
  </outline>
</glyph>
<glyph name="percent" format="1">
  <advance width="448"/>
  <unicode hex="0025"/>
  <outline>
    <contour>
      <point x="55" y="182" type="line"/>
      <point x="425" y="403" type="line"/>
      <point x="392" y="458" type="line"/>
      <point x="23" y="237" type="line"/>
    </contour>
    <contour>
      <point x="19" y="512" type="curve" smooth="yes"/>
      <point x="19" y="442"/>
      <point x="59" y="376"/>
      <point x="128" y="376" type="curve" smooth="yes"/>
      <point x="196" y="376"/>
      <point x="237" y="442"/>
      <point x="237" y="512" type="curve" smooth="yes"/>
      <point x="237" y="582"/>
      <point x="196" y="648"/>
      <point x="128" y="648" type="curve" smooth="yes"/>
      <point x="59" y="648"/>
      <point x="19" y="582"/>
    </contour>
    <contour>
      <point x="84" y="512" type="curve" smooth="yes"/>
      <point x="84" y="561"/>
      <point x="96" y="592"/>
      <point x="128" y="592" type="curve" smooth="yes"/>
      <point x="160" y="592"/>
      <point x="172" y="561"/>
      <point x="172" y="512" type="curve" smooth="yes"/>
      <point x="172" y="463"/>
      <point x="160" y="432"/>
      <point x="128" y="432" type="curve" smooth="yes"/>
      <point x="96" y="432"/>
      <point x="84" y="463"/>
    </contour>
    <contour>
      <point x="211" y="128" type="curve" smooth="yes"/>
      <point x="211" y="58"/>
      <point x="251" y="-8"/>
      <point x="320" y="-8" type="curve" smooth="yes"/>
      <point x="388" y="-8"/>
      <point x="429" y="58"/>
      <point x="429" y="128" type="curve" smooth="yes"/>
      <point x="429" y="198"/>
      <point x="388" y="264"/>
      <point x="320" y="264" type="curve" smooth="yes"/>
      <point x="251" y="264"/>
      <point x="211" y="198"/>
    </contour>
    <contour>
      <point x="276" y="128" type="curve" smooth="yes"/>
      <point x="276" y="177"/>
      <point x="288" y="208"/>
      <point x="320" y="208" type="curve" smooth="yes"/>
      <point x="352" y="208"/>
      <point x="364" y="177"/>
      <point x="364" y="128" type="curve" smooth="yes"/>
      <point x="364" y="79"/>
      <point x="352" y="48"/>
      <point x="320" y="48" type="curve" smooth="yes"/>
      <point x="288" y="48"/>
      <point x="276" y="79"/>
    </contour>
  </outline>
</glyph>
<glyph name="ampersand" format="1">
  <advance width="448"/>
  <unicode hex="0026"/>
  <outline>
    <contour>
      <point x="332" y="526" type="line"/>
      <point x="299" y="535"/>
      <point x="254" y="542"/>
      <point x="217" y="542" type="curve" smooth="yes"/>
      <point x="98" y="542"/>
      <point x="40" y="480"/>
      <point x="40" y="398" type="curve" smooth="yes"/>
      <point x="40" y="334"/>
      <point x="80" y="280"/>
      <point x="175" y="266" type="curve"/>
      <point x="175" y="314" type="line"/>
      <point x="55" y="284"/>
      <point x="25" y="208"/>
      <point x="25" y="149" type="curve" smooth="yes"/>
      <point x="25" y="66"/>
      <point x="72" y="-10"/>
      <point x="208" y="-10" type="curve" smooth="yes"/>
      <point x="258" y="-10"/>
      <point x="324" y="1"/>
      <point x="378" y="18" type="curve"/>
      <point x="378" y="288" type="line"/>
      <point x="266" y="288" type="line"/>
      <point x="266" y="26" type="line"/>
      <point x="351" y="98" type="line"/>
      <point x="296" y="80"/>
      <point x="256" y="70"/>
      <point x="209" y="70" type="curve" smooth="yes"/>
      <point x="149" y="70"/>
      <point x="138" y="113"/>
      <point x="138" y="152" type="curve" smooth="yes"/>
      <point x="138" y="198"/>
      <point x="161" y="248"/>
      <point x="260" y="248" type="curve" smooth="yes"/>
      <point x="438" y="248" type="line"/>
      <point x="438" y="328" type="line"/>
      <point x="249" y="328" type="line" smooth="yes"/>
      <point x="170" y="328"/>
      <point x="152" y="359"/>
      <point x="152" y="395" type="curve" smooth="yes"/>
      <point x="152" y="427"/>
      <point x="170" y="462"/>
      <point x="234" y="462" type="curve" smooth="yes"/>
      <point x="263" y="462"/>
      <point x="292" y="457"/>
      <point x="317" y="452" type="curve"/>
    </contour>
  </outline>
</glyph>
<glyph name="quotesingle" format="1">
  <advance width="448"/>
  <unicode hex="0027"/>
  <outline>
    <contour>
      <point x="290" y="640" type="line"/>
      <point x="158" y="640" type="line"/>
      <point x="168" y="384" type="line"/>
      <point x="280" y="384" type="line"/>
    </contour>
  </outline>
</glyph>
<glyph name="parenleft" format="1">
  <advance width="448"/>
  <unicode hex="0028"/>
  <outline>
    <contour>
      <point x="281" y="723" type="line"/>
      <point x="189" y="613"/>
      <point x="134" y="481"/>
      <point x="134" y="320" type="curve" smooth="yes"/>
      <point x="134" y="159"/>
      <point x="190" y="26"/>
      <point x="282" y="-84" type="curve"/>
      <point x="371" y="-43" type="line"/>
      <point x="288" y="56"/>
      <point x="248" y="182"/>
      <point x="248" y="320" type="curve" smooth="yes"/>
      <point x="248" y="458"/>
      <point x="288" y="585"/>
      <point x="371" y="684" type="curve"/>
    </contour>
  </outline>
</glyph>
<glyph name="parenright" format="1">
  <advance width="448"/>
  <unicode hex="0029"/>
  <outline>
    <contour>
      <point x="76" y="684" type="line"/>
      <point x="159" y="585"/>
      <point x="199" y="458"/>
      <point x="199" y="320" type="curve" smooth="yes"/>
      <point x="199" y="182"/>
      <point x="159" y="56"/>
      <point x="76" y="-43" type="curve"/>
      <point x="165" y="-84" type="line"/>
      <point x="257" y="26"/>
      <point x="313" y="159"/>
      <point x="313" y="320" type="curve" smooth="yes"/>
      <point x="313" y="481"/>
      <point x="258" y="613"/>
      <point x="166" y="723" type="curve"/>
    </contour>
  </outline>
</glyph>
<glyph name="asterisk" format="1">
  <advance width="448"/>
  <unicode hex="002A"/>
  <outline>
    <contour>
      <point x="168" y="64" type="line"/>
      <point x="280" y="64" type="line"/>
      <point x="270" y="288" type="line"/>
      <point x="280" y="512" type="line"/>
      <point x="168" y="512" type="line"/>
      <point x="178" y="288" type="line"/>
    </contour>
    <contour>
      <point x="2" y="225" type="line"/>
      <point x="58" y="128" type="line"/>
      <point x="247" y="248" type="line"/>
      <point x="446" y="351" type="line"/>
      <point x="390" y="448" type="line"/>
      <point x="201" y="328" type="line"/>
    </contour>
    <contour>
      <point x="247" y="328" type="line"/>
      <point x="58" y="448" type="line"/>
      <point x="2" y="351" type="line"/>
      <point x="201" y="248" type="line"/>
      <point x="390" y="128" type="line"/>
      <point x="446" y="225" type="line"/>
    </contour>
  </outline>
</glyph>
<glyph name="plus" format="1">
  <advance width="448"/>
  <unicode hex="002B"/>
  <outline>
    <contour>
      <point x="409" y="336" type="line"/>
      <point x="278" y="336" type="line"/>
      <point x="278" y="468" type="line"/>
      <point x="170" y="468" type="line"/>
      <point x="170" y="336" type="line"/>
      <point x="39" y="336" type="line"/>
      <point x="39" y="240" type="line"/>
      <point x="170" y="240" type="line"/>
      <point x="170" y="105" type="line"/>
      <point x="278" y="105" type="line"/>
      <point x="278" y="240" type="line"/>
      <point x="409" y="240" type="line"/>
    </contour>
  </outline>
</glyph>
<glyph name="comma" format="1">
  <advance width="448"/>
  <unicode hex="002C"/>
  <outline>
    <contour>
      <point x="109" y="71" type="curve" smooth="yes"/>
      <point x="109" y="23"/>
      <point x="138" y="-3"/>
      <point x="176" y="-9" type="curve"/>
      <point x="168" y="-46"/>
      <point x="150" y="-81"/>
      <point x="131" y="-111" type="curve"/>
      <point x="191" y="-149" type="line"/>
      <point x="237" y="-93"/>
      <point x="275" y="-22"/>
      <point x="275" y="52" type="curve" smooth="yes"/>
      <point x="275" y="129"/>
      <point x="233" y="153"/>
      <point x="191" y="153" type="curve" smooth="yes"/>
      <point x="144" y="153"/>
      <point x="109" y="122"/>
    </contour>
  </outline>
</glyph>
<glyph name="hyphen" format="1">
  <advance width="448"/>
  <unicode hex="002D"/>
  <outline>
    <contour>
      <point x="384" y="272" type="line"/>
      <point x="64" y="272" type="line"/>
      <point x="64" y="176" type="line"/>
      <point x="384" y="176" type="line"/>
    </contour>
  </outline>
</glyph>
<glyph name="period" format="1">
  <advance width="448"/>
  <unicode hex="002E"/>
  <outline>
    <contour>
      <point x="108" y="74" type="curve" smooth="yes"/>
      <point x="108" y="19"/>
      <point x="146" y="-10"/>
      <point x="192" y="-10" type="curve" smooth="yes"/>
      <point x="238" y="-10"/>
      <point x="276" y="19"/>
      <point x="276" y="74" type="curve" smooth="yes"/>
      <point x="276" y="128"/>
      <point x="238" y="158"/>
      <point x="192" y="158" type="curve" smooth="yes"/>
      <point x="146" y="158"/>
      <point x="108" y="128"/>
    </contour>
  </outline>
</glyph>
<glyph name="slash" format="1">
  <advance width="448"/>
  <unicode hex="002F"/>
  <outline>
    <contour>
      <point x="349" y="698" type="line"/>
      <point x="238" y="710" type="line"/>
      <point x="99" y="-57" type="line"/>
      <point x="210" y="-69" type="line"/>
    </contour>
  </outline>
</glyph>
<glyph name="one" format="1">
  <advance width="448"/>
  <unicode hex="0031"/>
  <outline>
    <contour>
      <point x="54" y="0" type="line"/>
      <point x="414" y="0" type="line"/>
      <point x="414" y="80" type="line"/>
      <point x="54" y="80" type="line"/>
    </contour>
    <contour>
      <point x="178" y="30" type="line"/>
      <point x="290" y="30" type="line"/>
      <point x="292" y="580" type="line"/>
      <point x="221" y="580" type="line"/>
      <point x="180" y="528" type="line"/>
    </contour>
    <contour>
      <point x="34" y="439" type="line"/>
      <point x="86" y="373" type="line"/>
      <point x="264" y="509" type="line"/>
      <point x="221" y="580" type="line"/>
    </contour>
  </outline>
</glyph>
<glyph name="two" format="1">
  <advance width="448"/>
  <unicode hex="0032"/>
  <outline>
    <contour>
      <point x="72" y="482" type="line"/>
      <point x="110" y="491"/>
      <point x="141" y="496"/>
      <point x="180" y="496" type="curve" smooth="yes"/>
      <point x="263" y="496"/>
      <point x="290" y="469"/>
      <point x="290" y="397" type="curve" smooth="yes"/>
      <point x="290" y="333"/>
      <point x="263" y="307"/>
      <point x="195" y="280" type="curve" smooth="yes"/>
      <point x="129" y="253"/>
      <point x="55" y="218"/>
      <point x="50" y="85" type="curve" smooth="yes"/>
      <point x="47" y="0" type="line"/>
      <point x="398" y="0" type="line"/>
      <point x="398" y="80" type="line"/>
      <point x="165" y="80" type="line"/>
      <point x="165" y="85" type="line" smooth="yes"/>
      <point x="165" y="143"/>
      <point x="189" y="170"/>
      <point x="270" y="206" type="curve" smooth="yes"/>
      <point x="349" y="241"/>
      <point x="406" y="285"/>
      <point x="406" y="404" type="curve" smooth="yes"/>
      <point x="406" y="533"/>
      <point x="317" y="576"/>
      <point x="203" y="576" type="curve" smooth="yes"/>
      <point x="146" y="576"/>
      <point x="98" y="567"/>
      <point x="58" y="556" type="curve"/>
    </contour>
  </outline>
</glyph>
<glyph name="three" format="1">
  <advance width="448"/>
  <unicode hex="0033"/>
  <outline>
    <contour>
      <point x="102" y="258" type="line"/>
      <point x="253" y="243"/>
      <point x="295" y="219"/>
      <point x="295" y="168" type="curve" smooth="yes"/>
      <point x="295" y="122"/>
      <point x="263" y="92"/>
      <point x="36" y="73" type="curve"/>
      <point x="42" y="-9" type="line"/>
      <point x="288" y="6"/>
      <point x="411" y="55"/>
      <point x="411" y="173" type="curve" smooth="yes"/>
      <point x="411" y="273"/>
      <point x="306" y="322"/>
      <point x="109" y="337" type="curve"/>
    </contour>
    <contour>
      <point x="76" y="496" type="line"/>
      <point x="103" y="500"/>
      <point x="128" y="503"/>
      <point x="153" y="503" type="curve" smooth="yes"/>
      <point x="268" y="503"/>
      <point x="280" y="458"/>
      <point x="280" y="422" type="curve" smooth="yes"/>
      <point x="280" y="377"/>
      <point x="265" y="333"/>
      <point x="244" y="293" type="curve"/>
      <point x="326" y="262" type="line"/>
      <point x="361" y="312"/>
      <point x="394" y="374"/>
      <point x="394" y="440" type="curve" smooth="yes"/>
      <point x="394" y="536"/>
      <point x="322" y="582"/>
      <point x="182" y="582" type="curve" smooth="yes"/>
      <point x="142" y="582"/>
      <point x="94" y="575"/>
      <point x="67" y="569" type="curve"/>
    </contour>
  </outline>
</glyph>
<glyph name="four" format="1">
  <advance width="448"/>
  <unicode hex="0034"/>
  <outline>
    <contour>
      <point x="247" y="0" type="line"/>
      <point x="359" y="0" type="line"/>
      <point x="359" y="592" type="line"/>
      <point x="255" y="518" type="line"/>
      <point x="247" y="392" type="line"/>
    </contour>
    <contour>
      <point x="31" y="120" type="curve"/>
      <point x="433" y="120" type="line"/>
      <point x="433" y="200" type="line"/>
      <point x="147" y="200" type="line"/>
      <point x="161" y="359"/>
      <point x="218" y="471"/>
      <point x="340" y="509" type="curve"/>
      <point x="359" y="592" type="line"/>
      <point x="142" y="560"/>
      <point x="41" y="399"/>
    </contour>
  </outline>
</glyph>
<glyph name="five" format="1">
  <advance width="448"/>
  <unicode hex="0035"/>
  <outline>
    <contour>
      <point x="43" y="27" type="line"/>
      <point x="99" y="9"/>
      <point x="151" y="0"/>
      <point x="212" y="0" type="curve" smooth="yes"/>
      <point x="326" y="0"/>
      <point x="406" y="44"/>
      <point x="406" y="175" type="curve" smooth="yes"/>
      <point x="406" y="292"/>
      <point x="327" y="333"/>
      <point x="236" y="333" type="curve" smooth="yes"/>
      <point x="194" y="333"/>
      <point x="162" y="329"/>
      <point x="138" y="323" type="curve"/>
      <point x="170" y="270" type="line"/>
      <point x="183" y="571" type="line"/>
      <point x="140" y="496" type="line"/>
      <point x="384" y="496" type="line"/>
      <point x="384" y="576" type="line"/>
      <point x="71" y="576" type="line"/>
      <point x="58" y="271" type="line"/>
      <point x="106" y="240" type="line"/>
      <point x="145" y="248"/>
      <point x="173" y="253"/>
      <point x="206" y="253" type="curve" smooth="yes"/>
      <point x="271" y="253"/>
      <point x="290" y="231"/>
      <point x="290" y="172" type="curve" smooth="yes"/>
      <point x="290" y="106"/>
      <point x="260" y="80"/>
      <point x="187" y="80" type="curve" smooth="yes"/>
      <point x="146" y="80"/>
      <point x="101" y="89"/>
      <point x="61" y="99" type="curve"/>
    </contour>
  </outline>
</glyph>
<glyph name="six" format="1">
  <advance width="448"/>
  <unicode hex="0036"/>
  <outline>
    <contour>
      <point x="366" y="583" type="line"/>
      <point x="93" y="561"/>
      <point x="40" y="375"/>
      <point x="40" y="240" type="curve" smooth="yes"/>
      <point x="40" y="73"/>
      <point x="109" y="-8"/>
      <point x="226" y="-8" type="curve" smooth="yes"/>
      <point x="330" y="-8"/>
      <point x="405" y="60"/>
      <point x="405" y="168" type="curve" smooth="yes"/>
      <point x="405" y="282"/>
      <point x="336" y="336"/>
      <point x="238" y="336" type="curve" smooth="yes"/>
      <point x="177" y="336"/>
      <point x="120" y="314"/>
      <point x="82" y="292" type="curve"/>
      <point x="105" y="229" type="line"/>
      <point x="136" y="247"/>
      <point x="171" y="258"/>
      <point x="208" y="258" type="curve" smooth="yes"/>
      <point x="276" y="258"/>
      <point x="291" y="215"/>
      <point x="291" y="165" type="curve" smooth="yes"/>
      <point x="291" y="124"/>
      <point x="279" y="72"/>
      <point x="226" y="72" type="curve" smooth="yes"/>
      <point x="170" y="72"/>
      <point x="155" y="146"/>
      <point x="155" y="243" type="curve" smooth="yes"/>
      <point x="155" y="391"/>
      <point x="196" y="482"/>
      <point x="374" y="503" type="curve"/>
    </contour>
  </outline>
</glyph>
<glyph name="seven" format="1">
  <advance width="448"/>
  <unicode hex="0037"/>
  <outline>
    <contour>
      <point x="54" y="488" type="line"/>
      <point x="348" y="488" type="line"/>
      <point x="398" y="538" type="line"/>
      <point x="398" y="576" type="line"/>
      <point x="54" y="576" type="line"/>
    </contour>
    <contour>
      <point x="177" y="-16" type="line"/>
      <point x="281" y="102"/>
      <point x="371" y="240"/>
      <point x="391" y="460" type="curve" smooth="yes"/>
      <point x="398" y="538" type="line"/>
      <point x="297" y="576" type="line"/>
      <point x="289" y="478" type="line" smooth="yes"/>
      <point x="272" y="270"/>
      <point x="190" y="149"/>
      <point x="92" y="45" type="curve"/>
    </contour>
  </outline>
</glyph>
<glyph name="eight" format="1">
  <advance width="448"/>
  <unicode hex="0038"/>
  <outline>
    <contour>
      <point x="237" y="305" type="line"/>
      <point x="274" y="342"/>
      <point x="286" y="380"/>
      <point x="286" y="425" type="curve" smooth="yes"/>
      <point x="286" y="465"/>
      <point x="268" y="506"/>
      <point x="224" y="506" type="curve" smooth="yes"/>
      <point x="177" y="506"/>
      <point x="162" y="466"/>
      <point x="162" y="429" type="curve" smooth="yes"/>
      <point x="162" y="387"/>
      <point x="178" y="361"/>
      <point x="285" y="309" type="curve" smooth="yes"/>
      <point x="378" y="264"/>
      <point x="425" y="220"/>
      <point x="425" y="141" type="curve" smooth="yes"/>
      <point x="425" y="62"/>
      <point x="352" y="-11"/>
      <point x="224" y="-11" type="curve" smooth="yes"/>
      <point x="94" y="-11"/>
      <point x="22" y="60"/>
      <point x="22" y="152" type="curve" smooth="yes"/>
      <point x="22" y="227"/>
      <point x="67" y="283"/>
      <point x="124" y="320" type="curve"/>
      <point x="197" y="273" type="line"/>
      <point x="145" y="240"/>
      <point x="136" y="200"/>
      <point x="136" y="159" type="curve" smooth="yes"/>
      <point x="136" y="114"/>
      <point x="161" y="69"/>
      <point x="224" y="69" type="curve" smooth="yes"/>
      <point x="287" y="69"/>
      <point x="311" y="111"/>
      <point x="311" y="142" type="curve" smooth="yes"/>
      <point x="311" y="177"/>
      <point x="290" y="198"/>
      <point x="190" y="248" type="curve" smooth="yes"/>
      <point x="75" y="305"/>
      <point x="48" y="367"/>
      <point x="48" y="431" type="curve" smooth="yes"/>
      <point x="48" y="521"/>
      <point x="122" y="586"/>
      <point x="224" y="586" type="curve" smooth="yes"/>
      <point x="326" y="586"/>
      <point x="400" y="525"/>
      <point x="400" y="427" type="curve" smooth="yes"/>
      <point x="400" y="375"/>
      <point x="378" y="311"/>
      <point x="316" y="263" type="curve"/>
    </contour>
  </outline>
</glyph>
<glyph name="nine" format="1">
  <advance width="448"/>
  <unicode hex="0039"/>
  <outline>
    <contour>
      <point x="118" y="-10" type="line"/>
      <point x="342" y="60"/>
      <point x="397" y="185"/>
      <point x="397" y="338" type="curve" smooth="yes"/>
      <point x="397" y="502"/>
      <point x="318" y="585"/>
      <point x="206" y="585" type="curve" smooth="yes"/>
      <point x="105" y="585"/>
      <point x="31" y="512"/>
      <point x="31" y="407" type="curve" smooth="yes"/>
      <point x="31" y="310"/>
      <point x="83" y="231"/>
      <point x="201" y="231" type="curve" smooth="yes"/>
      <point x="260" y="231"/>
      <point x="308" y="253"/>
      <point x="349" y="284" type="curve"/>
      <point x="323" y="347" type="line"/>
      <point x="296" y="324"/>
      <point x="260" y="309"/>
      <point x="226" y="309" type="curve" smooth="yes"/>
      <point x="157" y="309"/>
      <point x="142" y="362"/>
      <point x="142" y="411" type="curve" smooth="yes"/>
      <point x="142" y="459"/>
      <point x="157" y="506"/>
      <point x="207" y="506" type="curve" smooth="yes"/>
      <point x="264" y="506"/>
      <point x="281" y="440"/>
      <point x="281" y="337" type="curve" smooth="yes"/>
      <point x="281" y="197"/>
      <point x="246" y="123"/>
      <point x="90" y="65" type="curve"/>
    </contour>
  </outline>
</glyph>
<glyph name="colon" format="1">
  <advance width="448"/>
  <unicode hex="003A"/>
  <outline>
    <contour>
      <point x="108" y="74" type="curve" smooth="yes"/>
      <point x="108" y="19"/>
      <point x="146" y="-10"/>
      <point x="192" y="-10" type="curve" smooth="yes"/>
      <point x="238" y="-10"/>
      <point x="276" y="19"/>
      <point x="276" y="74" type="curve" smooth="yes"/>
      <point x="276" y="128"/>
      <point x="238" y="158"/>
      <point x="192" y="158" type="curve" smooth="yes"/>
      <point x="146" y="158"/>
      <point x="108" y="128"/>
    </contour>
    <contour>
      <point x="108" y="374" type="curve" smooth="yes"/>
      <point x="108" y="319"/>
      <point x="146" y="290"/>
      <point x="192" y="290" type="curve" smooth="yes"/>
      <point x="238" y="290"/>
      <point x="276" y="319"/>
      <point x="276" y="374" type="curve" smooth="yes"/>
      <point x="276" y="428"/>
      <point x="238" y="458"/>
      <point x="192" y="458" type="curve" smooth="yes"/>
      <point x="146" y="458"/>
      <point x="108" y="428"/>
    </contour>
  </outline>
</glyph>
<glyph name="semicolon" format="1">
  <advance width="448"/>
  <unicode hex="003B"/>
  <outline>
    <contour>
      <point x="108" y="374" type="curve" smooth="yes"/>
      <point x="108" y="319"/>
      <point x="146" y="290"/>
      <point x="192" y="290" type="curve" smooth="yes"/>
      <point x="238" y="290"/>
      <point x="276" y="319"/>
      <point x="276" y="374" type="curve" smooth="yes"/>
      <point x="276" y="428"/>
      <point x="238" y="458"/>
      <point x="192" y="458" type="curve" smooth="yes"/>
      <point x="146" y="458"/>
      <point x="108" y="428"/>
    </contour>
    <contour>
      <point x="109" y="71" type="curve" smooth="yes"/>
      <point x="109" y="23"/>
      <point x="138" y="-3"/>
      <point x="176" y="-9" type="curve"/>
      <point x="168" y="-46"/>
      <point x="150" y="-81"/>
      <point x="131" y="-111" type="curve"/>
      <point x="191" y="-149" type="line"/>
      <point x="237" y="-93"/>
      <point x="275" y="-22"/>
      <point x="275" y="52" type="curve" smooth="yes"/>
      <point x="275" y="129"/>
      <point x="233" y="153"/>
      <point x="191" y="153" type="curve" smooth="yes"/>
      <point x="144" y="153"/>
      <point x="109" y="122"/>
    </contour>
  </outline>
</glyph>
<glyph name="less" format="1">
  <advance width="448"/>
  <unicode hex="003C"/>
  <outline>
    <contour>
      <point x="364" y="468" type="line"/>
      <point x="284" y="538" type="line"/>
      <point x="26" y="288" type="line"/>
      <point x="284" y="38" type="line"/>
      <point x="364" y="108" type="line"/>
      <point x="177" y="288" type="line"/>
    </contour>
  </outline>
</glyph>
<glyph name="equal" format="1">
  <advance width="448"/>
  <unicode hex="003D"/>
  <outline>
    <contour>
      <point x="404" y="248" type="line"/>
      <point x="44" y="248" type="line"/>
      <point x="44" y="152" type="line"/>
      <point x="404" y="152" type="line"/>
    </contour>
    <contour>
      <point x="404" y="424" type="line"/>
      <point x="44" y="424" type="line"/>
      <point x="44" y="328" type="line"/>
      <point x="404" y="328" type="line"/>
    </contour>
  </outline>
</glyph>
<glyph name="greater" format="1">
  <advance width="448"/>
  <unicode hex="003E"/>
  <outline>
    <contour>
      <point x="422" y="288" type="line"/>
      <point x="164" y="538" type="line"/>
      <point x="84" y="468" type="line"/>
      <point x="271" y="288" type="line"/>
      <point x="84" y="108" type="line"/>
      <point x="164" y="38" type="line"/>
    </contour>
  </outline>
</glyph>
<glyph name="at" format="1">
  <advance width="448"/>
  <unicode hex="0040"/>
  <outline>
    <contour>
      <point x="408" y="379" type="line" smooth="yes"/>
      <point x="408" y="502"/>
      <point x="354" y="586"/>
      <point x="233" y="586" type="curve" smooth="yes"/>
      <point x="83" y="586"/>
      <point x="28" y="465"/>
      <point x="28" y="223" type="curve" smooth="yes"/>
      <point x="28" y="-21"/>
      <point x="93" y="-128"/>
      <point x="244" y="-128" type="curve" smooth="yes"/>
      <point x="284" y="-128"/>
      <point x="330" y="-119"/>
      <point x="366" y="-103" type="curve"/>
      <point x="347" y="-38" type="line"/>
      <point x="317" y="-45"/>
      <point x="288" y="-48"/>
      <point x="264" y="-48" type="curve" smooth="yes"/>
      <point x="169" y="-48"/>
      <point x="140" y="17"/>
      <point x="140" y="223" type="curve" smooth="yes"/>
      <point x="140" y="429"/>
      <point x="162" y="507"/>
      <point x="231" y="507" type="curve" smooth="yes"/>
      <point x="280" y="507"/>
      <point x="296" y="463"/>
      <point x="296" y="373" type="curve" smooth="yes"/>
      <point x="296" y="138" type="line"/>
      <point x="278" y="140"/>
      <point x="271" y="166"/>
      <point x="271" y="220" type="curve" smooth="yes"/>
      <point x="271" y="279"/>
      <point x="283" y="305"/>
      <point x="332" y="319" type="curve"/>
      <point x="332" y="399" type="line"/>
      <point x="208" y="383"/>
      <point x="157" y="319"/>
      <point x="157" y="218" type="curve" smooth="yes"/>
      <point x="157" y="114"/>
      <point x="214" y="56"/>
      <point x="315" y="56" type="curve" smooth="yes"/>
      <point x="339" y="56"/>
      <point x="381" y="59"/>
      <point x="408" y="66" type="curve"/>
    </contour>
  </outline>
</glyph>
<glyph name="A" format="1">
  <advance width="448"/>
  <unicode hex="0041"/>
  <outline>
    <contour>
      <point x="140" y="-2" type="line"/>
      <point x="158" y="237"/>
      <point x="194" y="439"/>
      <point x="243" y="577" type="curve"/>
      <point x="205" y="577" type="line"/>
      <point x="254" y="439"/>
      <point x="290" y="237"/>
      <point x="308" y="-2" type="curve"/>
      <point x="422" y="3" type="line"/>
      <point x="403" y="245"/>
      <point x="354" y="477"/>
      <point x="276" y="643" type="curve"/>
      <point x="172" y="643" type="line"/>
      <point x="94" y="477"/>
      <point x="45" y="245"/>
      <point x="26" y="3" type="curve"/>
    </contour>
    <contour>
      <point x="97" y="160" type="line"/>
      <point x="353" y="160" type="line"/>
      <point x="353" y="240" type="line"/>
      <point x="97" y="240" type="line"/>
    </contour>
  </outline>
</glyph>
<glyph name="B" format="1">
  <advance width="448"/>
  <unicode hex="0042"/>
  <outline>
    <contour>
      <point x="50" y="0" type="line"/>
      <point x="162" y="0" type="line"/>
      <point x="162" y="640" type="line"/>
      <point x="50" y="640" type="line"/>
    </contour>
    <contour>
      <point x="128" y="264" type="line"/>
      <point x="191" y="264" type="line" smooth="yes"/>
      <point x="276" y="264"/>
      <point x="305" y="229"/>
      <point x="305" y="174" type="curve" smooth="yes"/>
      <point x="305" y="112"/>
      <point x="277" y="80"/>
      <point x="191" y="80" type="curve" smooth="yes"/>
      <point x="128" y="80" type="line"/>
      <point x="128" y="0" type="line"/>
      <point x="215" y="0" type="line" smooth="yes"/>
      <point x="338" y="0"/>
      <point x="421" y="61"/>
      <point x="421" y="172" type="curve" smooth="yes"/>
      <point x="421" y="256"/>
      <point x="372" y="306"/>
      <point x="298" y="322" type="curve"/>
      <point x="256" y="344" type="line"/>
      <point x="128" y="344" type="line"/>
    </contour>
    <contour>
      <point x="128" y="560" type="line"/>
      <point x="175" y="560" type="line" smooth="yes"/>
      <point x="255" y="560"/>
      <point x="282" y="527"/>
      <point x="282" y="466" type="curve" smooth="yes"/>
      <point x="282" y="419"/>
      <point x="262" y="366"/>
      <point x="224" y="336" type="curve"/>
      <point x="272" y="276" type="line"/>
      <point x="364" y="340"/>
      <point x="400" y="406"/>
      <point x="400" y="476" type="curve" smooth="yes"/>
      <point x="400" y="586"/>
      <point x="322" y="640"/>
      <point x="195" y="640" type="curve" smooth="yes"/>
      <point x="128" y="640" type="line"/>
    </contour>
  </outline>
</glyph>
<glyph name="C" format="1">
  <advance width="448"/>
  <unicode hex="0043"/>
  <outline>
    <contour>
      <point x="168" y="319" type="curve" smooth="yes"/>
      <point x="168" y="496"/>
      <point x="178" y="567"/>
      <point x="297" y="567" type="curve" smooth="yes"/>
      <point x="320" y="567"/>
      <point x="348" y="564"/>
      <point x="374" y="558" type="curve"/>
      <point x="388" y="632" type="line"/>
      <point x="353" y="642"/>
      <point x="310" y="647"/>
      <point x="277" y="647" type="curve" smooth="yes"/>
      <point x="112" y="647"/>
      <point x="50" y="560"/>
      <point x="50" y="319" type="curve" smooth="yes"/>
      <point x="50" y="78"/>
      <point x="112" y="-9"/>
      <point x="277" y="-9" type="curve" smooth="yes"/>
      <point x="314" y="-9"/>
      <point x="359" y="-3"/>
      <point x="394" y="8" type="curve"/>
      <point x="380" y="82" type="line"/>
      <point x="350" y="74"/>
      <point x="322" y="71"/>
      <point x="298" y="71" type="curve" smooth="yes"/>
      <point x="178" y="71"/>
      <point x="168" y="142"/>
    </contour>
  </outline>
</glyph>
<glyph name="D" format="1">
  <advance width="448"/>
  <unicode hex="0044"/>
  <outline>
    <contour>
      <point x="50" y="0" type="line"/>
      <point x="162" y="0" type="line"/>
      <point x="162" y="640" type="line"/>
      <point x="50" y="640" type="line"/>
    </contour>
    <contour>
      <point x="107" y="640" type="line"/>
      <point x="107" y="560" type="line"/>
      <point x="176" y="560" type="line" smooth="yes"/>
      <point x="273" y="560"/>
      <point x="286" y="489"/>
      <point x="286" y="317" type="curve" smooth="yes"/>
      <point x="286" y="151"/>
      <point x="275" y="80"/>
      <point x="176" y="80" type="curve" smooth="yes"/>
      <point x="105" y="80" type="line"/>
      <point x="105" y="0" type="line"/>
      <point x="183" y="0" type="line" smooth="yes"/>
      <point x="341" y="0"/>
      <point x="404" y="86"/>
      <point x="404" y="317" type="curve" smooth="yes"/>
      <point x="404" y="547"/>
      <point x="341" y="640"/>
      <point x="182" y="640" type="curve" smooth="yes"/>
    </contour>
  </outline>
</glyph>
<glyph name="E" format="1">
  <advance width="448"/>
  <unicode hex="0045"/>
  <outline>
    <contour>
      <point x="394" y="640" type="line"/>
      <point x="50" y="640" type="line"/>
      <point x="50" y="0" type="line"/>
      <point x="404" y="0" type="line"/>
      <point x="404" y="80" type="line"/>
      <point x="162" y="80" type="line"/>
      <point x="162" y="248" type="line"/>
      <point x="340" y="248" type="line"/>
      <point x="340" y="328" type="line"/>
      <point x="162" y="328" type="line"/>
      <point x="162" y="560" type="line"/>
      <point x="394" y="560" type="line"/>
    </contour>
  </outline>
</glyph>
<glyph name="F" format="1">
  <advance width="448"/>
  <unicode hex="0046"/>
  <outline>
    <contour>
      <point x="404" y="640" type="line"/>
      <point x="48" y="640" type="line"/>
      <point x="48" y="0" type="line"/>
      <point x="160" y="0" type="line"/>
      <point x="160" y="248" type="line"/>
      <point x="340" y="248" type="line"/>
      <point x="340" y="328" type="line"/>
      <point x="160" y="328" type="line"/>
      <point x="160" y="560" type="line"/>
      <point x="404" y="560" type="line"/>
    </contour>
  </outline>
</glyph>
<glyph name="G" format="1">
  <advance width="448"/>
  <unicode hex="0047"/>
  <outline>
    <contour>
      <point x="162" y="319" type="curve" smooth="yes"/>
      <point x="162" y="496"/>
      <point x="172" y="567"/>
      <point x="292" y="567" type="curve" smooth="yes"/>
      <point x="312" y="567"/>
      <point x="346" y="564"/>
      <point x="381" y="555" type="curve"/>
      <point x="395" y="629" type="line"/>
      <point x="355" y="641"/>
      <point x="306" y="647"/>
      <point x="271" y="647" type="curve" smooth="yes"/>
      <point x="106" y="647"/>
      <point x="44" y="560"/>
      <point x="44" y="319" type="curve" smooth="yes"/>
      <point x="44" y="78"/>
      <point x="106" y="-9"/>
      <point x="272" y="-9" type="curve" smooth="yes"/>
      <point x="307" y="-9"/>
      <point x="359" y="-4"/>
      <point x="398" y="7" type="curve"/>
      <point x="381" y="83" type="line"/>
      <point x="346" y="77"/>
      <point x="309" y="71"/>
      <point x="275" y="71" type="curve" smooth="yes"/>
      <point x="172" y="71"/>
      <point x="162" y="142"/>
    </contour>
    <contour>
      <point x="211" y="248" type="line"/>
      <point x="286" y="248" type="line"/>
      <point x="286" y="7" type="line"/>
      <point x="398" y="7" type="line"/>
      <point x="398" y="328" type="line"/>
      <point x="211" y="328" type="line"/>
    </contour>
  </outline>
</glyph>
<glyph name="H" format="1">
  <advance width="448"/>
  <unicode hex="0048"/>
  <outline>
    <contour>
      <point x="162" y="248" type="line"/>
      <point x="286" y="248" type="line"/>
      <point x="286" y="0" type="line"/>
      <point x="398" y="0" type="line"/>
      <point x="398" y="640" type="line"/>
      <point x="286" y="640" type="line"/>
      <point x="286" y="328" type="line"/>
      <point x="162" y="328" type="line"/>
      <point x="162" y="640" type="line"/>
      <point x="50" y="640" type="line"/>
      <point x="50" y="0" type="line"/>
      <point x="162" y="0" type="line"/>
    </contour>
  </outline>
</glyph>
<glyph name="I" format="1">
  <advance width="448"/>
  <unicode hex="0049"/>
  <outline>
    <contour>
      <point x="48" y="560" type="line"/>
      <point x="168" y="560" type="line"/>
      <point x="168" y="80" type="line"/>
      <point x="44" y="80" type="line"/>
      <point x="44" y="0" type="line"/>
      <point x="404" y="0" type="line"/>
      <point x="404" y="80" type="line"/>
      <point x="280" y="80" type="line"/>
      <point x="280" y="560" type="line"/>
      <point x="400" y="560" type="line"/>
      <point x="400" y="640" type="line"/>
      <point x="48" y="640" type="line"/>
    </contour>
  </outline>
</glyph>
<glyph name="J" format="1">
  <advance width="448"/>
  <unicode hex="004A"/>
  <outline>
    <contour>
      <point x="270" y="640" type="move" name="top"/>
    </contour>
    <contour>
      <point x="132" y="552" type="line"/>
      <point x="286" y="552" type="line"/>
      <point x="286" y="169" type="line" smooth="yes"/>
      <point x="286" y="110"/>
      <point x="273" y="72"/>
      <point x="224" y="72" type="curve" smooth="yes"/>
      <point x="189" y="72"/>
      <point x="169" y="101"/>
      <point x="155" y="160" type="curve"/>
      <point x="52" y="136" type="line"/>
      <point x="70" y="49"/>
      <point x="122" y="-8"/>
      <point x="224" y="-8" type="curve" smooth="yes"/>
      <point x="326" y="-8"/>
      <point x="398" y="43"/>
      <point x="398" y="173" type="curve" smooth="yes"/>
      <point x="398" y="640" type="line"/>
      <point x="132" y="640" type="line"/>
    </contour>
  </outline>
</glyph>
<glyph name="K" format="1">
  <advance width="448"/>
  <unicode hex="004B"/>
  <outline>
    <contour>
      <point x="50" y="0" type="line"/>
      <point x="162" y="0" type="line"/>
      <point x="162" y="640" type="line"/>
      <point x="50" y="640" type="line"/>
    </contour>
    <contour>
      <point x="284" y="282" type="line"/>
      <point x="352" y="387"/>
      <point x="386" y="484"/>
      <point x="411" y="627" type="curve"/>
      <point x="295" y="643" type="line"/>
      <point x="272" y="508"/>
      <point x="244" y="420"/>
      <point x="183" y="328" type="curve"/>
    </contour>
    <contour>
      <point x="295" y="-5" type="line"/>
      <point x="413" y="3" type="line"/>
      <point x="399" y="155" type="line" smooth="yes"/>
      <point x="388" y="288"/>
      <point x="313" y="333"/>
      <point x="180" y="333" type="curve" smooth="yes"/>
      <point x="121" y="333" type="line"/>
      <point x="121" y="253" type="line"/>
      <point x="185" y="253" type="line" smooth="yes"/>
      <point x="264" y="253"/>
      <point x="284" y="226"/>
      <point x="288" y="141" type="curve" smooth="yes"/>
    </contour>
  </outline>
</glyph>
<glyph name="L" format="1">
  <advance width="448"/>
  <unicode hex="004C"/>
  <outline>
    <contour>
      <point x="394" y="0" type="line"/>
      <point x="394" y="88" type="line"/>
      <point x="162" y="88" type="line"/>
      <point x="162" y="640" type="line"/>
      <point x="50" y="640" type="line"/>
      <point x="50" y="0" type="line"/>
    </contour>
  </outline>
</glyph>
<glyph name="M" format="1">
  <advance width="448"/>
  <unicode hex="004D"/>
  <outline>
    <contour>
      <point x="36" y="0" type="line"/>
      <point x="148" y="0" type="line"/>
      <point x="148" y="128" type="line"/>
      <point x="140" y="576" type="line"/>
      <point x="36" y="576" type="line"/>
    </contour>
    <contour>
      <point x="300" y="128" type="line"/>
      <point x="300" y="0" type="line"/>
      <point x="412" y="0" type="line"/>
      <point x="412" y="576" type="line"/>
      <point x="308" y="576" type="line"/>
    </contour>
    <contour>
      <point x="182" y="148" type="line"/>
      <point x="266" y="148" type="line"/>
      <point x="266" y="512" type="line"/>
      <point x="182" y="512" type="line"/>
    </contour>
    <contour>
      <point x="252" y="512" type="line"/>
      <point x="252" y="601"/>
      <point x="208" y="640"/>
      <point x="107" y="640" type="curve" smooth="yes"/>
      <point x="36" y="640" type="line"/>
      <point x="36" y="560" type="line"/>
      <point x="122" y="560" type="line"/>
      <point x="172" y="560"/>
      <point x="182" y="547"/>
      <point x="182" y="512" type="curve"/>
    </contour>
    <contour>
      <point x="266" y="512" type="line"/>
      <point x="266" y="547"/>
      <point x="276" y="560"/>
      <point x="326" y="560" type="curve" smooth="yes"/>
      <point x="412" y="560" type="line"/>
      <point x="412" y="640" type="line"/>
      <point x="341" y="640" type="line" smooth="yes"/>
      <point x="240" y="640"/>
      <point x="196" y="601"/>
      <point x="196" y="512" type="curve"/>
    </contour>
  </outline>
</glyph>
<glyph name="N" format="1">
  <advance width="448"/>
  <unicode hex="004E"/>
  <outline>
    <contour>
      <point x="50" y="0" type="line"/>
      <point x="152" y="0" type="line"/>
      <point x="142" y="608" type="line"/>
      <point x="162" y="640" type="line"/>
      <point x="50" y="640" type="line"/>
    </contour>
    <contour>
      <point x="306" y="31" type="line"/>
      <point x="286" y="0" type="line"/>
      <point x="398" y="0" type="line"/>
      <point x="398" y="640" type="line"/>
      <point x="296" y="640" type="line"/>
    </contour>
    <contour>
      <point x="286" y="0" type="line"/>
      <point x="332" y="25" type="line"/>
      <point x="282" y="272" type="line"/>
      <point x="162" y="640" type="line"/>
      <point x="115" y="615" type="line"/>
      <point x="166" y="368" type="line"/>
    </contour>
  </outline>
</glyph>
<glyph name="O" format="1">
  <advance width="448"/>
  <unicode hex="004F"/>
  <outline>
    <contour>
      <point x="27" y="319" type="curve" smooth="yes"/>
      <point x="27" y="102"/>
      <point x="92" y="-10"/>
      <point x="224" y="-10" type="curve" smooth="yes"/>
      <point x="360" y="-10"/>
      <point x="421" y="102"/>
      <point x="421" y="319" type="curve" smooth="yes"/>
      <point x="421" y="541"/>
      <point x="360" y="650"/>
      <point x="224" y="650" type="curve" smooth="yes"/>
      <point x="92" y="650"/>
      <point x="27" y="541"/>
    </contour>
    <contour>
      <point x="143" y="319" type="curve" smooth="yes"/>
      <point x="143" y="500"/>
      <point x="165" y="568"/>
      <point x="224" y="568" type="curve" smooth="yes"/>
      <point x="283" y="568"/>
      <point x="305" y="500"/>
      <point x="305" y="319" type="curve" smooth="yes"/>
      <point x="305" y="140"/>
      <point x="283" y="72"/>
      <point x="224" y="72" type="curve" smooth="yes"/>
      <point x="165" y="72"/>
      <point x="143" y="140"/>
    </contour>
  </outline>
</glyph>
<glyph name="P" format="1">
  <advance width="448"/>
  <unicode hex="0050"/>
  <outline>
    <contour>
      <point x="50" y="0" type="line"/>
      <point x="162" y="0" type="line"/>
      <point x="162" y="640" type="line"/>
      <point x="50" y="640" type="line"/>
    </contour>
    <contour>
      <point x="107" y="640" type="line"/>
      <point x="107" y="560" type="line"/>
      <point x="194" y="560" type="line" smooth="yes"/>
      <point x="274" y="560"/>
      <point x="295" y="501"/>
      <point x="295" y="409" type="curve" smooth="yes"/>
      <point x="295" y="322"/>
      <point x="276" y="263"/>
      <point x="194" y="263" type="curve" smooth="yes"/>
      <point x="105" y="263" type="line"/>
      <point x="105" y="184" type="line"/>
      <point x="218" y="184" type="line" smooth="yes"/>
      <point x="334" y="184"/>
      <point x="411" y="261"/>
      <point x="411" y="410" type="curve" smooth="yes"/>
      <point x="411" y="558"/>
      <point x="335" y="640"/>
      <point x="218" y="640" type="curve" smooth="yes"/>
    </contour>
  </outline>
</glyph>
<glyph name="Q" format="1">
  <advance width="448"/>
  <unicode hex="0051"/>
  <outline>
    <contour>
      <point x="424" y="-72" type="line"/>
      <point x="340" y="-63"/>
      <point x="301" y="-48"/>
      <point x="291" y="20" type="curve"/>
      <point x="176" y="20" type="line"/>
      <point x="195" y="-102"/>
      <point x="292" y="-146"/>
      <point x="413" y="-152" type="curve"/>
    </contour>
    <component base="O"/>
  </outline>
</glyph>
<glyph name="R" format="1">
  <advance width="448"/>
  <unicode hex="0052"/>
  <outline>
    <contour>
      <point x="224" y="640" type="move" name="top"/>
    </contour>
    <contour>
      <point x="50" y="0" type="line"/>
      <point x="162" y="0" type="line"/>
      <point x="162" y="640" type="line"/>
      <point x="50" y="640" type="line"/>
    </contour>
    <contour>
      <point x="107" y="640" type="line"/>
      <point x="107" y="570" type="line"/>
      <point x="194" y="570" type="line" smooth="yes"/>
      <point x="274" y="570"/>
      <point x="295" y="519"/>
      <point x="295" y="440" type="curve" smooth="yes"/>
      <point x="295" y="367"/>
      <point x="276" y="313"/>
      <point x="194" y="313" type="curve" smooth="yes"/>
      <point x="105" y="313" type="line"/>
      <point x="105" y="233" type="line"/>
      <point x="196" y="233" type="line"/>
      <point x="204" y="243" type="line"/>
      <point x="215" y="243" type="line" smooth="yes"/>
      <point x="333" y="243"/>
      <point x="411" y="305"/>
      <point x="411" y="433" type="curve" smooth="yes"/>
      <point x="411" y="566"/>
      <point x="335" y="640"/>
      <point x="218" y="640" type="curve" smooth="yes"/>
    </contour>
    <contour>
      <point x="421" y="2" type="line"/>
      <point x="406" y="172"/>
      <point x="316" y="279"/>
      <point x="176" y="279" type="curve"/>
      <point x="176" y="236" type="line"/>
      <point x="253" y="194"/>
      <point x="297" y="129"/>
      <point x="307" y="-5" type="curve"/>
    </contour>
  </outline>
</glyph>
<glyph name="S" format="1">
  <advance width="448"/>
  <unicode hex="0053"/>
  <outline>
    <contour>
      <point x="390" y="626" type="line"/>
      <point x="353" y="640"/>
      <point x="305" y="648"/>
      <point x="259" y="648" type="curve" smooth="yes"/>
      <point x="119" y="648"/>
      <point x="49" y="570"/>
      <point x="49" y="451" type="curve" smooth="yes"/>
      <point x="49" y="219"/>
      <point x="285" y="279"/>
      <point x="285" y="152" type="curve" smooth="yes"/>
      <point x="285" y="110"/>
      <point x="262" y="74"/>
      <point x="178" y="74" type="curve" smooth="yes"/>
      <point x="132" y="74"/>
      <point x="94" y="86"/>
      <point x="61" y="98" type="curve"/>
      <point x="37" y="24" type="line"/>
      <point x="84" y="3"/>
      <point x="145" y="-8"/>
      <point x="197" y="-8" type="curve" smooth="yes"/>
      <point x="325" y="-8"/>
      <point x="401" y="44"/>
      <point x="401" y="161" type="curve" smooth="yes"/>
      <point x="401" y="370"/>
      <point x="165" y="306"/>
      <point x="165" y="460" type="curve" smooth="yes"/>
      <point x="165" y="518"/>
      <point x="183" y="566"/>
      <point x="273" y="566" type="curve" smooth="yes"/>
      <point x="303" y="566"/>
      <point x="341" y="558"/>
      <point x="370" y="549" type="curve"/>
    </contour>
  </outline>
</glyph>
<glyph name="T" format="1">
  <advance width="448"/>
  <unicode hex="0054"/>
  <outline>
    <contour>
      <point x="424" y="640" type="line"/>
      <point x="24" y="640" type="line"/>
      <point x="24" y="560" type="line"/>
      <point x="168" y="560" type="line"/>
      <point x="168" y="0" type="line"/>
      <point x="280" y="0" type="line"/>
      <point x="280" y="560" type="line"/>
      <point x="424" y="560" type="line"/>
    </contour>
  </outline>
</glyph>
<glyph name="U" format="1">
  <advance width="448"/>
  <unicode hex="0055"/>
  <outline>
    <contour>
      <point x="50" y="187" type="line" smooth="yes"/>
      <point x="50" y="45"/>
      <point x="122" y="-8"/>
      <point x="224" y="-8" type="curve" smooth="yes"/>
      <point x="326" y="-8"/>
      <point x="398" y="45"/>
      <point x="398" y="187" type="curve" smooth="yes"/>
      <point x="398" y="640" type="line"/>
      <point x="286" y="640" type="line"/>
      <point x="286" y="182" type="line" smooth="yes"/>
      <point x="286" y="114"/>
      <point x="273" y="72"/>
      <point x="224" y="72" type="curve" smooth="yes"/>
      <point x="172" y="72"/>
      <point x="162" y="114"/>
      <point x="162" y="182" type="curve" smooth="yes"/>
      <point x="162" y="640" type="line"/>
      <point x="50" y="640" type="line"/>
    </contour>
  </outline>
</glyph>
<glyph name="V" format="1">
  <advance width="448"/>
  <unicode hex="0056"/>
  <outline>
    <contour>
      <point x="26" y="638" type="line"/>
      <point x="45" y="396"/>
      <point x="94" y="164"/>
      <point x="172" y="-2" type="curve"/>
      <point x="276" y="-2" type="line"/>
      <point x="354" y="164"/>
      <point x="403" y="396"/>
      <point x="422" y="638" type="curve"/>
      <point x="308" y="643" type="line"/>
      <point x="290" y="404"/>
      <point x="254" y="202"/>
      <point x="205" y="64" type="curve"/>
      <point x="243" y="64" type="line"/>
      <point x="194" y="202"/>
      <point x="158" y="404"/>
      <point x="140" y="643" type="curve"/>
    </contour>
  </outline>
</glyph>
<glyph name="W" format="1">
  <advance width="448"/>
  <unicode hex="0057"/>
  <outline>
    <contour>
      <point x="181" y="0" type="line"/>
      <point x="139" y="214"/>
      <point x="136" y="384"/>
      <point x="134" y="640" type="curve"/>
      <point x="22" y="640" type="line"/>
      <point x="24" y="384"/>
      <point x="40" y="207"/>
      <point x="92" y="0" type="curve"/>
    </contour>
    <contour>
      <point x="191" y="0" type="line"/>
      <point x="233" y="128"/>
      <point x="238" y="256"/>
      <point x="238" y="448" type="curve"/>
      <point x="182" y="448" type="line"/>
      <point x="182" y="296"/>
      <point x="170" y="160"/>
      <point x="131" y="0" type="curve"/>
    </contour>
    <contour>
      <point x="356" y="0" type="line"/>
      <point x="408" y="207"/>
      <point x="424" y="383"/>
      <point x="426" y="639" type="curve"/>
      <point x="314" y="640" type="line"/>
      <point x="312" y="384"/>
      <point x="309" y="214"/>
      <point x="267" y="0" type="curve"/>
    </contour>
    <contour>
      <point x="317" y="0" type="line"/>
      <point x="278" y="160"/>
      <point x="266" y="296"/>
      <point x="266" y="448" type="curve"/>
      <point x="210" y="448" type="line"/>
      <point x="210" y="256"/>
      <point x="215" y="128"/>
      <point x="257" y="0" type="curve"/>
    </contour>
  </outline>
</glyph>
<glyph name="X" format="1">
  <advance width="448"/>
  <unicode hex="0058"/>
  <outline>
    <contour>
      <point x="195" y="264" type="line"/>
      <point x="253" y="182"/>
      <point x="275" y="118"/>
      <point x="297" y="-7" type="curve"/>
      <point x="409" y="6" type="line"/>
      <point x="387" y="133"/>
      <point x="358" y="211"/>
      <point x="285" y="312" type="curve"/>
      <point x="254" y="337" type="line"/>
      <point x="192" y="410"/>
      <point x="171" y="485"/>
      <point x="158" y="643" type="curve"/>
      <point x="46" y="636" type="line"/>
      <point x="61" y="467"/>
      <point x="90" y="376"/>
      <point x="170" y="282" type="curve"/>
    </contour>
    <contour>
      <point x="278" y="282" type="line"/>
      <point x="358" y="376"/>
      <point x="387" y="467"/>
      <point x="402" y="636" type="curve"/>
      <point x="290" y="643" type="line"/>
      <point x="277" y="485"/>
      <point x="256" y="410"/>
      <point x="194" y="337" type="curve"/>
      <point x="163" y="312" type="line"/>
      <point x="90" y="211"/>
      <point x="60" y="133"/>
      <point x="38" y="6" type="curve"/>
      <point x="150" y="-7" type="line"/>
      <point x="172" y="118"/>
      <point x="194" y="182"/>
      <point x="253" y="264" type="curve"/>
    </contour>
  </outline>
</glyph>
<glyph name="Y" format="1">
  <advance width="448"/>
  <unicode hex="0059"/>
  <outline>
    <contour>
      <point x="168" y="0" type="line"/>
      <point x="280" y="0" type="line"/>
      <point x="280" y="202" type="line"/>
      <point x="168" y="202" type="line"/>
    </contour>
    <contour>
      <point x="280" y="202" type="line"/>
      <point x="356" y="311"/>
      <point x="401" y="447"/>
      <point x="421" y="636" type="curve"/>
      <point x="310" y="643" type="line"/>
      <point x="301" y="451"/>
      <point x="271" y="359"/>
      <point x="185" y="202" type="curve"/>
    </contour>
    <contour>
      <point x="263" y="202" type="line"/>
      <point x="177" y="359"/>
      <point x="147" y="451"/>
      <point x="138" y="643" type="curve"/>
      <point x="27" y="636" type="line"/>
      <point x="47" y="447"/>
      <point x="92" y="311"/>
      <point x="168" y="202" type="curve"/>
    </contour>
  </outline>
</glyph>
<glyph name="Z" format="1">
  <advance width="448"/>
  <unicode hex="005A"/>
  <outline>
    <contour>
      <point x="57" y="560" type="line"/>
      <point x="352" y="560" type="line"/>
      <point x="398" y="620" type="line"/>
      <point x="398" y="640" type="line"/>
      <point x="57" y="640" type="line"/>
    </contour>
    <contour>
      <point x="45" y="0" type="line"/>
      <point x="398" y="0" type="line"/>
      <point x="398" y="80" type="line"/>
      <point x="91" y="80" type="line"/>
      <point x="45" y="16" type="line"/>
    </contour>
    <contour>
      <point x="157" y="10" type="line"/>
      <point x="157" y="121"/>
      <point x="210" y="180"/>
      <point x="286" y="272" type="curve" smooth="yes"/>
      <point x="346" y="344"/>
      <point x="398" y="434"/>
      <point x="398" y="620" type="curve"/>
      <point x="286" y="620" type="line"/>
      <point x="286" y="475"/>
      <point x="253" y="410"/>
      <point x="183" y="326" type="curve" smooth="yes"/>
      <point x="127" y="260"/>
      <point x="45" y="159"/>
      <point x="45" y="16" type="curve"/>
    </contour>
  </outline>
</glyph>
<glyph name="bracketleft" format="1">
  <advance width="448"/>
  <unicode hex="005B"/>
  <outline>
    <contour>
      <point x="360" y="704" type="line"/>
      <point x="124" y="704" type="line"/>
      <point x="124" y="-64" type="line"/>
      <point x="360" y="-64" type="line"/>
      <point x="360" y="16" type="line"/>
      <point x="236" y="16" type="line"/>
      <point x="236" y="624" type="line"/>
      <point x="360" y="624" type="line"/>
    </contour>
  </outline>
</glyph>
<glyph name="backslash" format="1">
  <advance width="448"/>
  <unicode hex="005C"/>
  <outline>
    <contour>
      <point x="210" y="710" type="line"/>
      <point x="99" y="698" type="line"/>
      <point x="238" y="-69" type="line"/>
      <point x="349" y="-57" type="line"/>
    </contour>
  </outline>
</glyph>
<glyph name="bracketright" format="1">
  <advance width="448"/>
  <unicode hex="005D"/>
  <outline>
    <contour>
      <point x="324" y="704" type="line"/>
      <point x="88" y="704" type="line"/>
      <point x="88" y="624" type="line"/>
      <point x="212" y="624" type="line"/>
      <point x="212" y="16" type="line"/>
      <point x="88" y="16" type="line"/>
      <point x="88" y="-64" type="line"/>
      <point x="324" y="-64" type="line"/>
    </contour>
  </outline>
</glyph>
<glyph name="asciicircum" format="1">
  <advance width="448"/>
  <unicode hex="005E"/>
  <outline>
    <contour>
      <point x="44" y="208" type="line"/>
      <point x="149" y="175" type="line"/>
      <point x="266" y="566" type="line"/>
      <point x="171" y="566" type="line"/>
    </contour>
    <contour>
      <point x="277" y="566" type="line"/>
      <point x="182" y="566" type="line"/>
      <point x="299" y="175" type="line"/>
      <point x="404" y="208" type="line"/>
    </contour>
  </outline>
</glyph>
<glyph name="grave" format="1">
  <advance width="448"/>
  <unicode hex="0060"/>
  <outline>
    <contour>
      <point x="251" y="647" type="line"/>
      <point x="121" y="626" type="line"/>
      <point x="211" y="374" type="line"/>
      <point x="315" y="399" type="line"/>
    </contour>
  </outline>
</glyph>
<glyph name="a" format="1">
  <advance width="448"/>
  <unicode hex="0061"/>
  <outline>
    <contour>
      <point x="286" y="85" type="line"/>
      <point x="305" y="0" type="line"/>
      <point x="400" y="0" type="line"/>
      <point x="398" y="64" type="line"/>
      <point x="398" y="299" type="line" smooth="yes"/>
      <point x="398" y="407"/>
      <point x="341" y="452"/>
      <point x="234" y="452" type="curve" smooth="yes"/>
      <point x="185" y="452"/>
      <point x="128" y="443"/>
      <point x="78" y="428" type="curve"/>
      <point x="93" y="358" type="line"/>
      <point x="132" y="367"/>
      <point x="166" y="372"/>
      <point x="200" y="372" type="curve" smooth="yes"/>
      <point x="268" y="372"/>
      <point x="286" y="350"/>
      <point x="286" y="285" type="curve" smooth="yes"/>
    </contour>
    <contour>
      <point x="349" y="276" type="line"/>
      <point x="230" y="266" type="line" smooth="yes"/>
      <point x="98" y="255"/>
      <point x="48" y="204"/>
      <point x="48" y="123" type="curve" smooth="yes"/>
      <point x="48" y="39"/>
      <point x="103" y="-4"/>
      <point x="180" y="-4" type="curve" smooth="yes"/>
      <point x="256" y="-4"/>
      <point x="309" y="33"/>
      <point x="363" y="75" type="curve"/>
      <point x="336" y="130" type="line"/>
      <point x="281" y="91"/>
      <point x="249" y="76"/>
      <point x="217" y="76" type="curve" smooth="yes"/>
      <point x="180" y="76"/>
      <point x="164" y="98"/>
      <point x="164" y="128" type="curve" smooth="yes"/>
      <point x="164" y="167"/>
      <point x="192" y="194"/>
      <point x="264" y="200" type="curve" smooth="yes"/>
      <point x="349" y="207" type="line"/>
    </contour>
  </outline>
</glyph>
<glyph name="b" format="1">
  <advance width="448"/>
  <unicode hex="0062"/>
  <outline>
    <contour>
      <point x="289" y="224" type="curve" smooth="yes"/>
      <point x="289" y="107"/>
      <point x="268" y="72"/>
      <point x="227" y="72" type="curve" smooth="yes"/>
      <point x="190" y="72"/>
      <point x="158" y="104"/>
      <point x="137" y="156" type="curve"/>
      <point x="79" y="131" type="line"/>
      <point x="124" y="17"/>
      <point x="184" y="-8"/>
      <point x="244" y="-8" type="curve" smooth="yes"/>
      <point x="336" y="-8"/>
      <point x="407" y="51"/>
      <point x="407" y="224" type="curve" smooth="yes"/>
      <point x="407" y="397"/>
      <point x="334" y="456"/>
      <point x="251" y="456" type="curve" smooth="yes"/>
      <point x="190" y="456"/>
      <point x="135" y="425"/>
      <point x="90" y="311" type="curve"/>
      <point x="137" y="292" type="line"/>
      <point x="158" y="344"/>
      <point x="190" y="374"/>
      <point x="227" y="374" type="curve" smooth="yes"/>
      <point x="268" y="374"/>
      <point x="289" y="340"/>
    </contour>
    <contour>
      <point x="50" y="65" type="line"/>
      <point x="48" y="0" type="line"/>
      <point x="136" y="0" type="line"/>
      <point x="152" y="92" type="line"/>
      <point x="162" y="92" type="line"/>
      <point x="162" y="640" type="line"/>
      <point x="50" y="640" type="line"/>
    </contour>
  </outline>
</glyph>
<glyph name="c" format="1">
  <advance width="448"/>
  <unicode hex="0063"/>
  <outline>
    <contour>
      <point x="378" y="431" type="line"/>
      <point x="334" y="449"/>
      <point x="290" y="455"/>
      <point x="249" y="455" type="curve" smooth="yes"/>
      <point x="93" y="455"/>
      <point x="50" y="352"/>
      <point x="50" y="224" type="curve" smooth="yes"/>
      <point x="50" y="96"/>
      <point x="93" y="-7"/>
      <point x="249" y="-7" type="curve" smooth="yes"/>
      <point x="290" y="-7"/>
      <point x="334" y="-1"/>
      <point x="378" y="17" type="curve"/>
      <point x="361" y="91" type="line"/>
      <point x="332" y="83"/>
      <point x="301" y="77"/>
      <point x="271" y="77" type="curve" smooth="yes"/>
      <point x="192" y="77"/>
      <point x="166" y="114"/>
      <point x="166" y="224" type="curve" smooth="yes"/>
      <point x="166" y="334"/>
      <point x="192" y="371"/>
      <point x="271" y="371" type="curve" smooth="yes"/>
      <point x="304" y="371"/>
      <point x="337" y="365"/>
      <point x="361" y="357" type="curve"/>
    </contour>
  </outline>
</glyph>
<glyph name="d" format="1">
  <advance width="448"/>
  <unicode hex="0064"/>
  <outline>
    <contour>
      <point x="159" y="224" type="curve"/>
      <point x="159" y="340"/>
      <point x="180" y="374"/>
      <point x="221" y="374" type="curve" smooth="yes"/>
      <point x="258" y="374"/>
      <point x="290" y="344"/>
      <point x="311" y="292" type="curve"/>
      <point x="358" y="311" type="line"/>
      <point x="313" y="425"/>
      <point x="258" y="456"/>
      <point x="197" y="456" type="curve" smooth="yes"/>
      <point x="114" y="456"/>
      <point x="41" y="397"/>
      <point x="41" y="224" type="curve" smooth="yes"/>
      <point x="41" y="51"/>
      <point x="112" y="-8"/>
      <point x="204" y="-8" type="curve" smooth="yes"/>
      <point x="264" y="-8"/>
      <point x="324" y="17"/>
      <point x="369" y="131" type="curve"/>
      <point x="311" y="156" type="line"/>
      <point x="290" y="104"/>
      <point x="258" y="72"/>
      <point x="221" y="72" type="curve" smooth="yes"/>
      <point x="180" y="72"/>
      <point x="159" y="107"/>
    </contour>
    <contour>
      <point x="398" y="640" type="line"/>
      <point x="286" y="640" type="line"/>
      <point x="286" y="92" type="line"/>
      <point x="296" y="92" type="line"/>
      <point x="312" y="0" type="line"/>
      <point x="400" y="0" type="line"/>
      <point x="398" y="65" type="line"/>
    </contour>
  </outline>
</glyph>
<glyph name="e" format="1">
  <advance width="448"/>
  <unicode hex="0065"/>
  <outline>
    <contour>
      <point x="232" y="448" type="move" name="top"/>
    </contour>
    <contour>
      <point x="224" y="461" type="curve" smooth="yes"/>
      <point x="87" y="461"/>
      <point x="40" y="355"/>
      <point x="40" y="224" type="curve" smooth="yes"/>
      <point x="40" y="93"/>
      <point x="87" y="-13"/>
      <point x="238" y="-13" type="curve" smooth="yes"/>
      <point x="289" y="-13"/>
      <point x="337" y="-4"/>
      <point x="381" y="13" type="curve"/>
      <point x="366" y="83" type="line"/>
      <point x="330" y="74"/>
      <point x="293" y="67"/>
      <point x="262" y="67" type="curve" smooth="yes"/>
      <point x="183" y="67"/>
      <point x="156" y="107"/>
      <point x="156" y="224" type="curve" smooth="yes"/>
      <point x="156" y="339"/>
      <point x="176" y="381"/>
      <point x="224" y="381" type="curve" smooth="yes"/>
      <point x="272" y="381"/>
      <point x="292" y="339"/>
      <point x="292" y="224" type="curve"/>
      <point x="330" y="262" type="line"/>
      <point x="102" y="262" type="line"/>
      <point x="102" y="184" type="line"/>
      <point x="408" y="184" type="line"/>
      <point x="408" y="215" type="line" smooth="yes"/>
      <point x="408" y="351"/>
      <point x="361" y="461"/>
    </contour>
  </outline>
</glyph>
<glyph name="f" format="1">
  <advance width="448"/>
  <unicode hex="0066"/>
  <outline>
    <contour>
      <point x="124" y="0" type="line"/>
      <point x="236" y="0" type="line"/>
      <point x="236" y="364" type="line"/>
      <point x="360" y="364" type="line"/>
      <point x="360" y="448" type="line"/>
      <point x="236" y="448" type="line"/>
      <point x="236" y="506" type="line" smooth="yes"/>
      <point x="236" y="540"/>
      <point x="251" y="568"/>
      <point x="306" y="568" type="curve" smooth="yes"/>
      <point x="333" y="568"/>
      <point x="361" y="565"/>
      <point x="385" y="561" type="curve"/>
      <point x="397" y="633" type="line"/>
      <point x="365" y="641"/>
      <point x="313" y="648"/>
      <point x="278" y="648" type="curve" smooth="yes"/>
      <point x="187" y="648"/>
      <point x="124" y="605"/>
      <point x="124" y="504" type="curve" smooth="yes"/>
      <point x="124" y="448" type="line"/>
      <point x="49" y="448" type="line"/>
      <point x="49" y="366" type="line"/>
      <point x="124" y="363" type="line"/>
    </contour>
  </outline>
</glyph>
<glyph name="g" format="1">
  <advance width="448"/>
  <unicode hex="0067"/>
  <outline>
    <contour>
      <point x="397" y="384" type="line"/>
      <point x="399" y="448" type="line"/>
      <point x="311" y="448" type="line"/>
      <point x="295" y="356" type="line"/>
      <point x="285" y="356" type="line"/>
      <point x="285" y="-49" type="line" smooth="yes"/>
      <point x="285" y="-94"/>
      <point x="269" y="-116"/>
      <point x="199" y="-116" type="curve" smooth="yes"/>
      <point x="171" y="-116"/>
      <point x="128" y="-111"/>
      <point x="89" y="-105" type="curve"/>
      <point x="78" y="-179" type="line"/>
      <point x="123" y="-189"/>
      <point x="179" y="-196"/>
      <point x="219" y="-196" type="curve" smooth="yes"/>
      <point x="324" y="-196"/>
      <point x="397" y="-154"/>
      <point x="397" y="-36" type="curve" smooth="yes"/>
    </contour>
    <contour>
      <point x="157" y="224" type="curve" smooth="yes"/>
      <point x="157" y="341"/>
      <point x="178" y="376"/>
      <point x="219" y="376" type="curve" smooth="yes"/>
      <point x="256" y="376"/>
      <point x="288" y="344"/>
      <point x="309" y="292" type="curve"/>
      <point x="367" y="317" type="line"/>
      <point x="322" y="431"/>
      <point x="262" y="456"/>
      <point x="202" y="456" type="curve" smooth="yes"/>
      <point x="110" y="456"/>
      <point x="39" y="397"/>
      <point x="39" y="224" type="curve" smooth="yes"/>
      <point x="39" y="51"/>
      <point x="112" y="-8"/>
      <point x="195" y="-8" type="curve" smooth="yes"/>
      <point x="256" y="-8"/>
      <point x="311" y="23"/>
      <point x="356" y="137" type="curve"/>
      <point x="309" y="156" type="line"/>
      <point x="288" y="104"/>
      <point x="256" y="72"/>
      <point x="219" y="72" type="curve" smooth="yes"/>
      <point x="178" y="72"/>
      <point x="157" y="107"/>
    </contour>
  </outline>
</glyph>
<glyph name="h" format="1">
  <advance width="448"/>
  <unicode hex="0068"/>
  <outline>
    <contour>
      <point x="50" y="0" type="line"/>
      <point x="162" y="0" type="line"/>
      <point x="162" y="640" type="line"/>
      <point x="50" y="640" type="line"/>
    </contour>
    <contour>
      <point x="286" y="0" type="line"/>
      <point x="398" y="0" type="line"/>
      <point x="398" y="297" type="line" smooth="yes"/>
      <point x="398" y="419"/>
      <point x="346" y="452"/>
      <point x="270" y="452" type="curve" smooth="yes"/>
      <point x="191" y="452"/>
      <point x="125" y="410"/>
      <point x="81" y="345" type="curve"/>
      <point x="125" y="307" type="line"/>
      <point x="161" y="351"/>
      <point x="202" y="372"/>
      <point x="235" y="372" type="curve" smooth="yes"/>
      <point x="278" y="372"/>
      <point x="286" y="343"/>
      <point x="286" y="289" type="curve" smooth="yes"/>
    </contour>
  </outline>
</glyph>
<glyph name="l" format="1">
  <advance width="448"/>
  <unicode hex="006C"/>
  <outline>
    <contour>
      <point x="67" y="567" type="line"/>
      <point x="142" y="560" type="line"/>
      <point x="142" y="139" type="line" smooth="yes"/>
      <point x="142" y="30"/>
      <point x="213" y="-4"/>
      <point x="304" y="-4" type="curve" smooth="yes"/>
      <point x="327" y="-4"/>
      <point x="348" y="-3"/>
      <point x="376" y="1" type="curve"/>
      <point x="369" y="79" type="line"/>
      <point x="349" y="77"/>
      <point x="331" y="76"/>
      <point x="317" y="76" type="curve" smooth="yes"/>
      <point x="271" y="76"/>
      <point x="254" y="100"/>
      <point x="254" y="137" type="curve" smooth="yes"/>
      <point x="254" y="640" type="line"/>
      <point x="67" y="640" type="line"/>
    </contour>
  </outline>
</glyph>
<glyph name="m" format="1">
  <advance width="448"/>
  <unicode hex="006D"/>
  <outline>
    <contour>
      <point x="40" y="0" type="line"/>
      <point x="134" y="0" type="line"/>
      <point x="134" y="384" type="line"/>
      <point x="113" y="448" type="line"/>
      <point x="38" y="448" type="line"/>
      <point x="40" y="383" type="line"/>
    </contour>
    <contour>
      <point x="182" y="0" type="line"/>
      <point x="266" y="0" type="line"/>
      <point x="266" y="382" type="line"/>
      <point x="256" y="382" type="line"/>
      <point x="250" y="424"/>
      <point x="218" y="451"/>
      <point x="179" y="451" type="curve" smooth="yes"/>
      <point x="138" y="451"/>
      <point x="113" y="428"/>
      <point x="103" y="406" type="curve"/>
      <point x="115" y="352" type="line"/>
      <point x="123" y="364"/>
      <point x="140" y="371"/>
      <point x="151" y="371" type="curve" smooth="yes"/>
      <point x="175" y="371"/>
      <point x="182" y="354"/>
      <point x="182" y="320" type="curve" smooth="yes"/>
    </contour>
    <contour>
      <point x="314" y="0" type="line"/>
      <point x="408" y="0" type="line"/>
      <point x="408" y="335" type="line" smooth="yes"/>
      <point x="408" y="416"/>
      <point x="361" y="450"/>
      <point x="308" y="450" type="curve" smooth="yes"/>
      <point x="269" y="450"/>
      <point x="240" y="437"/>
      <point x="220" y="412" type="curve"/>
      <point x="246" y="352" type="line"/>
      <point x="256" y="364"/>
      <point x="274" y="370"/>
      <point x="284" y="370" type="curve" smooth="yes"/>
      <point x="306" y="370"/>
      <point x="314" y="354"/>
      <point x="314" y="320" type="curve" smooth="yes"/>
    </contour>
  </outline>
</glyph>
<glyph name="n" format="1">
  <advance width="448"/>
  <unicode hex="006E"/>
  <outline>
    <contour>
      <point x="50" y="0" type="line"/>
      <point x="162" y="0" type="line"/>
      <point x="162" y="356" type="line"/>
      <point x="146" y="448" type="line"/>
      <point x="48" y="448" type="line"/>
      <point x="50" y="383" type="line"/>
    </contour>
    <contour>
      <point x="286" y="0" type="line"/>
      <point x="398" y="0" type="line"/>
      <point x="398" y="297" type="line" smooth="yes"/>
      <point x="398" y="419"/>
      <point x="346" y="452"/>
      <point x="270" y="452" type="curve" smooth="yes"/>
      <point x="191" y="452"/>
      <point x="125" y="410"/>
      <point x="81" y="345" type="curve"/>
      <point x="125" y="307" type="line"/>
      <point x="161" y="351"/>
      <point x="202" y="372"/>
      <point x="235" y="372" type="curve" smooth="yes"/>
      <point x="278" y="372"/>
      <point x="286" y="343"/>
      <point x="286" y="289" type="curve" smooth="yes"/>
    </contour>
  </outline>
</glyph>
<glyph name="o" format="1">
  <advance width="448"/>
  <unicode hex="006F"/>
  <outline>
    <contour>
      <point x="40" y="224" type="curve" smooth="yes"/>
      <point x="40" y="93"/>
      <point x="87" y="-13"/>
      <point x="224" y="-13" type="curve" smooth="yes"/>
      <point x="357" y="-13"/>
      <point x="408" y="93"/>
      <point x="408" y="224" type="curve" smooth="yes"/>
      <point x="408" y="355"/>
      <point x="361" y="461"/>
      <point x="224" y="461" type="curve" smooth="yes"/>
      <point x="87" y="461"/>
      <point x="40" y="355"/>
    </contour>
    <contour>
      <point x="156" y="224" type="curve" smooth="yes"/>
      <point x="156" y="339"/>
      <point x="176" y="381"/>
      <point x="224" y="381" type="curve" smooth="yes"/>
      <point x="272" y="381"/>
      <point x="292" y="339"/>
      <point x="292" y="224" type="curve" smooth="yes"/>
      <point x="292" y="107"/>
      <point x="272" y="67"/>
      <point x="224" y="67" type="curve" smooth="yes"/>
      <point x="176" y="67"/>
      <point x="156" y="107"/>
    </contour>
  </outline>
</glyph>
<glyph name="p" format="1">
  <advance width="448"/>
  <unicode hex="0070"/>
  <outline>
    <contour>
      <point x="289" y="224" type="curve"/>
      <point x="289" y="108"/>
      <point x="268" y="74"/>
      <point x="227" y="74" type="curve" smooth="yes"/>
      <point x="190" y="74"/>
      <point x="158" y="104"/>
      <point x="137" y="156" type="curve"/>
      <point x="90" y="137" type="line"/>
      <point x="135" y="23"/>
      <point x="190" y="-8"/>
      <point x="251" y="-8" type="curve" smooth="yes"/>
      <point x="334" y="-8"/>
      <point x="407" y="51"/>
      <point x="407" y="224" type="curve" smooth="yes"/>
      <point x="407" y="397"/>
      <point x="336" y="456"/>
      <point x="244" y="456" type="curve" smooth="yes"/>
      <point x="184" y="456"/>
      <point x="124" y="431"/>
      <point x="79" y="317" type="curve"/>
      <point x="137" y="292" type="line"/>
      <point x="158" y="344"/>
      <point x="190" y="376"/>
      <point x="227" y="376" type="curve" smooth="yes"/>
      <point x="268" y="376"/>
      <point x="289" y="341"/>
    </contour>
    <contour>
      <point x="50" y="-192" type="line"/>
      <point x="162" y="-192" type="line"/>
      <point x="162" y="356" type="line"/>
      <point x="152" y="356" type="line"/>
      <point x="136" y="448" type="line"/>
      <point x="48" y="448" type="line"/>
      <point x="50" y="383" type="line"/>
    </contour>
  </outline>
</glyph>
<glyph name="q" format="1">
  <advance width="448"/>
  <unicode hex="0071"/>
  <outline>
    <contour>
      <point x="159" y="224" type="curve" smooth="yes"/>
      <point x="159" y="341"/>
      <point x="180" y="376"/>
      <point x="221" y="376" type="curve" smooth="yes"/>
      <point x="258" y="376"/>
      <point x="290" y="344"/>
      <point x="311" y="292" type="curve"/>
      <point x="369" y="317" type="line"/>
      <point x="324" y="431"/>
      <point x="264" y="456"/>
      <point x="204" y="456" type="curve" smooth="yes"/>
      <point x="112" y="456"/>
      <point x="41" y="397"/>
      <point x="41" y="224" type="curve" smooth="yes"/>
      <point x="41" y="51"/>
      <point x="114" y="-8"/>
      <point x="197" y="-8" type="curve" smooth="yes"/>
      <point x="258" y="-8"/>
      <point x="313" y="23"/>
      <point x="358" y="137" type="curve"/>
      <point x="311" y="156" type="line"/>
      <point x="290" y="104"/>
      <point x="258" y="74"/>
      <point x="221" y="74" type="curve" smooth="yes"/>
      <point x="180" y="74"/>
      <point x="159" y="108"/>
    </contour>
    <contour>
      <point x="398" y="383" type="line"/>
      <point x="400" y="448" type="line"/>
      <point x="312" y="448" type="line"/>
      <point x="296" y="356" type="line"/>
      <point x="286" y="356" type="line"/>
      <point x="286" y="-192" type="line"/>
      <point x="398" y="-192" type="line"/>
    </contour>
  </outline>
</glyph>
<glyph name="r" format="1">
  <advance width="448"/>
  <unicode hex="0072"/>
  <outline>
    <contour>
      <point x="95" y="0" type="line"/>
      <point x="207" y="0" type="line"/>
      <point x="207" y="349" type="line"/>
      <point x="191" y="448" type="line"/>
      <point x="93" y="448" type="line"/>
      <point x="95" y="383" type="line"/>
    </contour>
    <contour>
      <point x="386" y="444" type="line"/>
      <point x="369" y="448"/>
      <point x="344" y="452"/>
      <point x="323" y="452" type="curve" smooth="yes"/>
      <point x="282" y="452"/>
      <point x="245" y="438"/>
      <point x="214" y="414" type="curve" smooth="yes"/>
      <point x="186" y="392"/>
      <point x="153" y="349"/>
      <point x="137" y="311" type="curve"/>
      <point x="182" y="277" type="line"/>
      <point x="218" y="340"/>
      <point x="258" y="358"/>
      <point x="308" y="358" type="curve" smooth="yes"/>
      <point x="330" y="358"/>
      <point x="350" y="355"/>
      <point x="368" y="352" type="curve"/>
    </contour>
  </outline>
</glyph>
<glyph name="s" format="1">
  <advance width="448"/>
  <unicode hex="0073"/>
  <outline>
    <contour>
      <point x="374" y="434" type="line"/>
      <point x="327" y="449"/>
      <point x="279" y="456"/>
      <point x="237" y="456" type="curve" smooth="yes"/>
      <point x="127" y="456"/>
      <point x="59" y="407"/>
      <point x="59" y="320" type="curve" smooth="yes"/>
      <point x="59" y="156"/>
      <point x="275" y="207"/>
      <point x="275" y="121" type="curve" smooth="yes"/>
      <point x="275" y="98"/>
      <point x="261" y="74"/>
      <point x="197" y="74" type="curve" smooth="yes"/>
      <point x="150" y="74"/>
      <point x="106" y="84"/>
      <point x="73" y="95" type="curve"/>
      <point x="53" y="25" type="line"/>
      <point x="97" y="5"/>
      <point x="155" y="-8"/>
      <point x="211" y="-8" type="curve" smooth="yes"/>
      <point x="311" y="-8"/>
      <point x="391" y="31"/>
      <point x="391" y="129" type="curve" smooth="yes"/>
      <point x="391" y="296"/>
      <point x="175" y="236"/>
      <point x="175" y="324" type="curve" smooth="yes"/>
      <point x="175" y="345"/>
      <point x="189" y="374"/>
      <point x="249" y="374" type="curve" smooth="yes"/>
      <point x="286" y="374"/>
      <point x="325" y="366"/>
      <point x="357" y="357" type="curve"/>
    </contour>
  </outline>
</glyph>
<glyph name="t" format="1">
  <advance width="448"/>
  <unicode hex="0074"/>
  <outline>
    <contour>
      <point x="104" y="449" type="line"/>
      <point x="29" y="449" type="line"/>
      <point x="29" y="371" type="line"/>
      <point x="104" y="368" type="line"/>
      <point x="104" y="142" type="line" smooth="yes"/>
      <point x="104" y="35"/>
      <point x="172" y="-8"/>
      <point x="262" y="-8" type="curve" smooth="yes"/>
      <point x="302" y="-8"/>
      <point x="339" y="-4"/>
      <point x="381" y="4" type="curve"/>
      <point x="370" y="79" type="line"/>
      <point x="338" y="74"/>
      <point x="313" y="72"/>
      <point x="288" y="72" type="curve" smooth="yes"/>
      <point x="231" y="72"/>
      <point x="216" y="103"/>
      <point x="216" y="140" type="curve" smooth="yes"/>
      <point x="216" y="368" type="line"/>
      <point x="360" y="368" type="line"/>
      <point x="360" y="448" type="line"/>
      <point x="216" y="448" type="line"/>
      <point x="216" y="576" type="line"/>
      <point x="104" y="576" type="line"/>
    </contour>
  </outline>
</glyph>
<glyph name="u" format="1">
  <advance width="448"/>
  <unicode hex="0075"/>
  <outline>
    <contour>
      <point x="398" y="448" type="line"/>
      <point x="286" y="448" type="line"/>
      <point x="286" y="92" type="line"/>
      <point x="302" y="0" type="line"/>
      <point x="400" y="0" type="line"/>
      <point x="398" y="65" type="line"/>
    </contour>
    <contour>
      <point x="162" y="448" type="line"/>
      <point x="50" y="448" type="line"/>
      <point x="50" y="151" type="line" smooth="yes"/>
      <point x="50" y="29"/>
      <point x="102" y="-4"/>
      <point x="178" y="-4" type="curve" smooth="yes"/>
      <point x="257" y="-4"/>
      <point x="323" y="38"/>
      <point x="367" y="103" type="curve"/>
      <point x="323" y="141" type="line"/>
      <point x="287" y="97"/>
      <point x="246" y="76"/>
      <point x="213" y="76" type="curve" smooth="yes"/>
      <point x="170" y="76"/>
      <point x="162" y="105"/>
      <point x="162" y="159" type="curve"/>
    </contour>
  </outline>
</glyph>
<glyph name="v" format="1">
  <advance width="448"/>
  <unicode hex="0076"/>
  <outline>
    <contour>
      <point x="236" y="64" type="line"/>
      <point x="182" y="174"/>
      <point x="151" y="262"/>
      <point x="137" y="451" type="curve"/>
      <point x="22" y="447" type="line"/>
      <point x="39" y="249"/>
      <point x="96" y="121"/>
      <point x="179" y="-2" type="curve"/>
      <point x="269" y="-2" type="line"/>
      <point x="352" y="121"/>
      <point x="409" y="249"/>
      <point x="426" y="447" type="curve"/>
      <point x="311" y="451" type="line"/>
      <point x="297" y="262"/>
      <point x="266" y="174"/>
      <point x="212" y="64" type="curve"/>
    </contour>
  </outline>
</glyph>
<glyph name="w" format="1">
  <advance width="448"/>
  <unicode hex="0077"/>
  <outline>
    <contour>
      <point x="163" y="0" type="line"/>
      <point x="173" y="22" type="line"/>
      <point x="137" y="158"/>
      <point x="130" y="285"/>
      <point x="130" y="448" type="curve"/>
      <point x="24" y="448" type="line"/>
      <point x="24" y="302"/>
      <point x="36" y="128"/>
      <point x="109" y="0" type="curve"/>
    </contour>
    <contour>
      <point x="170" y="0" type="line"/>
      <point x="218" y="93"/>
      <point x="248" y="202"/>
      <point x="248" y="330" type="curve"/>
      <point x="183" y="330" type="line"/>
      <point x="183" y="188"/>
      <point x="165" y="106"/>
      <point x="118" y="0" type="curve"/>
    </contour>
    <contour>
      <point x="330" y="0" type="line"/>
      <point x="283" y="106"/>
      <point x="265" y="188"/>
      <point x="265" y="330" type="curve"/>
      <point x="200" y="330" type="line"/>
      <point x="200" y="202"/>
      <point x="230" y="93"/>
      <point x="278" y="0" type="curve"/>
    </contour>
    <contour>
      <point x="339" y="0" type="line"/>
      <point x="412" y="128"/>
      <point x="424" y="302"/>
      <point x="424" y="448" type="curve"/>
      <point x="318" y="448" type="line"/>
      <point x="318" y="285"/>
      <point x="311" y="158"/>
      <point x="275" y="22" type="curve"/>
      <point x="285" y="0" type="line"/>
    </contour>
  </outline>
</glyph>
<glyph name="x" format="1">
  <advance width="448"/>
  <unicode hex="0078"/>
  <outline>
    <contour>
      <point x="274" y="206" type="line"/>
      <point x="351" y="252"/>
      <point x="389" y="327"/>
      <point x="396" y="446" type="curve"/>
      <point x="284" y="449" type="line"/>
      <point x="277" y="342"/>
      <point x="253" y="300"/>
      <point x="195" y="258" type="curve"/>
      <point x="163" y="235" type="line"/>
      <point x="92" y="186"/>
      <point x="53" y="117"/>
      <point x="46" y="3" type="curve"/>
      <point x="158" y="-2" type="line"/>
      <point x="164" y="86"/>
      <point x="192" y="142"/>
      <point x="251" y="189" type="curve"/>
    </contour>
    <contour>
      <point x="197" y="189" type="line"/>
      <point x="256" y="142"/>
      <point x="284" y="86"/>
      <point x="290" y="-2" type="curve"/>
      <point x="402" y="3" type="line"/>
      <point x="395" y="117"/>
      <point x="356" y="186"/>
      <point x="285" y="235" type="curve" smooth="yes"/>
      <point x="253" y="258" type="line" smooth="yes"/>
      <point x="195" y="300"/>
      <point x="171" y="342"/>
      <point x="164" y="449" type="curve"/>
      <point x="52" y="446" type="line"/>
      <point x="59" y="327"/>
      <point x="97" y="252"/>
      <point x="174" y="206" type="curve"/>
    </contour>
  </outline>
</glyph>
<glyph name="y" format="1">
  <advance width="448"/>
  <unicode hex="0079"/>
  <outline>
    <contour>
      <point x="400" y="448" type="curve"/>
      <point x="288" y="449" type="line"/>
      <point x="288" y="256"/>
      <point x="286" y="147"/>
      <point x="270" y="56" type="curve" smooth="yes"/>
      <point x="254" y="-32"/>
      <point x="223" y="-92"/>
      <point x="84" y="-122" type="curve"/>
      <point x="102" y="-199" type="line"/>
      <point x="267" y="-176"/>
      <point x="351" y="-104"/>
      <point x="377" y="34" type="curve" smooth="yes"/>
      <point x="392" y="110"/>
      <point x="400" y="203"/>
    </contour>
    <contour>
      <point x="22" y="445" type="line"/>
      <point x="55" y="145"/>
      <point x="80" y="20"/>
      <point x="309" y="-2" type="curve"/>
      <point x="320" y="76" type="line"/>
      <point x="183" y="99"/>
      <point x="162" y="141"/>
      <point x="133" y="451" type="curve"/>
    </contour>
  </outline>
</glyph>
<glyph name="z" format="1">
  <advance width="448"/>
  <unicode hex="007A"/>
  <outline>
    <contour>
      <point x="60" y="368" type="line"/>
      <point x="348" y="368" type="line"/>
      <point x="394" y="428" type="line"/>
      <point x="394" y="448" type="line"/>
      <point x="60" y="448" type="line"/>
    </contour>
    <contour>
      <point x="45" y="0" type="line"/>
      <point x="398" y="0" type="line"/>
      <point x="398" y="80" type="line"/>
      <point x="91" y="80" type="line"/>
      <point x="45" y="16" type="line"/>
    </contour>
    <contour>
      <point x="157" y="10" type="line"/>
      <point x="157" y="92"/>
      <point x="222" y="143"/>
      <point x="274" y="198" type="curve" smooth="yes"/>
      <point x="336" y="262"/>
      <point x="394" y="324"/>
      <point x="394" y="428" type="curve"/>
      <point x="282" y="428" type="line"/>
      <point x="282" y="345"/>
      <point x="225" y="308"/>
      <point x="173" y="252" type="curve" smooth="yes"/>
      <point x="114" y="189"/>
      <point x="45" y="118"/>
      <point x="45" y="16" type="curve"/>
    </contour>
  </outline>
</glyph>
<glyph name="braceleft" format="1">
  <advance width="448"/>
  <unicode hex="007B"/>
  <outline>
    <contour>
      <point x="371" y="9" type="line"/>
      <point x="283" y="25"/>
      <point x="250" y="39"/>
      <point x="250" y="88" type="curve" smooth="yes"/>
      <point x="250" y="123"/>
      <point x="262" y="156"/>
      <point x="262" y="203" type="curve" smooth="yes"/>
      <point x="262" y="299"/>
      <point x="192" y="321"/>
      <point x="74" y="339" type="curve"/>
      <point x="74" y="267" type="line"/>
      <point x="129" y="258"/>
      <point x="154" y="232"/>
      <point x="154" y="185" type="curve" smooth="yes"/>
      <point x="154" y="140"/>
      <point x="142" y="107"/>
      <point x="142" y="70" type="curve" smooth="yes"/>
      <point x="142" y="-26"/>
      <point x="235" y="-51"/>
      <point x="361" y="-64" type="curve"/>
    </contour>
    <contour>
      <point x="361" y="704" type="line"/>
      <point x="235" y="691"/>
      <point x="142" y="666"/>
      <point x="142" y="570" type="curve" smooth="yes"/>
      <point x="142" y="533"/>
      <point x="154" y="500"/>
      <point x="154" y="455" type="curve" smooth="yes"/>
      <point x="154" y="408"/>
      <point x="129" y="382"/>
      <point x="74" y="373" type="curve"/>
      <point x="74" y="301" type="line"/>
      <point x="192" y="319"/>
      <point x="262" y="341"/>
      <point x="262" y="437" type="curve" smooth="yes"/>
      <point x="262" y="484"/>
      <point x="250" y="517"/>
      <point x="250" y="552" type="curve" smooth="yes"/>
      <point x="250" y="601"/>
      <point x="283" y="615"/>
      <point x="371" y="631" type="curve"/>
    </contour>
  </outline>
</glyph>
<glyph name="bar" format="1">
  <advance width="448"/>
  <unicode hex="007C"/>
  <outline>
    <contour>
      <point x="278" y="704" type="line"/>
      <point x="170" y="704" type="line"/>
      <point x="170" y="-192" type="line"/>
      <point x="278" y="-192" type="line"/>
    </contour>
  </outline>
</glyph>
<glyph name="braceright" format="1">
  <advance width="448"/>
  <unicode hex="007D"/>
  <outline>
    <contour>
      <point x="87" y="-64" type="line"/>
      <point x="213" y="-51"/>
      <point x="306" y="-26"/>
      <point x="306" y="70" type="curve" smooth="yes"/>
      <point x="306" y="107"/>
      <point x="294" y="140"/>
      <point x="294" y="185" type="curve" smooth="yes"/>
      <point x="294" y="232"/>
      <point x="319" y="258"/>
      <point x="374" y="267" type="curve"/>
      <point x="374" y="339" type="line"/>
      <point x="256" y="321"/>
      <point x="186" y="299"/>
      <point x="186" y="203" type="curve" smooth="yes"/>
      <point x="186" y="156"/>
      <point x="198" y="123"/>
      <point x="198" y="88" type="curve" smooth="yes"/>
      <point x="198" y="39"/>
      <point x="165" y="25"/>
      <point x="77" y="9" type="curve"/>
    </contour>
    <contour>
      <point x="77" y="631" type="line"/>
      <point x="165" y="615"/>
      <point x="198" y="601"/>
      <point x="198" y="552" type="curve" smooth="yes"/>
      <point x="198" y="517"/>
      <point x="186" y="484"/>
      <point x="186" y="437" type="curve" smooth="yes"/>
      <point x="186" y="341"/>
      <point x="256" y="319"/>
      <point x="374" y="301" type="curve"/>
      <point x="374" y="373" type="line"/>
      <point x="319" y="382"/>
      <point x="294" y="408"/>
      <point x="294" y="455" type="curve" smooth="yes"/>
      <point x="294" y="500"/>
      <point x="306" y="533"/>
      <point x="306" y="570" type="curve" smooth="yes"/>
      <point x="306" y="666"/>
      <point x="213" y="691"/>
      <point x="87" y="704" type="curve"/>
    </contour>
  </outline>
</glyph>
<glyph name="asciitilde" format="1">
  <advance width="448"/>
  <unicode hex="007E"/>
  <outline>
    <contour>
      <point x="156" y="384" type="curve" smooth="yes"/>
      <point x="52" y="384"/>
      <point x="38" y="320"/>
      <point x="38" y="209" type="curve"/>
      <point x="143" y="207" type="line"/>
      <point x="143" y="287"/>
      <point x="143" y="308"/>
      <point x="160" y="308" type="curve" smooth="yes"/>
      <point x="192" y="308"/>
      <point x="164" y="192"/>
      <point x="292" y="192" type="curve" smooth="yes"/>
      <point x="397" y="192"/>
      <point x="410" y="254"/>
      <point x="410" y="367" type="curve"/>
      <point x="304" y="369" type="line"/>
      <point x="304" y="288"/>
      <point x="304" y="268"/>
      <point x="286" y="268" type="curve" smooth="yes"/>
      <point x="256" y="268"/>
      <point x="284" y="384"/>
    </contour>
  </outline>
</glyph>
<glyph name="sterling" format="1">
  <advance width="448"/>
  <unicode hex="00A3"/>
  <outline>
    <contour>
      <point x="44" y="0" type="line"/>
      <point x="404" y="0" type="line"/>
      <point x="404" y="80" type="line"/>
      <point x="44" y="80" type="line"/>
    </contour>
    <contour>
      <point x="64" y="184" type="line"/>
      <point x="350" y="184" type="line"/>
      <point x="350" y="264" type="line"/>
      <point x="64" y="264" type="line"/>
    </contour>
    <contour>
      <point x="114" y="17" type="line"/>
      <point x="226" y="17" type="line"/>
      <point x="226" y="365" type="line" smooth="yes"/>
      <point x="226" y="455"/>
      <point x="238" y="479"/>
      <point x="376" y="500" type="curve"/>
      <point x="364" y="581" type="line"/>
      <point x="155" y="558"/>
      <point x="114" y="488"/>
      <point x="114" y="369" type="curve" smooth="yes"/>
    </contour>
  </outline>
</glyph>
<glyph name="brokenbar" format="1">
  <advance width="448"/>
  <unicode hex="00A6"/>
  <outline>
    <contour>
      <point x="278" y="704" type="line"/>
      <point x="170" y="704" type="line"/>
      <point x="170" y="320" type="line"/>
      <point x="278" y="320" type="line"/>
    </contour>
    <contour>
      <point x="278" y="192" type="line"/>
      <point x="170" y="192" type="line"/>
      <point x="170" y="-192" type="line"/>
      <point x="278" y="-192" type="line"/>
    </contour>
  </outline>
</glyph>
<glyph name="section" format="1">
  <advance width="448"/>
  <unicode hex="00A7"/>
  <outline>
    <contour>
      <point x="133" y="256" type="curve" smooth="yes"/>
      <point x="133" y="291"/>
      <point x="149" y="320"/>
      <point x="224" y="320" type="curve" smooth="yes"/>
      <point x="299" y="320"/>
      <point x="315" y="291"/>
      <point x="315" y="256" type="curve" smooth="yes"/>
      <point x="315" y="221"/>
      <point x="299" y="192"/>
      <point x="224" y="192" type="curve" smooth="yes"/>
      <point x="149" y="192"/>
      <point x="133" y="221"/>
    </contour>
    <contour>
      <point x="60" y="256" type="curve" smooth="yes"/>
      <point x="60" y="185"/>
      <point x="120" y="128"/>
      <point x="224" y="128" type="curve" smooth="yes"/>
      <point x="328" y="128"/>
      <point x="388" y="185"/>
      <point x="388" y="256" type="curve" smooth="yes"/>
      <point x="388" y="337"/>
      <point x="328" y="384"/>
      <point x="224" y="384" type="curve" smooth="yes"/>
      <point x="120" y="384"/>
      <point x="60" y="327"/>
    </contour>
    <contour>
      <point x="199" y="357" type="line"/>
      <point x="187" y="387"/>
      <point x="182" y="417"/>
      <point x="182" y="441" type="curve" smooth="yes"/>
      <point x="182" y="480"/>
      <point x="196" y="516"/>
      <point x="266" y="516" type="curve" smooth="yes"/>
      <point x="296" y="516"/>
      <point x="326" y="512"/>
      <point x="357" y="506" type="curve"/>
      <point x="368" y="567" type="line"/>
      <point x="332" y="576"/>
      <point x="292" y="580"/>
      <point x="260" y="580" type="curve" smooth="yes"/>
      <point x="165" y="580"/>
      <point x="112" y="530"/>
      <point x="112" y="446" type="curve" smooth="yes"/>
      <point x="112" y="414"/>
      <point x="123" y="371"/>
      <point x="140" y="338" type="curve"/>
    </contour>
    <contour>
      <point x="249" y="155" type="line"/>
      <point x="261" y="125"/>
      <point x="266" y="95"/>
      <point x="266" y="71" type="curve" smooth="yes"/>
      <point x="266" y="32"/>
      <point x="252" y="-4"/>
      <point x="182" y="-4" type="curve" smooth="yes"/>
      <point x="152" y="-4"/>
      <point x="122" y="0"/>
      <point x="91" y="6" type="curve"/>
      <point x="80" y="-55" type="line"/>
      <point x="116" y="-64"/>
      <point x="156" y="-68"/>
      <point x="188" y="-68" type="curve" smooth="yes"/>
      <point x="283" y="-68"/>
      <point x="336" y="-18"/>
      <point x="336" y="66" type="curve" smooth="yes"/>
      <point x="336" y="98"/>
      <point x="325" y="141"/>
      <point x="308" y="174" type="curve"/>
    </contour>
  </outline>
</glyph>
<glyph name="copyright" format="1">
  <advance width="448"/>
  <unicode hex="00A9"/>
  <outline>
    <contour>
      <point x="314" y="381" type="line"/>
      <point x="288" y="392"/>
      <point x="257" y="397"/>
      <point x="234" y="397" type="curve" smooth="yes"/>
      <point x="145" y="397"/>
      <point x="112" y="335"/>
      <point x="112" y="258" type="curve" smooth="yes"/>
      <point x="112" y="181"/>
      <point x="145" y="120"/>
      <point x="234" y="120" type="curve" smooth="yes"/>
      <point x="257" y="120"/>
      <point x="282" y="124"/>
      <point x="314" y="136" type="curve"/>
      <point x="301" y="181" type="line"/>
      <point x="278" y="174"/>
      <point x="258" y="170"/>
      <point x="237" y="170" type="curve" smooth="yes"/>
      <point x="188" y="170"/>
      <point x="168" y="189"/>
      <point x="168" y="259" type="curve" smooth="yes"/>
      <point x="168" y="328"/>
      <point x="188" y="348"/>
      <point x="237" y="348" type="curve" smooth="yes"/>
      <point x="258" y="348"/>
      <point x="279" y="344"/>
      <point x="298" y="336" type="curve"/>
    </contour>
    <contour>
      <point x="8" y="256" type="curve" smooth="yes"/>
      <point x="8" y="93"/>
      <point x="116" y="11"/>
      <point x="224" y="11" type="curve" smooth="yes"/>
      <point x="332" y="11"/>
      <point x="440" y="93"/>
      <point x="440" y="256" type="curve" smooth="yes"/>
      <point x="440" y="421"/>
      <point x="332" y="501"/>
      <point x="224" y="501" type="curve" smooth="yes"/>
      <point x="116" y="501"/>
      <point x="8" y="421"/>
    </contour>
    <contour>
      <point x="60" y="256" type="curve" smooth="yes"/>
      <point x="60" y="354"/>
      <point x="104" y="453"/>
      <point x="224" y="453" type="curve" smooth="yes"/>
      <point x="344" y="453"/>
      <point x="388" y="354"/>
      <point x="388" y="256" type="curve" smooth="yes"/>
      <point x="388" y="156"/>
      <point x="344" y="59"/>
      <point x="224" y="59" type="curve" smooth="yes"/>
      <point x="104" y="59"/>
      <point x="60" y="156"/>
    </contour>
  </outline>
</glyph>
<glyph name="ordfeminine" format="1">
  <advance width="448"/>
  <unicode hex="00AA"/>
  <outline>
    <contour>
      <point x="256" y="366" type="line"/>
      <point x="264" y="320" type="line"/>
      <point x="324" y="320" type="line"/>
      <point x="320" y="366" type="line"/>
      <point x="320" y="531" type="line" smooth="yes"/>
      <point x="320" y="619"/>
      <point x="276" y="646"/>
      <point x="198" y="646" type="curve" smooth="yes"/>
      <point x="163" y="646"/>
      <point x="125" y="640"/>
      <point x="88" y="631" type="curve"/>
      <point x="100" y="579" type="line"/>
      <point x="133" y="587"/>
      <point x="164" y="591"/>
      <point x="192" y="591" type="curve" smooth="yes"/>
      <point x="243" y="591"/>
      <point x="256" y="576"/>
      <point x="256" y="525" type="curve" smooth="yes"/>
    </contour>
    <contour>
      <point x="284" y="520" type="line"/>
      <point x="188" y="509" type="line" smooth="yes"/>
      <point x="114" y="501"/>
      <point x="63" y="471"/>
      <point x="63" y="405" type="curve" smooth="yes"/>
      <point x="63" y="350"/>
      <point x="103" y="317"/>
      <point x="155" y="317" type="curve" smooth="yes"/>
      <point x="202" y="317"/>
      <point x="237" y="334"/>
      <point x="288" y="366" type="curve"/>
      <point x="274" y="410" type="line"/>
      <point x="237" y="388"/>
      <point x="206" y="373"/>
      <point x="168" y="373" type="curve" smooth="yes"/>
      <point x="145" y="373"/>
      <point x="129" y="384"/>
      <point x="129" y="409" type="curve" smooth="yes"/>
      <point x="129" y="438"/>
      <point x="152" y="451"/>
      <point x="204" y="457" type="curve" smooth="yes"/>
      <point x="284" y="466" type="line"/>
    </contour>
  </outline>
</glyph>
<glyph name="guillemotleft" format="1">
  <advance width="448"/>
  <unicode hex="00AB"/>
  <outline>
    <contour>
      <point x="198" y="397" type="line"/>
      <point x="128" y="417" type="line"/>
      <point x="64" y="224" type="line"/>
      <point x="128" y="31" type="line"/>
      <point x="198" y="51" type="line"/>
      <point x="141" y="224" type="line"/>
    </contour>
    <contour>
      <point x="372" y="391" type="line"/>
      <point x="302" y="411" type="line"/>
      <point x="240" y="224" type="line"/>
      <point x="302" y="37" type="line"/>
      <point x="372" y="57" type="line"/>
      <point x="317" y="224" type="line"/>
    </contour>
  </outline>
</glyph>
<glyph name="degree" format="1">
  <advance width="448"/>
  <unicode hex="00B0"/>
  <outline>
    <contour>
      <point x="119" y="512" type="curve" smooth="yes"/>
      <point x="119" y="439"/>
      <point x="175" y="377"/>
      <point x="256" y="377" type="curve" smooth="yes"/>
      <point x="337" y="377"/>
      <point x="393" y="439"/>
      <point x="393" y="512" type="curve" smooth="yes"/>
      <point x="393" y="585"/>
      <point x="337" y="647"/>
      <point x="256" y="647" type="curve" smooth="yes"/>
      <point x="175" y="647"/>
      <point x="119" y="585"/>
    </contour>
    <contour>
      <point x="182" y="512" type="curve" smooth="yes"/>
      <point x="182" y="544"/>
      <point x="199" y="591"/>
      <point x="256" y="591" type="curve" smooth="yes"/>
      <point x="313" y="591"/>
      <point x="330" y="544"/>
      <point x="330" y="512" type="curve" smooth="yes"/>
      <point x="330" y="478"/>
      <point x="313" y="433"/>
      <point x="256" y="433" type="curve" smooth="yes"/>
      <point x="199" y="433"/>
      <point x="182" y="478"/>
    </contour>
  </outline>
</glyph>
<glyph name="twosuperior" format="1">
  <advance width="448"/>
  <unicode hex="00B2"/>
  <outline>
    <contour>
      <point x="259" y="374" type="line"/>
      <point x="84" y="374" type="line"/>
      <point x="59" y="320" type="line"/>
      <point x="259" y="320" type="line"/>
    </contour>
    <contour>
      <point x="73" y="579" type="line"/>
      <point x="96" y="583"/>
      <point x="115" y="586"/>
      <point x="139" y="586" type="curve" smooth="yes"/>
      <point x="181" y="586"/>
      <point x="191" y="570"/>
      <point x="191" y="544" type="curve" smooth="yes"/>
      <point x="191" y="517"/>
      <point x="178" y="502"/>
      <point x="149" y="486" type="curve" smooth="yes"/>
      <point x="104" y="461"/>
      <point x="68" y="434"/>
      <point x="60" y="375" type="curve" smooth="yes"/>
      <point x="58" y="361"/>
      <point x="58" y="338"/>
      <point x="59" y="320" type="curve"/>
      <point x="125" y="374" type="line"/>
      <point x="125" y="408"/>
      <point x="156" y="424"/>
      <point x="192" y="446" type="curve" smooth="yes"/>
      <point x="232" y="470"/>
      <point x="257" y="501"/>
      <point x="257" y="547" type="curve" smooth="yes"/>
      <point x="257" y="603"/>
      <point x="225" y="640"/>
      <point x="145" y="640" type="curve" smooth="yes"/>
      <point x="115" y="640"/>
      <point x="88" y="636"/>
      <point x="65" y="631" type="curve"/>
    </contour>
  </outline>
</glyph>
<glyph name="acute" format="1">
  <advance width="448"/>
  <unicode hex="00B4"/>
  <outline>
    <contour>
      <point x="327" y="626" type="line"/>
      <point x="197" y="647" type="line"/>
      <point x="133" y="399" type="line"/>
      <point x="237" y="374" type="line"/>
    </contour>
  </outline>
</glyph>
<glyph name="mu" format="1">
  <advance width="448"/>
  <unicode hex="00B5"/>
  <outline>
    <contour>
      <point x="388" y="448" type="line"/>
      <point x="316" y="448" type="line"/>
      <point x="316" y="64" type="line"/>
      <point x="324" y="0" type="line"/>
      <point x="390" y="0" type="line"/>
      <point x="388" y="65" type="line"/>
    </contour>
    <contour>
      <point x="60" y="-192" type="line"/>
      <point x="132" y="-192" type="line"/>
      <point x="132" y="448" type="line"/>
      <point x="60" y="448" type="line"/>
    </contour>
    <contour>
      <point x="99" y="159" type="line"/>
      <point x="99" y="49"/>
      <point x="121" y="-4"/>
      <point x="197" y="-4" type="curve" smooth="yes"/>
      <point x="257" y="-4"/>
      <point x="333" y="49"/>
      <point x="367" y="103" type="curve"/>
      <point x="331" y="134" type="line"/>
      <point x="296" y="94"/>
      <point x="249" y="60"/>
      <point x="201" y="60" type="curve" smooth="yes"/>
      <point x="148" y="60"/>
      <point x="132" y="90"/>
      <point x="132" y="159" type="curve"/>
    </contour>
  </outline>
</glyph>
<glyph name="paragraph" format="1">
  <advance width="448"/>
  <unicode hex="00B6"/>
  <outline>
    <contour>
      <point x="252" y="64" type="line" smooth="yes"/>
      <point x="252" y="-16"/>
      <point x="236" y="-48"/>
      <point x="148" y="-74" type="curve"/>
      <point x="165" y="-136" type="line"/>
      <point x="291" y="-107"/>
      <point x="324" y="-41"/>
      <point x="324" y="69" type="curve" smooth="yes"/>
      <point x="324" y="448" type="line"/>
      <point x="394" y="448" type="line"/>
      <point x="394" y="512" type="line"/>
      <point x="263" y="512" type="line" smooth="yes"/>
      <point x="111" y="512"/>
      <point x="55" y="448"/>
      <point x="55" y="347" type="curve" smooth="yes"/>
      <point x="55" y="263"/>
      <point x="108" y="198"/>
      <point x="252" y="192" type="curve"/>
    </contour>
  </outline>
</glyph>
<glyph name="onesuperior" format="1">
  <advance width="448"/>
  <unicode hex="00B9"/>
  <outline>
    <contour>
      <point x="49" y="320" type="line"/>
      <point x="266" y="320" type="line"/>
      <point x="266" y="374" type="line"/>
      <point x="49" y="374" type="line"/>
    </contour>
    <contour>
      <point x="127" y="350" type="line"/>
      <point x="192" y="350" type="line"/>
      <point x="193" y="640" type="line"/>
      <point x="146" y="640" type="line"/>
      <point x="128" y="608" type="line"/>
    </contour>
    <contour>
      <point x="41" y="551" type="line"/>
      <point x="75" y="509" type="line"/>
      <point x="184" y="601" type="line"/>
      <point x="146" y="640" type="line"/>
    </contour>
  </outline>
</glyph>
<glyph name="ordmasculine" format="1">
  <advance width="448"/>
  <unicode hex="00BA"/>
  <outline>
    <contour>
      <point x="334" y="480" type="curve" smooth="yes"/>
      <point x="334" y="576"/>
      <point x="289" y="648"/>
      <point x="192" y="648" type="curve" smooth="yes"/>
      <point x="95" y="648"/>
      <point x="51" y="576"/>
      <point x="51" y="480" type="curve" smooth="yes"/>
      <point x="51" y="384"/>
      <point x="95" y="312"/>
      <point x="192" y="312" type="curve" smooth="yes"/>
      <point x="289" y="312"/>
      <point x="334" y="384"/>
    </contour>
    <contour>
      <point x="268" y="480" type="curve" smooth="yes"/>
      <point x="268" y="404"/>
      <point x="247" y="367"/>
      <point x="192" y="367" type="curve" smooth="yes"/>
      <point x="137" y="367"/>
      <point x="117" y="404"/>
      <point x="117" y="480" type="curve" smooth="yes"/>
      <point x="117" y="554"/>
      <point x="137" y="593"/>
      <point x="192" y="593" type="curve" smooth="yes"/>
      <point x="247" y="593"/>
      <point x="268" y="554"/>
    </contour>
  </outline>
</glyph>
<glyph name="guillemotright" format="1">
  <advance width="448"/>
  <unicode hex="00BB"/>
  <outline>
    <contour>
      <point x="146" y="411" type="line"/>
      <point x="76" y="391" type="line"/>
      <point x="131" y="224" type="line"/>
      <point x="76" y="57" type="line"/>
      <point x="146" y="37" type="line"/>
      <point x="208" y="224" type="line"/>
    </contour>
    <contour>
      <point x="320" y="417" type="line"/>
      <point x="250" y="397" type="line"/>
      <point x="307" y="224" type="line"/>
      <point x="250" y="51" type="line"/>
      <point x="320" y="31" type="line"/>
      <point x="384" y="224" type="line"/>
    </contour>
  </outline>
</glyph>
<glyph name="multiply" format="1">
  <advance width="448"/>
  <unicode hex="00D7"/>
  <outline>
    <contour>
      <point x="338" y="125" type="line"/>
      <point x="387" y="174" type="line"/>
      <point x="113" y="448" type="line"/>
      <point x="64" y="399" type="line"/>
    </contour>
    <contour>
      <point x="384" y="399" type="line"/>
      <point x="335" y="448" type="line"/>
      <point x="61" y="174" type="line"/>
      <point x="110" y="125" type="line"/>
    </contour>
  </outline>
</glyph>
<glyph name="Oslash" format="1">
  <advance width="448"/>
  <unicode hex="00D8"/>
  <outline>
    <contour>
      <point x="22" y="15" type="line"/>
      <point x="101" y="-26" type="line"/>
      <point x="426" y="626" type="line"/>
      <point x="348" y="666" type="line"/>
    </contour>
    <component base="O"/>
  </outline>
</glyph>
<glyph name="Thorn" format="1">
  <advance width="448"/>
  <unicode hex="00DE"/>
  <outline>
    <contour>
      <point x="50" y="0" type="line"/>
      <point x="162" y="0" type="line"/>
      <point x="162" y="640" type="line"/>
      <point x="50" y="640" type="line"/>
    </contour>
    <contour>
      <point x="107" y="520" type="line"/>
      <point x="107" y="440" type="line"/>
      <point x="194" y="440" type="line" smooth="yes"/>
      <point x="275" y="440"/>
      <point x="297" y="394"/>
      <point x="297" y="318" type="curve" smooth="yes"/>
      <point x="297" y="246"/>
      <point x="276" y="200"/>
      <point x="194" y="200" type="curve" smooth="yes"/>
      <point x="105" y="200" type="line"/>
      <point x="105" y="120" type="line"/>
      <point x="219" y="120" type="line" smooth="yes"/>
      <point x="334" y="120"/>
      <point x="411" y="187"/>
      <point x="411" y="318" type="curve" smooth="yes"/>
      <point x="411" y="448"/>
      <point x="334" y="520"/>
      <point x="219" y="520" type="curve" smooth="yes"/>
    </contour>
  </outline>
</glyph>
<glyph name="germandbls" format="1">
  <advance width="448"/>
  <unicode hex="00DF"/>
  <outline>
    <contour>
      <point x="214" y="568" type="curve" smooth="yes"/>
      <point x="177" y="568"/>
      <point x="162" y="543"/>
      <point x="162" y="500" type="curve" smooth="yes"/>
      <point x="162" y="0" type="line"/>
      <point x="50" y="0" type="line"/>
      <point x="50" y="496" type="line" smooth="yes"/>
      <point x="50" y="605"/>
      <point x="117" y="648"/>
      <point x="217" y="648" type="curve" smooth="yes"/>
      <point x="313" y="648"/>
      <point x="380" y="601"/>
      <point x="380" y="518" type="curve" smooth="yes"/>
      <point x="380" y="469"/>
      <point x="360" y="442"/>
      <point x="340" y="416" type="curve" smooth="yes"/>
      <point x="321" y="393"/>
      <point x="302" y="371"/>
      <point x="302" y="332" type="curve" smooth="yes"/>
      <point x="302" y="254"/>
      <point x="418" y="241"/>
      <point x="418" y="120" type="curve" smooth="yes"/>
      <point x="418" y="30"/>
      <point x="352" y="-8"/>
      <point x="272" y="-8" type="curve" smooth="yes"/>
      <point x="238" y="-8"/>
      <point x="205" y="-2"/>
      <point x="180" y="7" type="curve"/>
      <point x="192" y="83" type="line"/>
      <point x="209" y="78"/>
      <point x="227" y="74"/>
      <point x="248" y="74" type="curve" smooth="yes"/>
      <point x="285" y="74"/>
      <point x="302" y="92"/>
      <point x="302" y="120" type="curve" smooth="yes"/>
      <point x="302" y="202"/>
      <point x="186" y="190"/>
      <point x="186" y="316" type="curve" smooth="yes"/>
      <point x="186" y="381"/>
      <point x="223" y="406"/>
      <point x="246" y="445" type="curve" smooth="yes"/>
      <point x="257" y="463"/>
      <point x="264" y="484"/>
      <point x="264" y="513" type="curve" smooth="yes"/>
      <point x="264" y="550"/>
      <point x="246" y="568"/>
    </contour>
  </outline>
</glyph>
<glyph name="divide" format="1">
  <advance width="448"/>
  <unicode hex="00F7"/>
  <outline>
    <contour>
      <point x="64" y="256" type="line"/>
      <point x="384" y="256" type="line"/>
      <point x="384" y="320" type="line"/>
      <point x="64" y="320" type="line"/>
    </contour>
    <contour>
      <point x="182" y="448" type="curve" smooth="yes"/>
      <point x="182" y="403"/>
      <point x="200" y="384"/>
      <point x="224" y="384" type="curve" smooth="yes"/>
      <point x="248" y="384"/>
      <point x="266" y="403"/>
      <point x="266" y="448" type="curve" smooth="yes"/>
      <point x="266" y="493"/>
      <point x="248" y="512"/>
      <point x="224" y="512" type="curve" smooth="yes"/>
      <point x="200" y="512"/>
      <point x="182" y="493"/>
    </contour>
    <contour>
      <point x="182" y="128" type="curve" smooth="yes"/>
      <point x="182" y="83"/>
      <point x="200" y="64"/>
      <point x="224" y="64" type="curve" smooth="yes"/>
      <point x="248" y="64"/>
      <point x="266" y="83"/>
      <point x="266" y="128" type="curve" smooth="yes"/>
      <point x="266" y="173"/>
      <point x="248" y="192"/>
      <point x="224" y="192" type="curve" smooth="yes"/>
      <point x="200" y="192"/>
      <point x="182" y="173"/>
    </contour>
  </outline>
</glyph>
<glyph name="oslash" format="1">
  <advance width="448"/>
  <unicode hex="00F8"/>
  <outline>
    <contour>
      <point x="28" y="32" type="line"/>
      <point x="79" y="-10" type="line"/>
      <point x="421" y="418" type="line"/>
      <point x="369" y="458" type="line"/>
    </contour>
    <component base="o"/>
  </outline>
</glyph>
<glyph name="thorn" format="1">
  <advance width="448"/>
  <unicode hex="00FE"/>
  <outline>
    <contour>
      <point x="289" y="224" type="curve" smooth="yes"/>
      <point x="289" y="108"/>
      <point x="268" y="74"/>
      <point x="227" y="74" type="curve" smooth="yes"/>
      <point x="190" y="74"/>
      <point x="158" y="104"/>
      <point x="137" y="156" type="curve"/>
      <point x="90" y="137" type="line"/>
      <point x="135" y="23"/>
      <point x="190" y="-8"/>
      <point x="251" y="-8" type="curve" smooth="yes"/>
      <point x="334" y="-8"/>
      <point x="407" y="51"/>
      <point x="407" y="224" type="curve" smooth="yes"/>
      <point x="407" y="397"/>
      <point x="334" y="456"/>
      <point x="251" y="456" type="curve" smooth="yes"/>
      <point x="190" y="456"/>
      <point x="135" y="425"/>
      <point x="90" y="311" type="curve"/>
      <point x="137" y="292" type="line"/>
      <point x="158" y="344"/>
      <point x="190" y="374"/>
      <point x="227" y="374" type="curve" smooth="yes"/>
      <point x="268" y="374"/>
      <point x="289" y="340"/>
    </contour>
    <contour>
      <point x="50" y="-192" type="line"/>
      <point x="162" y="-192" type="line"/>
      <point x="162" y="640" type="line"/>
      <point x="50" y="640" type="line"/>
    </contour>
  </outline>
</glyph>
<glyph name="dotlessi" format="1">
  <advance width="448"/>
  <unicode hex="0131"/>
  <outline>
    <contour>
      <point x="228" y="448" type="move" name="top"/>
    </contour>
    <contour>
      <point x="52" y="374" type="line"/>
      <point x="176" y="366" type="line"/>
      <point x="176" y="0" type="line"/>
      <point x="288" y="0" type="line"/>
      <point x="288" y="448" type="line"/>
      <point x="52" y="448" type="line"/>
    </contour>
  </outline>
</glyph>
<glyph name="ij" format="1">
  <advance width="448"/>
  <unicode hex="0133"/>
  <outline>
    <contour>
      <point x="77" y="591" type="curve" smooth="yes"/>
      <point x="77" y="552"/>
      <point x="104" y="532"/>
      <point x="136" y="532" type="curve" smooth="yes"/>
      <point x="168" y="532"/>
      <point x="195" y="552"/>
      <point x="195" y="591" type="curve" smooth="yes"/>
      <point x="195" y="629"/>
      <point x="168" y="650"/>
      <point x="136" y="650" type="curve" smooth="yes"/>
      <point x="104" y="650"/>
      <point x="77" y="629"/>
    </contour>
    <contour>
      <point x="44" y="386" type="line"/>
      <point x="104" y="382" type="line"/>
      <point x="104" y="0" type="line"/>
      <point x="176" y="0" type="line"/>
      <point x="176" y="448" type="line"/>
      <point x="44" y="448" type="line"/>
    </contour>
    <contour>
      <point x="368" y="448" type="line"/>
      <point x="236" y="448" type="line"/>
      <point x="236" y="386" type="line"/>
      <point x="296" y="382" type="line"/>
      <point x="296" y="-49" type="line" smooth="yes"/>
      <point x="296" y="-109"/>
      <point x="277" y="-140"/>
      <point x="213" y="-140" type="curve" smooth="yes"/>
      <point x="185" y="-140"/>
      <point x="165" y="-138"/>
      <point x="144" y="-136" type="curve"/>
      <point x="138" y="-194" type="line"/>
      <point x="167" y="-198"/>
      <point x="189" y="-200"/>
      <point x="219" y="-200" type="curve" smooth="yes"/>
      <point x="308" y="-200"/>
      <point x="368" y="-162"/>
      <point x="368" y="-45" type="curve" smooth="yes"/>
    </contour>
    <contour>
      <point x="269" y="591" type="curve" smooth="yes"/>
      <point x="269" y="552"/>
      <point x="296" y="532"/>
      <point x="328" y="532" type="curve" smooth="yes"/>
      <point x="360" y="532"/>
      <point x="387" y="552"/>
      <point x="387" y="591" type="curve" smooth="yes"/>
      <point x="387" y="629"/>
      <point x="360" y="650"/>
      <point x="328" y="650" type="curve" smooth="yes"/>
      <point x="296" y="650"/>
      <point x="269" y="629"/>
    </contour>
  </outline>
</glyph>
<glyph name="kgreenlandic" format="1">
  <advance width="448"/>
  <unicode hex="0138"/>
  <outline>
    <contour>
      <point x="50" y="0" type="line"/>
      <point x="162" y="0" type="line"/>
      <point x="162" y="448" type="line"/>
      <point x="50" y="448" type="line"/>
    </contour>
    <contour>
      <point x="130" y="231" type="line"/>
      <point x="317" y="-9" type="line"/>
      <point x="419" y="33" type="line"/>
      <point x="236" y="253" type="line"/>
      <point x="236" y="207" type="line"/>
      <point x="414" y="417" type="line"/>
      <point x="308" y="459" type="line"/>
    </contour>
    <contour>
      <point x="108" y="192" type="line"/>
      <point x="218" y="192" type="line"/>
      <point x="218" y="272" type="line"/>
      <point x="108" y="272" type="line"/>
    </contour>
  </outline>
</glyph>
<glyph name="Eng" format="1">
  <advance width="448"/>
  <unicode hex="014A"/>
  <outline>
    <contour>
      <point x="60" y="0" type="line"/>
      <point x="132" y="0" type="line"/>
      <point x="132" y="608" type="line"/>
      <point x="121" y="640" type="line"/>
      <point x="60" y="640" type="line"/>
    </contour>
    <contour>
      <point x="388" y="640" type="line"/>
      <point x="316" y="640" type="line"/>
      <point x="316" y="-13" type="line" smooth="yes"/>
      <point x="316" y="-83"/>
      <point x="299" y="-111"/>
      <point x="239" y="-136" type="curve"/>
      <point x="268" y="-196" type="line"/>
      <point x="358" y="-158"/>
      <point x="388" y="-98"/>
      <point x="388" y="-5" type="curve" smooth="yes"/>
    </contour>
    <contour>
      <point x="327" y="0" type="line"/>
      <point x="386" y="43" type="line"/>
      <point x="121" y="640" type="line"/>
      <point x="61" y="599" type="line"/>
    </contour>
  </outline>
</glyph>
<glyph name="Tbar" format="1">
  <advance width="448"/>
  <unicode hex="0166"/>
  <outline>
    <contour>
      <point x="374" y="326" type="line"/>
      <point x="74" y="326" type="line"/>
      <point x="74" y="250" type="line"/>
      <point x="374" y="250" type="line"/>
    </contour>
    <component base="T"/>
  </outline>
</glyph>
<glyph name="longs" format="1">
  <advance width="448"/>
  <unicode hex="017F"/>
  <outline>
    <contour>
      <point x="124" y="0" type="line"/>
      <point x="196" y="0" type="line"/>
      <point x="196" y="509" type="line" smooth="yes"/>
      <point x="196" y="549"/>
      <point x="211" y="584"/>
      <point x="264" y="584" type="curve" smooth="yes"/>
      <point x="294" y="584"/>
      <point x="324" y="580"/>
      <point x="357" y="575" type="curve"/>
      <point x="368" y="638" type="line"/>
      <point x="330" y="645"/>
      <point x="294" y="648"/>
      <point x="260" y="648" type="curve" smooth="yes"/>
      <point x="182" y="648"/>
      <point x="124" y="605"/>
      <point x="124" y="504" type="curve" smooth="yes"/>
      <point x="124" y="448" type="line"/>
      <point x="49" y="448" type="line"/>
      <point x="49" y="386" type="line"/>
      <point x="124" y="383" type="line"/>
    </contour>
  </outline>
</glyph>
<glyph name="Oslashacute" format="1">
  <advance width="448"/>
  <unicode hex="01FE"/>
  <outline>
    <contour>
      <point x="22.0" y="15.0" type="line"/>
      <point x="101.0" y="-26.0" type="line"/>
      <point x="426.0" y="626.0" type="line"/>
      <point x="348.0" y="666.0" type="line"/>
    </contour>
    <component base="O"/>
    <component base="acutecomb.case"/>
  </outline>
</glyph>
<glyph name="uni0237" format="1">
  <advance width="448"/>
  <unicode hex="0237"/>
  <outline>
    <contour>
      <point x="236" y="448" type="move" name="top"/>
    </contour>
    <contour>
      <point x="290" y="448" type="line"/>
      <point x="74" y="448" type="line"/>
      <point x="74" y="374" type="line"/>
      <point x="178" y="365" type="line"/>
      <point x="178" y="-49" type="line" smooth="yes"/>
      <point x="178" y="-98"/>
      <point x="161" y="-124"/>
      <point x="106" y="-124" type="curve" smooth="yes"/>
      <point x="82" y="-124"/>
      <point x="64" y="-122"/>
      <point x="46" y="-120" type="curve"/>
      <point x="40" y="-193" type="line"/>
      <point x="71" y="-198"/>
      <point x="95" y="-200"/>
      <point x="128" y="-200" type="curve" smooth="yes"/>
      <point x="225" y="-200"/>
      <point x="290" y="-162"/>
      <point x="290" y="-45" type="curve" smooth="yes"/>
    </contour>
  </outline>
</glyph>
<glyph name="gravecomb" format="1">
  <advance width="448"/>
  <unicode hex="0300"/>
  <outline>
    <contour>
      <point x="195" y="677" type="line"/>
      <point x="89" y="616" type="line"/>
      <point x="217" y="496" type="line"/>
      <point x="297" y="546" type="line"/>
    </contour>
  </outline>
</glyph>
<glyph name="acutecomb" format="1">
  <advance width="448"/>
  <unicode hex="0301"/>
  <outline>
    <contour>
      <point x="151" y="546" type="line"/>
      <point x="231" y="496" type="line"/>
      <point x="359" y="616" type="line"/>
      <point x="253" y="677" type="line"/>
    </contour>
  </outline>
</glyph>
<glyph name="uni0302" format="1">
  <advance width="448"/>
  <unicode hex="0302"/>
  <outline>
    <contour>
      <point x="224" y="448" type="move" name="_top"/>
    </contour>
    <contour>
      <point x="161" y="654" type="line"/>
      <point x="75" y="507" type="line"/>
      <point x="189" y="507" type="line"/>
      <point x="245" y="624" type="line"/>
      <point x="203" y="624" type="line"/>
      <point x="259" y="507" type="line"/>
      <point x="373" y="507" type="line"/>
      <point x="287" y="654" type="line"/>
    </contour>
  </outline>
</glyph>
<glyph name="uni0304" format="1">
  <advance width="448"/>
  <unicode hex="0304"/>
  <outline>
    <contour>
      <point x="364" y="640" type="line"/>
      <point x="84" y="640" type="line"/>
      <point x="84" y="544" type="line"/>
      <point x="364" y="544" type="line"/>
    </contour>
  </outline>
</glyph>
<glyph name="uni0307" format="1">
  <advance width="448"/>
  <unicode hex="0307"/>
  <outline>
    <contour>
      <point x="224" y="448" type="move" name="_top"/>
    </contour>
    <contour>
      <point x="155" y="589" type="curve" smooth="yes"/>
      <point x="155" y="543"/>
      <point x="187" y="520"/>
      <point x="224" y="520" type="curve" smooth="yes"/>
      <point x="261" y="520"/>
      <point x="293" y="543"/>
      <point x="293" y="589" type="curve" smooth="yes"/>
      <point x="293" y="633"/>
      <point x="261" y="658"/>
      <point x="224" y="658" type="curve" smooth="yes"/>
      <point x="187" y="658"/>
      <point x="155" y="633"/>
    </contour>
  </outline>
</glyph>
<glyph name="uni0308" format="1">
  <advance width="448"/>
  <unicode hex="0308"/>
  <outline>
    <contour>
      <point x="74" y="585" type="curve" smooth="yes"/>
      <point x="74" y="534"/>
      <point x="98" y="512"/>
      <point x="132" y="512" type="curve" smooth="yes"/>
      <point x="166" y="512"/>
      <point x="190" y="534"/>
      <point x="190" y="585" type="curve" smooth="yes"/>
      <point x="190" y="636"/>
      <point x="166" y="658"/>
      <point x="132" y="658" type="curve" smooth="yes"/>
      <point x="98" y="658"/>
      <point x="74" y="636"/>
    </contour>
    <contour>
      <point x="258" y="585" type="curve" smooth="yes"/>
      <point x="258" y="534"/>
      <point x="282" y="512"/>
      <point x="316" y="512" type="curve" smooth="yes"/>
      <point x="350" y="512"/>
      <point x="374" y="534"/>
      <point x="374" y="585" type="curve" smooth="yes"/>
      <point x="374" y="636"/>
      <point x="350" y="658"/>
      <point x="316" y="658" type="curve" smooth="yes"/>
      <point x="282" y="658"/>
      <point x="258" y="636"/>
    </contour>
  </outline>
</glyph>
<glyph name="uni030A" format="1">
  <advance width="448"/>
  <unicode hex="030A"/>
  <outline>
    <contour>
      <point x="121" y="595" type="curve" smooth="yes"/>
      <point x="121" y="539"/>
      <point x="165" y="493"/>
      <point x="224" y="493" type="curve" smooth="yes"/>
      <point x="283" y="493"/>
      <point x="327" y="539"/>
      <point x="327" y="595" type="curve" smooth="yes"/>
      <point x="327" y="651"/>
      <point x="283" y="697"/>
      <point x="224" y="697" type="curve" smooth="yes"/>
      <point x="165" y="697"/>
      <point x="121" y="651"/>
    </contour>
    <contour>
      <point x="180" y="595" type="curve" smooth="yes"/>
      <point x="180" y="620"/>
      <point x="198" y="641"/>
      <point x="224" y="641" type="curve" smooth="yes"/>
      <point x="250" y="641"/>
      <point x="268" y="620"/>
      <point x="268" y="595" type="curve" smooth="yes"/>
      <point x="268" y="570"/>
      <point x="250" y="549"/>
      <point x="224" y="549" type="curve" smooth="yes"/>
      <point x="198" y="549"/>
      <point x="180" y="570"/>
    </contour>
    <contour>
      <point x="224" y="448" type="move" name="_top"/>
    </contour>
  </outline>
</glyph>
<glyph name="uni030C" format="1">
  <advance width="448"/>
  <unicode hex="030C"/>
  <outline>
    <contour>
      <point x="252" y="504" type="line"/>
      <point x="334" y="643" type="line"/>
      <point x="264" y="643" type="line"/>
      <point x="206" y="534" type="line"/>
      <point x="242" y="534" type="line"/>
      <point x="184" y="643" type="line"/>
      <point x="114" y="643" type="line"/>
      <point x="196" y="504" type="line"/>
    </contour>
    <contour>
      <point x="224" y="448" type="move" name="_top"/>
    </contour>
  </outline>
</glyph>
<glyph name="uni0315" format="1">
  <advance width="448"/>
  <unicode hex="0315"/>
  <outline>
    <contour>
      <point x="382" y="436" type="line"/>
      <point x="416" y="494"/>
      <point x="436" y="557"/>
      <point x="436" y="640" type="curve"/>
      <point x="364" y="640" type="line"/>
      <point x="364" y="568"/>
      <point x="354" y="517"/>
      <point x="330" y="457" type="curve"/>
    </contour>
  </outline>
</glyph>
<glyph name="uni0327" format="1">
  <advance width="448"/>
  <unicode hex="0327"/>
  <outline>
    <contour>
      <point x="128" y="-192" type="line"/>
      <point x="294" y="-192"/>
      <point x="322" y="-97"/>
      <point x="322" y="10" type="curve"/>
      <point x="254" y="10" type="line"/>
      <point x="254" y="-96"/>
      <point x="226" y="-125"/>
      <point x="126" y="-128" type="curve"/>
    </contour>
  </outline>
</glyph>
<glyph name="uni0335" format="1">
  <advance width="448"/>
  <unicode hex="0335"/>
  <outline>
    <contour>
      <point x="352" y="254" type="line"/>
      <point x="96" y="254" type="line"/>
      <point x="96" y="194" type="line"/>
      <point x="352" y="194" type="line"/>
    </contour>
  </outline>
</glyph>
<glyph name="tonos" format="1">
  <advance width="448"/>
  <unicode hex="0384"/>
  <outline>
    <contour>
      <point x="182" y="512" type="line"/>
      <point x="246" y="512" type="line"/>
      <point x="276" y="704" type="line"/>
      <point x="192" y="704" type="line"/>
    </contour>
  </outline>
</glyph>
<glyph name="Theta" format="1">
  <advance width="448"/>
  <unicode hex="0398"/>
  <outline>
    <contour>
      <point x="384" y="328" type="line"/>
      <point x="64" y="328" type="line"/>
      <point x="64" y="248" type="line"/>
      <point x="384" y="248" type="line"/>
    </contour>
    <component base="O"/>
  </outline>
</glyph>
<glyph name="Lambda" format="1">
  <advance width="448"/>
  <unicode hex="039B"/>
  <outline>
    <contour>
      <point x="140" y="-2" type="line"/>
      <point x="158" y="237"/>
      <point x="194" y="439"/>
      <point x="243" y="577" type="curve"/>
      <point x="205" y="577" type="line"/>
      <point x="254" y="439"/>
      <point x="290" y="237"/>
      <point x="308" y="-2" type="curve"/>
      <point x="422" y="3" type="line"/>
      <point x="403" y="245"/>
      <point x="354" y="477"/>
      <point x="276" y="643" type="curve"/>
      <point x="172" y="643" type="line"/>
      <point x="94" y="477"/>
      <point x="45" y="245"/>
      <point x="26" y="3" type="curve"/>
    </contour>
  </outline>
</glyph>
<glyph name="uni03A9" format="1">
  <advance width="448"/>
  <unicode hex="03A9"/>
  <outline>
    <contour>
      <point x="256" y="130" type="line"/>
      <point x="363" y="144"/>
      <point x="411" y="223"/>
      <point x="411" y="383" type="curve" smooth="yes"/>
      <point x="411" y="562"/>
      <point x="353" y="650"/>
      <point x="224" y="650" type="curve" smooth="yes"/>
      <point x="98" y="650"/>
      <point x="37" y="562"/>
      <point x="37" y="383" type="curve" smooth="yes"/>
      <point x="37" y="224"/>
      <point x="88" y="145"/>
      <point x="192" y="130" type="curve"/>
      <point x="124" y="192" type="line"/>
      <point x="124" y="64" type="line"/>
      <point x="44" y="64" type="line"/>
      <point x="44" y="0" type="line"/>
      <point x="196" y="0" type="line"/>
      <point x="196" y="187" type="line"/>
      <point x="134" y="201"/>
      <point x="113" y="260"/>
      <point x="113" y="383" type="curve" smooth="yes"/>
      <point x="113" y="529"/>
      <point x="143" y="584"/>
      <point x="224" y="584" type="curve" smooth="yes"/>
      <point x="305" y="584"/>
      <point x="335" y="529"/>
      <point x="335" y="383" type="curve" smooth="yes"/>
      <point x="335" y="260"/>
      <point x="314" y="201"/>
      <point x="252" y="187" type="curve"/>
      <point x="252" y="0" type="line"/>
      <point x="404" y="0" type="line"/>
      <point x="404" y="64" type="line"/>
      <point x="324" y="64" type="line"/>
      <point x="324" y="181" type="line"/>
    </contour>
  </outline>
</glyph>
<glyph name="alpha" format="1">
  <advance width="448"/>
  <unicode hex="03B1"/>
  <outline>
    <contour>
      <point x="51" y="224" type="line"/>
      <point x="51" y="93"/>
      <point x="87" y="-8"/>
      <point x="194" y="-8" type="curve" smooth="yes"/>
      <point x="291" y="-8"/>
      <point x="373" y="106"/>
      <point x="393" y="357" type="curve" smooth="yes"/>
      <point x="400" y="446" type="line"/>
      <point x="328" y="451" type="line"/>
      <point x="323" y="317" type="line" smooth="yes"/>
      <point x="316" y="140"/>
      <point x="256" y="56"/>
      <point x="199" y="56" type="curve" smooth="yes"/>
      <point x="152" y="56"/>
      <point x="129" y="95"/>
      <point x="129" y="224" type="curve"/>
    </contour>
    <contour>
      <point x="129" y="224" type="line"/>
      <point x="129" y="353"/>
      <point x="152" y="392"/>
      <point x="199" y="392" type="curve" smooth="yes"/>
      <point x="256" y="392"/>
      <point x="316" y="308"/>
      <point x="323" y="131" type="curve" smooth="yes"/>
      <point x="328" y="-3" type="line"/>
      <point x="400" y="2" type="line"/>
      <point x="393" y="91" type="line" smooth="yes"/>
      <point x="373" y="342"/>
      <point x="291" y="456"/>
      <point x="194" y="456" type="curve" smooth="yes"/>
      <point x="87" y="456"/>
      <point x="51" y="355"/>
      <point x="51" y="224" type="curve"/>
    </contour>
  </outline>
</glyph>
<glyph name="gamma" format="1">
  <advance width="448"/>
  <unicode hex="03B3"/>
  <outline>
    <contour>
      <point x="237" y="64" type="line"/>
      <point x="171" y="174"/>
      <point x="134" y="262"/>
      <point x="117" y="451" type="curve"/>
      <point x="42" y="447" type="line"/>
      <point x="59" y="249"/>
      <point x="116" y="121"/>
      <point x="199" y="-2" type="curve"/>
      <point x="249" y="-2" type="line"/>
      <point x="332" y="121"/>
      <point x="389" y="249"/>
      <point x="406" y="447" type="curve"/>
      <point x="331" y="451" type="line"/>
      <point x="314" y="262"/>
      <point x="277" y="174"/>
      <point x="211" y="64" type="curve"/>
    </contour>
    <contour>
      <point x="188" y="-192" type="line"/>
      <point x="260" y="-192" type="line"/>
      <point x="260" y="30" type="line"/>
      <point x="188" y="30" type="line"/>
    </contour>
  </outline>
</glyph>
<glyph name="delta" format="1">
  <advance width="448"/>
  <unicode hex="03B4"/>
  <outline>
    <contour>
      <point x="384" y="635" type="line"/>
      <point x="349" y="639"/>
      <point x="308" y="642"/>
      <point x="278" y="642" type="curve" smooth="yes"/>
      <point x="156" y="642"/>
      <point x="117" y="582"/>
      <point x="117" y="518" type="curve" smooth="yes"/>
      <point x="117" y="450"/>
      <point x="154" y="414"/>
      <point x="209" y="379" type="curve" smooth="yes"/>
      <point x="259" y="347"/>
      <point x="324" y="294"/>
      <point x="324" y="192" type="curve" smooth="yes"/>
      <point x="324" y="99"/>
      <point x="289" y="51"/>
      <point x="221" y="51" type="curve" smooth="yes"/>
      <point x="158" y="51"/>
      <point x="125" y="100"/>
      <point x="125" y="176" type="curve" smooth="yes"/>
      <point x="125" y="256"/>
      <point x="152" y="311"/>
      <point x="256" y="366" type="curve"/>
      <point x="227" y="417" type="line"/>
      <point x="119" y="374"/>
      <point x="50" y="288"/>
      <point x="50" y="177" type="curve" smooth="yes"/>
      <point x="50" y="93"/>
      <point x="95" y="-13"/>
      <point x="221" y="-13" type="curve" smooth="yes"/>
      <point x="350" y="-13"/>
      <point x="398" y="93"/>
      <point x="398" y="192" type="curve" smooth="yes"/>
      <point x="398" y="319"/>
      <point x="314" y="388"/>
      <point x="257" y="429" type="curve" smooth="yes"/>
      <point x="206" y="466"/>
      <point x="192" y="483"/>
      <point x="192" y="516" type="curve" smooth="yes"/>
      <point x="192" y="548"/>
      <point x="210" y="578"/>
      <point x="278" y="578" type="curve" smooth="yes"/>
      <point x="309" y="578"/>
      <point x="340" y="576"/>
      <point x="378" y="573" type="curve"/>
    </contour>
  </outline>
</glyph>
<glyph name="zeta" format="1">
  <advance width="448"/>
  <unicode hex="03B6"/>
  <outline>
    <contour>
      <point x="360" y="618" type="line"/>
      <point x="218" y="574"/>
      <point x="46" y="424"/>
      <point x="46" y="229" type="curve" smooth="yes"/>
      <point x="46" y="94"/>
      <point x="93" y="3"/>
      <point x="224" y="-7" type="curve" smooth="yes"/>
      <point x="293" y="-12"/>
      <point x="316" y="-30"/>
      <point x="316" y="-71" type="curve" smooth="yes"/>
      <point x="316" y="-110"/>
      <point x="300" y="-128"/>
      <point x="246" y="-128" type="curve" smooth="yes"/>
      <point x="234" y="-128"/>
      <point x="214" y="-127"/>
      <point x="192" y="-125" type="curve"/>
      <point x="184" y="-184" type="line"/>
      <point x="206" y="-190"/>
      <point x="231" y="-192"/>
      <point x="250" y="-192" type="curve" smooth="yes"/>
      <point x="332" y="-192"/>
      <point x="388" y="-149"/>
      <point x="388" y="-71" type="curve" smooth="yes"/>
      <point x="388" y="26"/>
      <point x="313" y="49"/>
      <point x="246" y="55" type="curve" smooth="yes"/>
      <point x="149" y="64"/>
      <point x="126" y="106"/>
      <point x="126" y="217" type="curve" smooth="yes"/>
      <point x="126" y="377"/>
      <point x="207" y="494"/>
      <point x="384" y="576" type="curve"/>
    </contour>
    <contour>
      <point x="64" y="576" type="line"/>
      <point x="384" y="576" type="line"/>
      <point x="384" y="640" type="line"/>
      <point x="64" y="640" type="line"/>
    </contour>
  </outline>
</glyph>
<glyph name="iota" format="1">
  <advance width="448"/>
  <unicode hex="03B9"/>
  <outline>
    <contour>
      <point x="98" y="389" type="line"/>
      <point x="173" y="384" type="line"/>
      <point x="173" y="124" type="line" smooth="yes"/>
      <point x="173" y="28"/>
      <point x="232" y="-4"/>
      <point x="305" y="-4" type="curve" smooth="yes"/>
      <point x="326" y="-4"/>
      <point x="344" y="-3"/>
      <point x="367" y="0" type="curve"/>
      <point x="362" y="63" type="line"/>
      <point x="342" y="61"/>
      <point x="322" y="60"/>
      <point x="308" y="60" type="curve" smooth="yes"/>
      <point x="262" y="60"/>
      <point x="245" y="83"/>
      <point x="245" y="119" type="curve" smooth="yes"/>
      <point x="245" y="448" type="line"/>
      <point x="98" y="448" type="line"/>
    </contour>
  </outline>
</glyph>
<glyph name="xi" format="1">
  <advance width="448"/>
  <unicode hex="03BE"/>
  <outline>
    <contour>
      <point x="74" y="576" type="line"/>
      <point x="379" y="576" type="line"/>
      <point x="379" y="640" type="line"/>
      <point x="74" y="640" type="line"/>
    </contour>
    <contour>
      <point x="310" y="320" type="line"/>
      <point x="176" y="320"/>
      <point x="142" y="367"/>
      <point x="142" y="446" type="curve" smooth="yes"/>
      <point x="142" y="516"/>
      <point x="203" y="576"/>
      <point x="285" y="576" type="curve"/>
      <point x="285" y="608" type="line"/>
      <point x="147" y="607"/>
      <point x="70" y="529"/>
      <point x="70" y="440" type="curve" smooth="yes"/>
      <point x="70" y="343"/>
      <point x="140" y="282"/>
      <point x="256" y="282" type="curve"/>
      <point x="256" y="306" type="line"/>
      <point x="153" y="306"/>
      <point x="56" y="250"/>
      <point x="56" y="149" type="curve" smooth="yes"/>
      <point x="56" y="61"/>
      <point x="110" y="15"/>
      <point x="210" y="-2" type="curve" smooth="yes"/>
      <point x="296" y="-16"/>
      <point x="316" y="-30"/>
      <point x="316" y="-74" type="curve" smooth="yes"/>
      <point x="316" y="-110"/>
      <point x="300" y="-128"/>
      <point x="246" y="-128" type="curve" smooth="yes"/>
      <point x="234" y="-128"/>
      <point x="214" y="-127"/>
      <point x="192" y="-125" type="curve"/>
      <point x="184" y="-184" type="line"/>
      <point x="206" y="-190"/>
      <point x="231" y="-192"/>
      <point x="250" y="-192" type="curve" smooth="yes"/>
      <point x="332" y="-192"/>
      <point x="388" y="-149"/>
      <point x="388" y="-71" type="curve" smooth="yes"/>
      <point x="388" y="26"/>
      <point x="312" y="42"/>
      <point x="236" y="56" type="curve" smooth="yes"/>
      <point x="159" y="70"/>
      <point x="128" y="102"/>
      <point x="128" y="154" type="curve" smooth="yes"/>
      <point x="128" y="213"/>
      <point x="160" y="256"/>
      <point x="310" y="256" type="curve"/>
    </contour>
  </outline>
</glyph>
<glyph name="pi" format="1">
  <advance width="448"/>
  <unicode hex="03C0"/>
  <outline>
    <contour>
      <point x="398" y="448" type="line"/>
      <point x="50" y="448" type="line"/>
      <point x="50" y="0" type="line"/>
      <point x="162" y="0" type="line"/>
      <point x="162" y="368" type="line"/>
      <point x="286" y="368" type="line"/>
      <point x="286" y="0" type="line"/>
      <point x="398" y="0" type="line"/>
    </contour>
  </outline>
</glyph>
<glyph name="sigma1" format="1">
  <advance width="448"/>
  <unicode hex="03C2"/>
  <outline>
    <contour>
      <point x="358" y="436" type="line"/>
      <point x="317" y="450"/>
      <point x="276" y="455"/>
      <point x="238" y="455" type="curve" smooth="yes"/>
      <point x="94" y="455"/>
      <point x="50" y="352"/>
      <point x="50" y="224" type="curve" smooth="yes"/>
      <point x="50" y="96"/>
      <point x="93" y="3"/>
      <point x="224" y="-7" type="curve" smooth="yes"/>
      <point x="293" y="-12"/>
      <point x="316" y="-30"/>
      <point x="316" y="-71" type="curve" smooth="yes"/>
      <point x="316" y="-110"/>
      <point x="300" y="-128"/>
      <point x="246" y="-128" type="curve" smooth="yes"/>
      <point x="234" y="-128"/>
      <point x="214" y="-127"/>
      <point x="192" y="-125" type="curve"/>
      <point x="184" y="-184" type="line"/>
      <point x="206" y="-190"/>
      <point x="231" y="-192"/>
      <point x="250" y="-192" type="curve" smooth="yes"/>
      <point x="332" y="-192"/>
      <point x="388" y="-149"/>
      <point x="388" y="-71" type="curve" smooth="yes"/>
      <point x="388" y="26"/>
      <point x="313" y="49"/>
      <point x="246" y="55" type="curve" smooth="yes"/>
      <point x="149" y="64"/>
      <point x="126" y="99"/>
      <point x="126" y="224" type="curve" smooth="yes"/>
      <point x="126" y="350"/>
      <point x="155" y="391"/>
      <point x="242" y="391" type="curve" smooth="yes"/>
      <point x="278" y="391"/>
      <point x="309" y="386"/>
      <point x="345" y="376" type="curve"/>
    </contour>
  </outline>
</glyph>
<glyph name="upsilon" format="1">
  <advance width="448"/>
  <unicode hex="03C5"/>
  <outline>
    <contour>
      <point x="72" y="448" type="line"/>
      <point x="61" y="362"/>
      <point x="58" y="298"/>
      <point x="58" y="233" type="curve" smooth="yes"/>
      <point x="58" y="171"/>
      <point x="63" y="122"/>
      <point x="74" y="92" type="curve" smooth="yes"/>
      <point x="102" y="14"/>
      <point x="158" y="-12"/>
      <point x="224" y="-12" type="curve" smooth="yes"/>
      <point x="347" y="-12"/>
      <point x="397" y="84"/>
      <point x="397" y="232" type="curve" smooth="yes"/>
      <point x="397" y="372"/>
      <point x="346" y="428"/>
      <point x="264" y="460" type="curve"/>
      <point x="237" y="403" type="line"/>
      <point x="291" y="375"/>
      <point x="319" y="350"/>
      <point x="319" y="232" type="curve" smooth="yes"/>
      <point x="319" y="93"/>
      <point x="293" y="52"/>
      <point x="224" y="52" type="curve" smooth="yes"/>
      <point x="178" y="52"/>
      <point x="152" y="73"/>
      <point x="143" y="110" type="curve" smooth="yes"/>
      <point x="136" y="137"/>
      <point x="132" y="183"/>
      <point x="132" y="235" type="curve" smooth="yes"/>
      <point x="132" y="287"/>
      <point x="132" y="349"/>
      <point x="137" y="448" type="curve"/>
    </contour>
  </outline>
</glyph>
<glyph name="psi" format="1">
  <advance width="448"/>
  <unicode hex="03C8"/>
  <outline>
    <contour>
      <point x="188" y="640" type="line"/>
      <point x="193" y="32" type="line"/>
      <point x="188" y="6" type="line"/>
      <point x="188" y="-192" type="line"/>
      <point x="260" y="-192" type="line"/>
      <point x="260" y="6" type="line"/>
      <point x="255" y="32" type="line"/>
      <point x="260" y="640" type="line"/>
    </contour>
    <contour>
      <point x="68" y="448" type="line"/>
      <point x="57" y="362"/>
      <point x="54" y="298"/>
      <point x="54" y="233" type="curve" smooth="yes"/>
      <point x="54" y="171"/>
      <point x="59" y="122"/>
      <point x="70" y="92" type="curve" smooth="yes"/>
      <point x="98" y="14"/>
      <point x="155" y="-10"/>
      <point x="224" y="-10" type="curve" smooth="yes"/>
      <point x="293" y="-10"/>
      <point x="350" y="14"/>
      <point x="378" y="92" type="curve" smooth="yes"/>
      <point x="389" y="122"/>
      <point x="394" y="171"/>
      <point x="394" y="233" type="curve" smooth="yes"/>
      <point x="394" y="298"/>
      <point x="391" y="362"/>
      <point x="380" y="448" type="curve"/>
      <point x="319" y="448" type="line"/>
      <point x="324" y="349"/>
      <point x="324" y="287"/>
      <point x="324" y="235" type="curve" smooth="yes"/>
      <point x="324" y="183"/>
      <point x="320" y="137"/>
      <point x="313" y="110" type="curve" smooth="yes"/>
      <point x="304" y="73"/>
      <point x="273" y="48"/>
      <point x="224" y="48" type="curve" smooth="yes"/>
      <point x="175" y="48"/>
      <point x="144" y="73"/>
      <point x="135" y="110" type="curve" smooth="yes"/>
      <point x="128" y="137"/>
      <point x="124" y="183"/>
      <point x="124" y="235" type="curve" smooth="yes"/>
      <point x="124" y="287"/>
      <point x="124" y="349"/>
      <point x="129" y="448" type="curve"/>
    </contour>
  </outline>
</glyph>
<glyph name="phi1" format="1">
  <advance width="448"/>
  <unicode hex="03D5"/>
  <outline>
    <contour>
      <point x="188" y="-192" type="line"/>
      <point x="260" y="-192" type="line"/>
      <point x="260" y="403" type="line"/>
      <point x="244" y="378" type="line"/>
      <point x="298" y="378"/>
      <point x="319" y="350"/>
      <point x="319" y="224" type="curve" smooth="yes"/>
      <point x="319" y="93"/>
      <point x="293" y="48"/>
      <point x="224" y="48" type="curve" smooth="yes"/>
      <point x="178" y="48"/>
      <point x="152" y="73"/>
      <point x="143" y="110" type="curve" smooth="yes"/>
      <point x="136" y="137"/>
      <point x="132" y="183"/>
      <point x="132" y="235" type="curve" smooth="yes"/>
      <point x="132" y="287"/>
      <point x="132" y="349"/>
      <point x="137" y="448" type="curve"/>
      <point x="72" y="448" type="line"/>
      <point x="61" y="362"/>
      <point x="58" y="298"/>
      <point x="58" y="233" type="curve" smooth="yes"/>
      <point x="58" y="171"/>
      <point x="63" y="122"/>
      <point x="74" y="92" type="curve" smooth="yes"/>
      <point x="102" y="14"/>
      <point x="158" y="-10"/>
      <point x="224" y="-10" type="curve" smooth="yes"/>
      <point x="347" y="-10"/>
      <point x="397" y="84"/>
      <point x="397" y="224" type="curve" smooth="yes"/>
      <point x="397" y="378"/>
      <point x="347" y="448"/>
      <point x="233" y="448" type="curve" smooth="yes"/>
      <point x="218" y="448"/>
      <point x="200" y="447"/>
      <point x="188" y="446" type="curve"/>
    </contour>
  </outline>
</glyph>
<glyph name="afii10145" format="1">
  <advance width="448"/>
  <unicode hex="040F"/>
  <outline>
    <contour>
      <point x="60" y="0" type="line"/>
      <point x="188" y="0" type="line"/>
      <point x="188" y="-128" type="line"/>
      <point x="260" y="-128" type="line"/>
      <point x="260" y="0" type="line"/>
      <point x="388" y="0" type="line"/>
      <point x="388" y="640" type="line"/>
      <point x="316" y="640" type="line"/>
      <point x="316" y="64" type="line"/>
      <point x="132" y="64" type="line"/>
      <point x="132" y="640" type="line"/>
      <point x="60" y="640" type="line"/>
    </contour>
  </outline>
</glyph>
<glyph name="afii10020" format="1">
  <advance width="448"/>
  <unicode hex="0413"/>
  <outline>
    <contour>
      <point x="394" y="640" type="line"/>
      <point x="50" y="640" type="line"/>
      <point x="50" y="0" type="line"/>
      <point x="162" y="0" type="line"/>
      <point x="162" y="560" type="line"/>
      <point x="394" y="560" type="line"/>
    </contour>
  </outline>
</glyph>
<glyph name="afii10026" format="1">
  <advance width="448"/>
  <unicode hex="0418"/>
  <outline>
    <contour>
      <point x="398" y="640" type="line"/>
      <point x="286" y="640" type="line"/>
      <point x="306" y="608" type="line"/>
      <point x="296" y="0" type="line"/>
      <point x="398" y="0" type="line"/>
    </contour>
    <contour>
      <point x="152" y="640" type="line"/>
      <point x="50" y="640" type="line"/>
      <point x="50" y="0" type="line"/>
      <point x="162" y="0" type="line"/>
      <point x="142" y="31" type="line"/>
    </contour>
    <contour>
      <point x="282" y="368" type="line"/>
      <point x="333" y="615" type="line"/>
      <point x="286" y="640" type="line"/>
      <point x="166" y="272" type="line"/>
      <point x="116" y="25" type="line"/>
      <point x="162" y="0" type="line"/>
    </contour>
  </outline>
</glyph>
<glyph name="afii10033" format="1">
  <advance width="448"/>
  <unicode hex="041F"/>
  <outline>
    <contour>
      <point x="398" y="640" type="line"/>
      <point x="50" y="640" type="line"/>
      <point x="50" y="0" type="line"/>
      <point x="162" y="0" type="line"/>
      <point x="162" y="560" type="line"/>
      <point x="286" y="560" type="line"/>
      <point x="286" y="0" type="line"/>
      <point x="398" y="0" type="line"/>
    </contour>
  </outline>
</glyph>
<glyph name="afii10040" format="1">
  <advance width="448"/>
  <unicode hex="0426"/>
  <outline>
    <contour>
      <point x="60" y="0" type="line"/>
      <point x="380" y="0" type="line"/>
      <point x="380" y="-128" type="line"/>
      <point x="452" y="-128" type="line"/>
      <point x="452" y="64" type="line"/>
      <point x="388" y="64" type="line"/>
      <point x="388" y="640" type="line"/>
      <point x="316" y="640" type="line"/>
      <point x="316" y="64" type="line"/>
      <point x="132" y="64" type="line"/>
      <point x="132" y="640" type="line"/>
      <point x="60" y="640" type="line"/>
    </contour>
  </outline>
</glyph>
<glyph name="afii10043" format="1">
  <advance width="448"/>
  <unicode hex="0429"/>
  <outline>
    <contour>
      <point x="60" y="0" type="line"/>
      <point x="380" y="0" type="line"/>
      <point x="380" y="-128" type="line"/>
      <point x="452" y="-128" type="line"/>
      <point x="452" y="64" type="line"/>
      <point x="388" y="64" type="line"/>
      <point x="388" y="640" type="line"/>
      <point x="324" y="640" type="line"/>
      <point x="324" y="64" type="line"/>
      <point x="256" y="64" type="line"/>
      <point x="256" y="640" type="line"/>
      <point x="192" y="640" type="line"/>
      <point x="192" y="64" type="line"/>
      <point x="124" y="64" type="line"/>
      <point x="124" y="640" type="line"/>
      <point x="60" y="640" type="line"/>
    </contour>
  </outline>
</glyph>
<glyph name="afii10046" format="1">
  <advance width="448"/>
  <unicode hex="042C"/>
  <outline>
    <contour>
      <point x="107" y="384" type="line"/>
      <point x="107" y="320" type="line"/>
      <point x="208" y="320" type="line" smooth="yes"/>
      <point x="301" y="320"/>
      <point x="325" y="265"/>
      <point x="325" y="192" type="curve" smooth="yes"/>
      <point x="325" y="118"/>
      <point x="303" y="64"/>
      <point x="208" y="64" type="curve" smooth="yes"/>
      <point x="105" y="64" type="line"/>
      <point x="105" y="0" type="line"/>
      <point x="215" y="0" type="line" smooth="yes"/>
      <point x="327" y="0"/>
      <point x="401" y="67"/>
      <point x="401" y="192" type="curve" smooth="yes"/>
      <point x="401" y="315"/>
      <point x="327" y="384"/>
      <point x="215" y="384" type="curve" smooth="yes"/>
    </contour>
    <contour>
      <point x="60" y="0" type="line"/>
      <point x="132" y="0" type="line"/>
      <point x="132" y="640" type="line"/>
      <point x="60" y="640" type="line"/>
    </contour>
  </outline>
</glyph>
<glyph name="afii10066" format="1">
  <advance width="448"/>
  <unicode hex="0431"/>
  <outline>
    <contour>
      <point x="373.0" y="625.0" type="line"/>
      <point x="332.0" y="611.0"/>
      <point x="298.0" y="607.0"/>
      <point x="263.0" y="602.0" type="curve" smooth="yes"/>
      <point x="62.0" y="573.0"/>
      <point x="40.0" y="457.0"/>
      <point x="40.0" y="271.0" type="curve" smooth="yes"/>
      <point x="40.0" y="64.0"/>
      <point x="105.0" y="-8.0"/>
      <point x="220.0" y="-8.0" type="curve" smooth="yes"/>
      <point x="326.0" y="-8.0"/>
      <point x="395.0" y="74.0"/>
      <point x="395.0" y="209.0" type="curve" smooth="yes"/>
      <point x="395.0" y="338.0"/>
      <point x="330.0" y="414.0"/>
      <point x="231.0" y="414.0" type="curve" smooth="yes"/>
      <point x="172.0" y="414.0"/>
      <point x="121.0" y="391.0"/>
      <point x="79.0" y="351.0" type="curve"/>
      <point x="106.0" y="311.0" type="line"/>
      <point x="136.0" y="334.0"/>
      <point x="178.0" y="350.0"/>
      <point x="224.0" y="350.0" type="curve" smooth="yes"/>
      <point x="305.0" y="350.0"/>
      <point x="320.0" y="280.0"/>
      <point x="320.0" y="209.0" type="curve" smooth="yes"/>
      <point x="320.0" y="121.0"/>
      <point x="296.0" y="56.0"/>
      <point x="217.0" y="56.0" type="curve" smooth="yes"/>
      <point x="134.0" y="56.0"/>
      <point x="114.0" y="118.0"/>
      <point x="114.0" y="271.0" type="curve" smooth="yes"/>
      <point x="114.0" y="443.0"/>
      <point x="123.0" y="518.0"/>
      <point x="263.0" y="538.0" type="curve" smooth="yes"/>
      <point x="306.0" y="544.0"/>
      <point x="346.0" y="551.0"/>
      <point x="383.0" y="569.0" type="curve"/>
    </contour>
  </outline>
</glyph>
<glyph name="afii10079" format="1">
  <advance width="448"/>
  <unicode hex="043D"/>
  <outline>
    <contour>
      <point x="388" y="448" type="line"/>
      <point x="316" y="448" type="line"/>
      <point x="316" y="256" type="line"/>
      <point x="132" y="256" type="line"/>
      <point x="132" y="448" type="line"/>
      <point x="60" y="448" type="line"/>
      <point x="60" y="0" type="line"/>
      <point x="132" y="0" type="line"/>
      <point x="132" y="192" type="line"/>
      <point x="316" y="192" type="line"/>
      <point x="316" y="0" type="line"/>
      <point x="388" y="0" type="line"/>
    </contour>
  </outline>
</glyph>
<glyph name="afii10088" format="1">
  <advance width="448"/>
  <unicode hex="0446"/>
  <outline>
    <contour>
      <point x="378" y="448" type="line"/>
      <point x="306" y="448" type="line"/>
      <point x="306" y="64" type="line"/>
      <point x="132" y="64" type="line"/>
      <point x="132" y="448" type="line"/>
      <point x="60" y="448" type="line"/>
      <point x="60" y="0" type="line"/>
      <point x="370" y="0" type="line"/>
      <point x="370" y="-128" type="line"/>
      <point x="442" y="-128" type="line"/>
      <point x="442" y="64" type="line"/>
      <point x="378" y="64" type="line"/>
    </contour>
  </outline>
</glyph>
<glyph name="afii10089" format="1">
  <advance width="448"/>
  <unicode hex="0447"/>
  <note>
    from h
  </note>
  <outline>
    <contour>
      <point x="388" y="448" type="line"/>
      <point x="316" y="448" type="line"/>
      <point x="316" y="0" type="line"/>
      <point x="388" y="0" type="line"/>
    </contour>
    <contour>
      <point x="132" y="448" type="line"/>
      <point x="60" y="448" type="line"/>
      <point x="60" y="279" type="line" smooth="yes"/>
      <point x="60" y="157"/>
      <point x="121" y="124"/>
      <point x="187" y="124" type="curve" smooth="yes"/>
      <point x="262" y="124"/>
      <point x="333" y="177"/>
      <point x="367" y="231" type="curve"/>
      <point x="331" y="262" type="line"/>
      <point x="296" y="222"/>
      <point x="249" y="188"/>
      <point x="201" y="188" type="curve" smooth="yes"/>
      <point x="148" y="188"/>
      <point x="132" y="218"/>
      <point x="132" y="287" type="curve" smooth="yes"/>
    </contour>
  </outline>
</glyph>
<glyph name="afii10193" format="1">
  <advance width="448"/>
  <unicode hex="045F"/>
  <outline>
    <contour>
      <point x="60" y="0" type="line"/>
      <point x="188" y="0" type="line"/>
      <point x="188" y="-128" type="line"/>
      <point x="260" y="-128" type="line"/>
      <point x="260" y="0" type="line"/>
      <point x="388" y="0" type="line"/>
      <point x="388" y="448" type="line"/>
      <point x="316" y="448" type="line"/>
      <point x="316" y="64" type="line"/>
      <point x="132" y="64" type="line"/>
      <point x="132" y="448" type="line"/>
      <point x="60" y="448" type="line"/>
    </contour>
  </outline>
</glyph>
<glyph name="uni1E9E" format="1">
  <advance width="448"/>
  <unicode hex="1E9E"/>
  <outline>
    <contour>
      <point x="60" y="0" type="line"/>
      <point x="132" y="0" type="line"/>
      <point x="132" y="640" type="line"/>
      <point x="60" y="640" type="line"/>
    </contour>
    <contour>
      <point x="189" y="285" type="line"/>
      <point x="303" y="245"/>
      <point x="329" y="196"/>
      <point x="329" y="148" type="curve" smooth="yes"/>
      <point x="329" y="95"/>
      <point x="304" y="58"/>
      <point x="212" y="58" type="curve" smooth="yes"/>
      <point x="192" y="58" type="line"/>
      <point x="185" y="-6" type="line"/>
      <point x="194" y="-7"/>
      <point x="205" y="-8"/>
      <point x="217" y="-8" type="curve" smooth="yes"/>
      <point x="330" y="-8"/>
      <point x="405" y="44"/>
      <point x="405" y="145" type="curve" smooth="yes"/>
      <point x="405" y="260"/>
      <point x="300" y="314"/>
      <point x="206" y="337" type="curve"/>
    </contour>
    <contour>
      <point x="311" y="576" type="line"/>
      <point x="315" y="556"/>
      <point x="316" y="534"/>
      <point x="316" y="519" type="curve" smooth="yes"/>
      <point x="316" y="434"/>
      <point x="285" y="370"/>
      <point x="243" y="317" type="curve"/>
      <point x="294" y="288" type="line"/>
      <point x="353" y="350"/>
      <point x="388" y="427"/>
      <point x="388" y="526" type="curve" smooth="yes"/>
      <point x="388" y="562"/>
      <point x="381" y="609"/>
      <point x="374" y="640" type="curve"/>
      <point x="92" y="640" type="line"/>
      <point x="92" y="576" type="line"/>
    </contour>
  </outline>
</glyph>
<glyph name="emdash" format="1">
  <advance width="448"/>
  <unicode hex="2014"/>
  <outline>
    <contour>
      <point x="458" y="256" type="line"/>
      <point x="-10" y="256" type="line"/>
      <point x="-10" y="192" type="line"/>
      <point x="458" y="192" type="line"/>
    </contour>
  </outline>
</glyph>
<glyph name="dagger" format="1">
  <advance width="448"/>
  <unicode hex="2020"/>
  <outline>
    <contour>
      <point x="170" y="640" type="line"/>
      <point x="170" y="466" type="line"/>
      <point x="54" y="466" type="line"/>
      <point x="54" y="386" type="line"/>
      <point x="170" y="386" type="line"/>
      <point x="170" y="0" type="line"/>
      <point x="278" y="0" type="line"/>
      <point x="278" y="386" type="line"/>
      <point x="394" y="386" type="line"/>
      <point x="394" y="466" type="line"/>
      <point x="278" y="466" type="line"/>
      <point x="278" y="640" type="line"/>
    </contour>
  </outline>
</glyph>
<glyph name="daggerdbl" format="1">
  <advance width="448"/>
  <unicode hex="2021"/>
  <outline>
    <contour>
      <point x="190" y="640" type="line"/>
      <point x="190" y="458" type="line"/>
      <point x="64" y="458" type="line"/>
      <point x="64" y="394" type="line"/>
      <point x="190" y="394" type="line"/>
      <point x="190" y="246" type="line"/>
      <point x="64" y="246" type="line"/>
      <point x="64" y="182" type="line"/>
      <point x="190" y="182" type="line"/>
      <point x="190" y="0" type="line"/>
      <point x="258" y="0" type="line"/>
      <point x="258" y="182" type="line"/>
      <point x="384" y="182" type="line"/>
      <point x="384" y="246" type="line"/>
      <point x="258" y="246" type="line"/>
      <point x="258" y="394" type="line"/>
      <point x="384" y="394" type="line"/>
      <point x="384" y="458" type="line"/>
      <point x="258" y="458" type="line"/>
      <point x="258" y="640" type="line"/>
    </contour>
  </outline>
</glyph>
<glyph name="bullet" format="1">
  <advance width="448"/>
  <unicode hex="2022"/>
  <outline>
    <contour>
      <point x="122" y="224" type="curve" smooth="yes"/>
      <point x="122" y="165"/>
      <point x="166" y="120"/>
      <point x="224" y="120" type="curve" smooth="yes"/>
      <point x="282" y="120"/>
      <point x="326" y="165"/>
      <point x="326" y="224" type="curve" smooth="yes"/>
      <point x="326" y="283"/>
      <point x="282" y="328"/>
      <point x="224" y="328" type="curve" smooth="yes"/>
      <point x="166" y="328"/>
      <point x="122" y="283"/>
    </contour>
  </outline>
</glyph>
<glyph name="minute" format="1">
  <advance width="448"/>
  <unicode hex="2032"/>
  <outline>
    <contour>
      <point x="127" y="388" type="line"/>
      <point x="190" y="372" type="line"/>
      <point x="265" y="630" type="line"/>
      <point x="188" y="649" type="line"/>
    </contour>
  </outline>
</glyph>
<glyph name="guilsinglleft" format="1">
  <advance width="448"/>
  <unicode hex="2039"/>
  <outline>
    <contour>
      <point x="272" y="397" type="line"/>
      <point x="202" y="417" type="line"/>
      <point x="138" y="224" type="line"/>
      <point x="202" y="31" type="line"/>
      <point x="272" y="51" type="line"/>
      <point x="215" y="224" type="line"/>
    </contour>
  </outline>
</glyph>
<glyph name="guilsinglright" format="1">
  <advance width="448"/>
  <unicode hex="203A"/>
  <outline>
    <contour>
      <point x="246" y="417" type="line"/>
      <point x="176" y="397" type="line"/>
      <point x="233" y="224" type="line"/>
      <point x="176" y="51" type="line"/>
      <point x="246" y="31" type="line"/>
      <point x="310" y="224" type="line"/>
    </contour>
  </outline>
</glyph>
<glyph name="uni2070" format="1">
  <advance width="448"/>
  <unicode hex="2070"/>
  <outline>
    <contour>
      <point x="46" y="480" type="curve" smooth="yes"/>
      <point x="46" y="358"/>
      <point x="93" y="313"/>
      <point x="160" y="313" type="curve" smooth="yes"/>
      <point x="228" y="313"/>
      <point x="274" y="358"/>
      <point x="274" y="480" type="curve" smooth="yes"/>
      <point x="274" y="602"/>
      <point x="227" y="647"/>
      <point x="160" y="647" type="curve" smooth="yes"/>
      <point x="93" y="647"/>
      <point x="46" y="602"/>
    </contour>
    <contour>
      <point x="111" y="480" type="curve" smooth="yes"/>
      <point x="111" y="553"/>
      <point x="125" y="592"/>
      <point x="160" y="592" type="curve" smooth="yes"/>
      <point x="195" y="592"/>
      <point x="209" y="554"/>
      <point x="209" y="480" type="curve" smooth="yes"/>
      <point x="209" y="407"/>
      <point x="195" y="368"/>
      <point x="160" y="368" type="curve" smooth="yes"/>
      <point x="125" y="368"/>
      <point x="111" y="407"/>
    </contour>
  </outline>
</glyph>
<glyph name="uni2074" format="1">
  <advance width="448"/>
  <unicode hex="2074"/>
  <outline>
    <contour>
      <point x="192" y="410" type="line"/>
      <point x="192" y="320" type="line"/>
      <point x="256" y="320" type="line"/>
      <point x="256" y="410" type="line"/>
      <point x="286" y="410" type="line"/>
      <point x="286" y="464" type="line"/>
      <point x="256" y="464" type="line"/>
      <point x="256" y="620" type="line"/>
      <point x="192" y="620" type="line"/>
      <point x="192" y="464" type="line"/>
      <point x="83" y="464" type="line"/>
      <point x="121" y="420" type="line"/>
      <point x="122" y="497"/>
      <point x="130" y="566"/>
      <point x="150" y="632" type="curve"/>
      <point x="93" y="650" type="line"/>
      <point x="71" y="585"/>
      <point x="56" y="495"/>
      <point x="56" y="410" type="curve"/>
    </contour>
  </outline>
</glyph>
<glyph name="uni2077" format="1">
  <advance width="448"/>
  <unicode hex="2077"/>
  <outline>
    <contour>
      <point x="64" y="586" type="line"/>
      <point x="222" y="586" type="line"/>
      <point x="190" y="604" type="line"/>
      <point x="190" y="488"/>
      <point x="153" y="421"/>
      <point x="69" y="362" type="curve"/>
      <point x="103" y="314" type="line"/>
      <point x="202" y="381"/>
      <point x="256" y="464"/>
      <point x="256" y="625" type="curve" smooth="yes"/>
      <point x="256" y="640" type="line"/>
      <point x="64" y="640" type="line"/>
    </contour>
  </outline>
</glyph>
<glyph name="nsuperior" format="1">
  <advance width="448"/>
  <unicode hex="207F"/>
  <outline>
    <contour>
      <point x="64" y="320" type="line"/>
      <point x="128" y="320" type="line"/>
      <point x="128" y="590" type="line"/>
      <point x="120" y="640" type="line"/>
      <point x="60" y="640" type="line"/>
      <point x="64" y="589" type="line"/>
    </contour>
    <contour>
      <point x="256" y="320" type="line"/>
      <point x="320" y="320" type="line"/>
      <point x="320" y="519" type="line" smooth="yes"/>
      <point x="320" y="618"/>
      <point x="272" y="643"/>
      <point x="221" y="643" type="curve" smooth="yes"/>
      <point x="162" y="643"/>
      <point x="107" y="602"/>
      <point x="80" y="560" type="curve"/>
      <point x="112" y="531" type="line"/>
      <point x="135" y="559"/>
      <point x="173" y="587"/>
      <point x="209" y="587" type="curve" smooth="yes"/>
      <point x="247" y="587"/>
      <point x="256" y="565"/>
      <point x="256" y="514" type="curve" smooth="yes"/>
    </contour>
  </outline>
</glyph>
<glyph name="franc" format="1">
  <advance width="448"/>
  <unicode hex="20A3"/>
  <outline>
    <contour>
      <point x="10" y="114" type="line"/>
      <point x="60" y="114" type="line"/>
      <point x="60" y="0" type="line"/>
      <point x="132" y="0" type="line"/>
      <point x="132" y="114" type="line"/>
      <point x="266" y="114" type="line"/>
      <point x="266" y="174" type="line"/>
      <point x="132" y="174" type="line"/>
      <point x="132" y="256" type="line"/>
      <point x="320" y="256" type="line"/>
      <point x="320" y="320" type="line"/>
      <point x="132" y="320" type="line"/>
      <point x="132" y="512" type="line"/>
      <point x="384" y="512" type="line"/>
      <point x="384" y="576" type="line"/>
      <point x="60" y="576" type="line"/>
      <point x="60" y="174" type="line"/>
      <point x="10" y="174" type="line"/>
    </contour>
  </outline>
</glyph>
<glyph name="lira" format="1">
  <advance width="448"/>
  <unicode hex="20A4"/>
  <outline>
    <contour>
      <point x="54" y="0" type="line"/>
      <point x="394" y="0" type="line"/>
      <point x="394" y="64" type="line"/>
      <point x="54" y="64" type="line"/>
    </contour>
    <contour>
      <point x="74" y="258" type="line"/>
      <point x="340" y="258" type="line"/>
      <point x="340" y="320" type="line"/>
      <point x="74" y="320" type="line"/>
    </contour>
    <contour>
      <point x="124" y="17" type="line"/>
      <point x="196" y="17" type="line"/>
      <point x="196" y="365" type="line" smooth="yes"/>
      <point x="196" y="466"/>
      <point x="210" y="492"/>
      <point x="366" y="516" type="curve"/>
      <point x="357" y="581" type="line"/>
      <point x="158" y="557"/>
      <point x="124" y="488"/>
      <point x="124" y="369" type="curve" smooth="yes"/>
    </contour>
    <contour>
      <point x="74" y="128" type="line"/>
      <point x="340" y="128" type="line"/>
      <point x="340" y="190" type="line"/>
      <point x="74" y="190" type="line"/>
    </contour>
  </outline>
</glyph>
<glyph name="peseta" format="1">
  <advance width="448"/>
  <unicode hex="20A7"/>
  <outline>
    <contour>
      <point x="266.0" y="100.0" type="line"/>
      <point x="266.0" y="160.0" type="line"/>
      <point x="10.0" y="160.0" type="line"/>
      <point x="10.0" y="100.0" type="line"/>
    </contour>
    <contour>
      <point x="60.0" y="0.0" type="line"/>
      <point x="132.0" y="0.0" type="line"/>
      <point x="132.0" y="576.0" type="line"/>
      <point x="60.0" y="576.0" type="line"/>
    </contour>
    <contour>
      <point x="325.0" y="406.0" type="curve" smooth="yes"/>
      <point x="325.0" y="341.47826087"/>
      <point x="301.0" y="300.0"/>
      <point x="208.0" y="300.0" type="curve" smooth="yes"/>
      <point x="107.0" y="300.0" type="line"/>
      <point x="107.0" y="236.0" type="line"/>
      <point x="215.0" y="236.0" type="line" smooth="yes"/>
      <point x="327.0" y="236.0"/>
      <point x="401.0" y="296.594059406"/>
      <point x="401.0" y="406.0" type="curve" smooth="yes"/>
      <point x="401.0" y="515.405940594"/>
      <point x="327.0" y="576.0"/>
      <point x="215.0" y="576.0" type="curve" smooth="yes"/>
      <point x="107.0" y="576.0" type="line"/>
      <point x="107.0" y="512.0" type="line"/>
      <point x="208.0" y="512.0" type="line" smooth="yes"/>
      <point x="301.0" y="512.0"/>
      <point x="325.0" y="470.52173913"/>
    </contour>
  </outline>
</glyph>
<glyph name="Euro" format="1">
  <advance width="448"/>
  <unicode hex="20AC"/>
  <outline>
    <contour>
      <point x="184" y="288" type="curve" smooth="yes"/>
      <point x="184" y="459"/>
      <point x="227" y="519"/>
      <point x="308" y="519" type="curve" smooth="yes"/>
      <point x="341" y="519"/>
      <point x="369" y="512"/>
      <point x="393" y="504" type="curve"/>
      <point x="409" y="563" type="line"/>
      <point x="377" y="576"/>
      <point x="338" y="583"/>
      <point x="308" y="583" type="curve" smooth="yes"/>
      <point x="169" y="583"/>
      <point x="112" y="475"/>
      <point x="112" y="288" type="curve" smooth="yes"/>
      <point x="112" y="98"/>
      <point x="169" y="-7"/>
      <point x="308" y="-7" type="curve" smooth="yes"/>
      <point x="338" y="-7"/>
      <point x="377" y="0"/>
      <point x="409" y="13" type="curve"/>
      <point x="393" y="72" type="line"/>
      <point x="369" y="64"/>
      <point x="341" y="57"/>
      <point x="308" y="57" type="curve" smooth="yes"/>
      <point x="227" y="57"/>
      <point x="184" y="114"/>
    </contour>
    <contour>
      <point x="64" y="322" type="line"/>
      <point x="352" y="322" type="line"/>
      <point x="367" y="384" type="line"/>
      <point x="64" y="384" type="line"/>
    </contour>
    <contour>
      <point x="64" y="192" type="line"/>
      <point x="325" y="192" type="line"/>
      <point x="339" y="254" type="line"/>
      <point x="64" y="254" type="line"/>
    </contour>
  </outline>
</glyph>
<glyph name="afii61289" format="1">
  <advance width="448"/>
  <unicode hex="2113"/>
  <outline>
    <contour>
      <point x="231" y="648" type="curve" smooth="yes"/>
      <point x="117" y="648"/>
      <point x="74" y="530"/>
      <point x="74" y="295" type="curve" smooth="yes"/>
      <point x="74" y="77"/>
      <point x="121" y="-8"/>
      <point x="235" y="-8" type="curve" smooth="yes"/>
      <point x="267" y="-8"/>
      <point x="310" y="-1"/>
      <point x="356" y="13" type="curve"/>
      <point x="340" y="73" type="line"/>
      <point x="304" y="64"/>
      <point x="270" y="56"/>
      <point x="235" y="56" type="curve" smooth="yes"/>
      <point x="180" y="56"/>
      <point x="146" y="97"/>
      <point x="146" y="287" type="curve" smooth="yes"/>
      <point x="146" y="544"/>
      <point x="193" y="584"/>
      <point x="228" y="584" type="curve" smooth="yes"/>
      <point x="258" y="584"/>
      <point x="277" y="554"/>
      <point x="276" y="480" type="curve" smooth="yes"/>
      <point x="275" y="356"/>
      <point x="204" y="266"/>
      <point x="109" y="202" type="curve"/>
      <point x="140" y="149" type="line"/>
      <point x="286" y="246"/>
      <point x="351" y="362"/>
      <point x="351" y="486" type="curve" smooth="yes"/>
      <point x="351" y="587"/>
      <point x="307" y="648"/>
    </contour>
  </outline>
</glyph>
<glyph name="estimated" format="1">
  <advance width="448"/>
  <unicode hex="212E"/>
  <outline>
    <contour>
      <point x="348" y="57" type="line"/>
      <point x="313" y="46"/>
      <point x="277" y="41"/>
      <point x="249" y="41" type="curve" smooth="yes"/>
      <point x="179" y="41"/>
      <point x="164" y="96"/>
      <point x="164" y="225" type="curve" smooth="yes"/>
      <point x="164" y="357"/>
      <point x="178" y="407"/>
      <point x="225" y="407" type="curve" smooth="yes"/>
      <point x="270" y="407"/>
      <point x="284" y="357"/>
      <point x="284" y="224" type="curve"/>
      <point x="398" y="191" type="line"/>
      <point x="398" y="224" type="line" smooth="yes"/>
      <point x="398" y="359"/>
      <point x="353" y="461"/>
      <point x="229" y="461" type="curve" smooth="yes"/>
      <point x="102" y="461"/>
      <point x="50" y="349"/>
      <point x="50" y="224" type="curve" smooth="yes"/>
      <point x="50" y="105"/>
      <point x="94" y="-13"/>
      <point x="238" y="-13" type="curve" smooth="yes"/>
      <point x="275" y="-13"/>
      <point x="318" y="-6"/>
      <point x="362" y="8" type="curve"/>
    </contour>
    <contour>
      <point x="92" y="191" type="line"/>
      <point x="398" y="191" type="line"/>
      <point x="360" y="247" type="line"/>
      <point x="92" y="247" type="line"/>
    </contour>
  </outline>
</glyph>
<glyph name="arrowupdn" format="1">
  <advance width="448"/>
  <unicode hex="2195"/>
  <outline>
    <contour>
      <point x="192" y="162" type="line"/>
      <point x="98" y="271" type="line"/>
      <point x="54" y="233" type="line"/>
      <point x="202" y="54" type="line"/>
      <point x="246" y="54" type="line"/>
      <point x="394" y="233" type="line"/>
      <point x="350" y="271" type="line"/>
      <point x="256" y="162" type="line"/>
      <point x="256" y="414" type="line"/>
      <point x="350" y="305" type="line"/>
      <point x="394" y="343" type="line"/>
      <point x="246" y="522" type="line"/>
      <point x="202" y="522" type="line"/>
      <point x="54" y="343" type="line"/>
      <point x="98" y="305" type="line"/>
      <point x="192" y="414" type="line"/>
    </contour>
  </outline>
</glyph>
<glyph name="partialdiff" format="1">
  <advance width="448"/>
  <unicode hex="2202"/>
  <outline>
    <contour>
      <point x="132" y="596" type="line"/>
      <point x="286" y="491"/>
      <point x="327" y="389"/>
      <point x="327" y="247" type="curve" smooth="yes"/>
      <point x="327" y="135"/>
      <point x="307" y="56"/>
      <point x="224" y="56" type="curve" smooth="yes"/>
      <point x="145" y="56"/>
      <point x="121" y="121"/>
      <point x="121" y="203" type="curve" smooth="yes"/>
      <point x="121" y="280"/>
      <point x="140" y="350"/>
      <point x="223" y="350" type="curve" smooth="yes"/>
      <point x="263" y="350"/>
      <point x="305" y="334"/>
      <point x="335" y="311" type="curve"/>
      <point x="362" y="351" type="line"/>
      <point x="320" y="391"/>
      <point x="269" y="414"/>
      <point x="215" y="414" type="curve" smooth="yes"/>
      <point x="122" y="414"/>
      <point x="47" y="338"/>
      <point x="47" y="203" type="curve" smooth="yes"/>
      <point x="47" y="74"/>
      <point x="115" y="-8"/>
      <point x="221" y="-8" type="curve" smooth="yes"/>
      <point x="336" y="-8"/>
      <point x="400" y="80"/>
      <point x="400" y="252" type="curve" smooth="yes"/>
      <point x="400" y="412"/>
      <point x="330" y="542"/>
      <point x="168" y="648" type="curve"/>
    </contour>
  </outline>
</glyph>
<glyph name="product" format="1">
  <advance width="448"/>
  <unicode hex="220F"/>
  <outline>
    <contour>
      <point x="398" y="640" type="line"/>
      <point x="50" y="640" type="line"/>
      <point x="50" y="-128" type="line"/>
      <point x="162" y="-128" type="line"/>
      <point x="162" y="560" type="line"/>
      <point x="286" y="560" type="line"/>
      <point x="286" y="-128" type="line"/>
      <point x="398" y="-128" type="line"/>
    </contour>
  </outline>
</glyph>
<glyph name="summation" format="1">
  <advance width="448"/>
  <unicode hex="2211"/>
  <outline>
    <contour>
      <point x="64" y="576" type="line"/>
      <point x="128" y="576" type="line"/>
      <point x="128" y="640" type="line"/>
      <point x="64" y="640" type="line"/>
    </contour>
    <contour>
      <point x="128" y="576" type="line"/>
      <point x="192" y="576" type="line"/>
      <point x="192" y="640" type="line"/>
      <point x="128" y="640" type="line"/>
    </contour>
    <contour>
      <point x="192" y="576" type="line"/>
      <point x="256" y="576" type="line"/>
      <point x="256" y="640" type="line"/>
      <point x="192" y="640" type="line"/>
    </contour>
    <contour>
      <point x="256" y="576" type="line"/>
      <point x="320" y="576" type="line"/>
      <point x="320" y="640" type="line"/>
      <point x="256" y="640" type="line"/>
    </contour>
    <contour>
      <point x="320" y="576" type="line"/>
      <point x="384" y="576" type="line"/>
      <point x="384" y="640" type="line"/>
      <point x="320" y="640" type="line"/>
    </contour>
    <contour>
      <point x="64" y="-128" type="line"/>
      <point x="128" y="-128" type="line"/>
      <point x="128" y="-64" type="line"/>
      <point x="64" y="-64" type="line"/>
    </contour>
    <contour>
      <point x="128" y="-128" type="line"/>
      <point x="192" y="-128" type="line"/>
      <point x="192" y="-64" type="line"/>
      <point x="128" y="-64" type="line"/>
    </contour>
    <contour>
      <point x="192" y="-128" type="line"/>
      <point x="256" y="-128" type="line"/>
      <point x="256" y="-64" type="line"/>
      <point x="192" y="-64" type="line"/>
    </contour>
    <contour>
      <point x="256" y="-128" type="line"/>
      <point x="320" y="-128" type="line"/>
      <point x="320" y="-64" type="line"/>
      <point x="256" y="-64" type="line"/>
    </contour>
    <contour>
      <point x="320" y="-128" type="line"/>
      <point x="384" y="-128" type="line"/>
      <point x="384" y="-64" type="line"/>
      <point x="320" y="-64" type="line"/>
    </contour>
    <contour>
      <point x="64" y="-64" type="line"/>
      <point x="128" y="-64" type="line"/>
      <point x="128" y="0" type="line"/>
      <point x="64" y="0" type="line"/>
    </contour>
    <contour>
      <point x="64" y="512" type="line"/>
      <point x="128" y="512" type="line"/>
      <point x="128" y="576" type="line"/>
      <point x="64" y="576" type="line"/>
    </contour>
    <contour>
      <point x="64" y="448" type="line"/>
      <point x="128" y="448" type="line"/>
      <point x="128" y="512" type="line"/>
      <point x="64" y="512" type="line"/>
    </contour>
    <contour>
      <point x="64" y="0" type="line"/>
      <point x="128" y="0" type="line"/>
      <point x="128" y="64" type="line"/>
      <point x="64" y="64" type="line"/>
    </contour>
    <contour>
      <point x="128" y="64" type="line"/>
      <point x="192" y="64" type="line"/>
      <point x="192" y="128" type="line"/>
      <point x="128" y="128" type="line"/>
    </contour>
    <contour>
      <point x="128" y="384" type="line"/>
      <point x="192" y="384" type="line"/>
      <point x="192" y="448" type="line"/>
      <point x="128" y="448" type="line"/>
    </contour>
    <contour>
      <point x="128" y="320" type="line"/>
      <point x="192" y="320" type="line"/>
      <point x="192" y="384" type="line"/>
      <point x="128" y="384" type="line"/>
    </contour>
    <contour>
      <point x="128" y="128" type="line"/>
      <point x="192" y="128" type="line"/>
      <point x="192" y="192" type="line"/>
      <point x="128" y="192" type="line"/>
    </contour>
    <contour>
      <point x="192" y="256" type="line"/>
      <point x="256" y="256" type="line"/>
      <point x="256" y="320" type="line"/>
      <point x="192" y="320" type="line"/>
    </contour>
    <contour>
      <point x="192" y="192" type="line"/>
      <point x="256" y="192" type="line"/>
      <point x="256" y="256" type="line"/>
      <point x="192" y="256" type="line"/>
    </contour>
  </outline>
</glyph>
<glyph name="minus" format="1">
  <advance width="448"/>
  <unicode hex="2212"/>
  <outline>
    <contour>
      <point x="379" y="336" type="line"/>
      <point x="69" y="336" type="line"/>
      <point x="69" y="240" type="line"/>
      <point x="379" y="240" type="line"/>
    </contour>
  </outline>
</glyph>
<glyph name="radical" format="1">
  <advance width="448"/>
  <unicode hex="221A"/>
  <outline>
    <contour>
      <point x="207" y="0" type="line"/>
      <point x="207" y="-64" type="line"/>
      <point x="255" y="-64" type="line"/>
      <point x="389" y="672" type="line"/>
      <point x="352" y="640" type="line"/>
      <point x="512" y="640" type="line"/>
      <point x="512" y="704" type="line"/>
      <point x="321" y="704" type="line"/>
    </contour>
    <contour>
      <point x="44" y="320" type="line"/>
      <point x="160" y="320" type="line"/>
      <point x="123" y="352" type="line"/>
      <point x="193" y="-64" type="line"/>
      <point x="241" y="-64" type="line"/>
      <point x="241" y="0" type="line"/>
      <point x="192" y="384" type="line"/>
      <point x="44" y="384" type="line"/>
    </contour>
  </outline>
</glyph>
<glyph name="orthogonal" format="1">
  <advance width="448"/>
  <unicode hex="221F"/>
  <outline>
    <contour>
      <point x="384" y="128" type="line"/>
      <point x="130" y="128" type="line"/>
      <point x="130" y="512" type="line"/>
      <point x="62" y="512" type="line"/>
      <point x="62" y="64" type="line"/>
      <point x="384" y="64" type="line"/>
    </contour>
  </outline>
</glyph>
<glyph name="angle" format="1">
  <advance width="448"/>
  <unicode hex="2220"/>
  <outline>
    <contour>
      <point x="384" y="128" type="line"/>
      <point x="136" y="128" type="line"/>
      <point x="316" y="494" type="line"/>
      <point x="258" y="522" type="line"/>
      <point x="64" y="128" type="line"/>
      <point x="64" y="64" type="line"/>
      <point x="384" y="64" type="line"/>
    </contour>
  </outline>
</glyph>
<glyph name="union" format="1">
  <advance width="448"/>
  <unicode hex="222A"/>
  <outline>
    <contour>
      <point x="224" y="120" type="curve" smooth="yes"/>
      <point x="348" y="120"/>
      <point x="386" y="217"/>
      <point x="386" y="299" type="curve" smooth="yes"/>
      <point x="386" y="448" type="line"/>
      <point x="318" y="448" type="line"/>
      <point x="318" y="296" type="line" smooth="yes"/>
      <point x="318" y="221"/>
      <point x="283" y="184"/>
      <point x="224" y="184" type="curve" smooth="yes"/>
      <point x="166" y="184"/>
      <point x="130" y="221"/>
      <point x="130" y="297" type="curve" smooth="yes"/>
      <point x="130" y="448" type="line"/>
      <point x="62" y="448" type="line"/>
      <point x="62" y="300" type="line" smooth="yes"/>
      <point x="62" y="217"/>
      <point x="100" y="120"/>
    </contour>
  </outline>
</glyph>
<glyph name="equivalence" format="1">
  <advance width="448"/>
  <unicode hex="2261"/>
  <outline>
    <contour>
      <point x="424" y="192" type="line"/>
      <point x="24" y="192" type="line"/>
      <point x="24" y="128" type="line"/>
      <point x="424" y="128" type="line"/>
    </contour>
    <contour>
      <point x="424" y="320" type="line"/>
      <point x="24" y="320" type="line"/>
      <point x="24" y="256" type="line"/>
      <point x="424" y="256" type="line"/>
    </contour>
    <contour>
      <point x="424" y="448" type="line"/>
      <point x="24" y="448" type="line"/>
      <point x="24" y="384" type="line"/>
      <point x="424" y="384" type="line"/>
    </contour>
  </outline>
</glyph>
<glyph name="propersubset" format="1">
  <advance width="448"/>
  <unicode hex="2282"/>
  <outline>
    <contour>
      <point x="56" y="288" type="curve" smooth="yes"/>
      <point x="56" y="166"/>
      <point x="153" y="128"/>
      <point x="236" y="128" type="curve" smooth="yes"/>
      <point x="384" y="128" type="line"/>
      <point x="384" y="192" type="line"/>
      <point x="235" y="192" type="line" smooth="yes"/>
      <point x="160" y="192"/>
      <point x="124" y="229"/>
      <point x="124" y="288" type="curve" smooth="yes"/>
      <point x="124" y="348"/>
      <point x="160" y="384"/>
      <point x="234" y="384" type="curve" smooth="yes"/>
      <point x="384" y="384" type="line"/>
      <point x="384" y="448" type="line"/>
      <point x="235" y="448" type="line" smooth="yes"/>
      <point x="153" y="448"/>
      <point x="56" y="410"/>
    </contour>
  </outline>
</glyph>
<glyph name="propersuperset" format="1">
  <advance width="448"/>
  <unicode hex="2283"/>
  <outline>
    <contour>
      <point x="392" y="288" type="curve" smooth="yes"/>
      <point x="392" y="410"/>
      <point x="295" y="448"/>
      <point x="213" y="448" type="curve" smooth="yes"/>
      <point x="64" y="448" type="line"/>
      <point x="64" y="384" type="line"/>
      <point x="214" y="384" type="line" smooth="yes"/>
      <point x="288" y="384"/>
      <point x="324" y="348"/>
      <point x="324" y="288" type="curve" smooth="yes"/>
      <point x="324" y="229"/>
      <point x="288" y="192"/>
      <point x="213" y="192" type="curve" smooth="yes"/>
      <point x="64" y="192" type="line"/>
      <point x="64" y="128" type="line"/>
      <point x="212" y="128" type="line" smooth="yes"/>
      <point x="295" y="128"/>
      <point x="392" y="166"/>
    </contour>
  </outline>
</glyph>
<glyph name="perpendicular" format="1">
  <advance width="448"/>
  <unicode hex="22A5"/>
  <outline>
    <contour>
      <point x="384" y="128" type="line"/>
      <point x="260" y="128" type="line"/>
      <point x="260" y="512" type="line"/>
      <point x="188" y="512" type="line"/>
      <point x="188" y="128" type="line"/>
      <point x="64" y="128" type="line"/>
      <point x="64" y="64" type="line"/>
      <point x="384" y="64" type="line"/>
    </contour>
  </outline>
</glyph>
<glyph name="house" format="1">
  <advance width="448"/>
  <unicode hex="2302"/>
  <outline>
    <contour>
      <point x="62" y="64" type="line"/>
      <point x="386" y="64" type="line"/>
      <point x="386" y="320" type="line"/>
      <point x="248" y="458" type="line"/>
      <point x="200" y="458" type="line"/>
      <point x="62" y="320" type="line"/>
    </contour>
    <contour>
      <point x="130" y="128" type="line"/>
      <point x="130" y="302" type="line"/>
      <point x="224" y="393" type="line"/>
      <point x="318" y="302" type="line"/>
      <point x="318" y="128" type="line"/>
    </contour>
  </outline>
</glyph>
<glyph name="uni2318" format="1">
  <advance width="448"/>
  <unicode hex="2318"/>
  <outline>
    <contour>
      <point x="192" y="286" type="line"/>
      <point x="192" y="412" type="line" smooth="yes"/>
      <point x="192" y="471"/>
      <point x="152" y="510"/>
      <point x="94" y="510" type="curve" smooth="yes"/>
      <point x="41" y="510"/>
      <point x="0" y="475"/>
      <point x="0" y="416" type="curve" smooth="yes"/>
      <point x="0" y="358"/>
      <point x="41" y="322"/>
      <point x="98" y="322" type="curve" smooth="yes"/>
      <point x="224" y="322" type="line"/>
      <point x="224" y="382" type="line"/>
      <point x="102" y="382" type="line" smooth="yes"/>
      <point x="73" y="382"/>
      <point x="64" y="398"/>
      <point x="64" y="416" type="curve" smooth="yes"/>
      <point x="64" y="434"/>
      <point x="73" y="450"/>
      <point x="96" y="450" type="curve" smooth="yes"/>
      <point x="119" y="450"/>
      <point x="128" y="434"/>
      <point x="128" y="409" type="curve" smooth="yes"/>
      <point x="128" y="286" type="line"/>
    </contour>
    <contour>
      <point x="320" y="286" type="line"/>
      <point x="320" y="409" type="line" smooth="yes"/>
      <point x="320" y="434"/>
      <point x="329" y="450"/>
      <point x="352" y="450" type="curve" smooth="yes"/>
      <point x="375" y="450"/>
      <point x="384" y="434"/>
      <point x="384" y="416" type="curve" smooth="yes"/>
      <point x="384" y="398"/>
      <point x="375" y="382"/>
      <point x="346" y="382" type="curve" smooth="yes"/>
      <point x="224" y="382" type="line"/>
      <point x="224" y="322" type="line"/>
      <point x="350" y="322" type="line" smooth="yes"/>
      <point x="407" y="322"/>
      <point x="448" y="358"/>
      <point x="448" y="416" type="curve" smooth="yes"/>
      <point x="448" y="475"/>
      <point x="407" y="510"/>
      <point x="354" y="510" type="curve" smooth="yes"/>
      <point x="296" y="510"/>
      <point x="256" y="471"/>
      <point x="256" y="412" type="curve" smooth="yes"/>
      <point x="256" y="286" type="line"/>
    </contour>
    <contour>
      <point x="128" y="290" type="line"/>
      <point x="128" y="167" type="line" smooth="yes"/>
      <point x="128" y="142"/>
      <point x="119" y="126"/>
      <point x="96" y="126" type="curve" smooth="yes"/>
      <point x="73" y="126"/>
      <point x="64" y="142"/>
      <point x="64" y="160" type="curve" smooth="yes"/>
      <point x="64" y="178"/>
      <point x="73" y="194"/>
      <point x="102" y="194" type="curve" smooth="yes"/>
      <point x="224" y="194" type="line"/>
      <point x="224" y="254" type="line"/>
      <point x="98" y="254" type="line" smooth="yes"/>
      <point x="41" y="254"/>
      <point x="0" y="218"/>
      <point x="0" y="160" type="curve" smooth="yes"/>
      <point x="0" y="101"/>
      <point x="41" y="66"/>
      <point x="94" y="66" type="curve" smooth="yes"/>
      <point x="152" y="66"/>
      <point x="192" y="105"/>
      <point x="192" y="164" type="curve" smooth="yes"/>
      <point x="192" y="290" type="line"/>
    </contour>
    <contour>
      <point x="256" y="290" type="line"/>
      <point x="256" y="164" type="line" smooth="yes"/>
      <point x="256" y="105"/>
      <point x="296" y="66"/>
      <point x="354" y="66" type="curve" smooth="yes"/>
      <point x="407" y="66"/>
      <point x="448" y="101"/>
      <point x="448" y="160" type="curve" smooth="yes"/>
      <point x="448" y="218"/>
      <point x="407" y="254"/>
      <point x="350" y="254" type="curve" smooth="yes"/>
      <point x="224" y="254" type="line"/>
      <point x="224" y="194" type="line"/>
      <point x="346" y="194" type="line" smooth="yes"/>
      <point x="375" y="194"/>
      <point x="384" y="178"/>
      <point x="384" y="160" type="curve" smooth="yes"/>
      <point x="384" y="142"/>
      <point x="375" y="126"/>
      <point x="352" y="126" type="curve" smooth="yes"/>
      <point x="329" y="126"/>
      <point x="320" y="142"/>
      <point x="320" y="167" type="curve" smooth="yes"/>
      <point x="320" y="290" type="line"/>
    </contour>
  </outline>
</glyph>
<glyph name="uni2325" format="1">
  <advance width="448"/>
  <unicode hex="2325"/>
  <outline>
    <contour>
      <point x="190" y="64" type="line"/>
      <point x="428" y="64" type="line"/>
      <point x="428" y="128" type="line"/>
      <point x="182" y="128" type="line"/>
      <point x="250" y="96" type="line"/>
      <point x="129" y="384" type="line"/>
      <point x="0" y="384" type="line"/>
      <point x="0" y="320" type="line"/>
      <point x="138" y="320" type="line"/>
      <point x="70" y="352" type="line"/>
    </contour>
    <contour>
      <point x="236" y="320" type="line"/>
      <point x="428" y="320" type="line"/>
      <point x="428" y="384" type="line"/>
      <point x="236" y="384" type="line"/>
    </contour>
  </outline>
</glyph>
<glyph name="uni232B" format="1">
  <advance width="448"/>
  <unicode hex="232B"/>
  <outline>
    <contour>
      <point x="116" y="64" type="line"/>
      <point x="427" y="64" type="line"/>
      <point x="427" y="512" type="line"/>
      <point x="116" y="512" type="line"/>
      <point x="-24" y="288" type="line"/>
    </contour>
    <contour>
      <point x="36" y="320" type="line"/>
      <point x="36" y="256" type="line"/>
      <point x="176" y="480" type="line"/>
      <point x="152" y="448" type="line"/>
      <point x="357" y="448" type="line"/>
      <point x="357" y="128" type="line"/>
      <point x="148" y="128" type="line"/>
      <point x="176" y="96" type="line"/>
    </contour>
    <contour>
      <point x="294" y="181" type="line"/>
      <point x="340" y="227" type="line"/>
      <point x="172" y="395" type="line"/>
      <point x="126" y="349" type="line"/>
    </contour>
    <contour>
      <point x="172" y="181" type="line"/>
      <point x="340" y="349" type="line"/>
      <point x="294" y="395" type="line"/>
      <point x="126" y="227" type="line"/>
    </contour>
  </outline>
</glyph>
<glyph name="SF100000" format="1">
  <advance width="448"/>
  <unicode hex="2500"/>
  <outline>
    <contour>
      <point x="-10" y="256" type="line"/>
      <point x="458" y="256" type="line"/>
      <point x="458" y="320" type="line"/>
      <point x="-10" y="320" type="line"/>
    </contour>
  </outline>
</glyph>
<glyph name="SF110000" format="1">
  <advance width="448"/>
  <unicode hex="2502"/>
  <outline>
    <contour>
      <point x="190" y="-202" type="line"/>
      <point x="258" y="-202" type="line"/>
      <point x="258" y="842" type="line"/>
      <point x="190" y="842" type="line"/>
    </contour>
  </outline>
</glyph>
<glyph name="SF080000" format="1">
  <advance width="448"/>
  <unicode hex="251C"/>
  <outline>
    <contour>
      <point x="190" y="-202" type="line"/>
      <point x="258" y="-202" type="line"/>
      <point x="258" y="256" type="line"/>
      <point x="458" y="256" type="line"/>
      <point x="458" y="320" type="line"/>
      <point x="258" y="320" type="line"/>
      <point x="258" y="842" type="line"/>
      <point x="190" y="842" type="line"/>
    </contour>
  </outline>
</glyph>
<glyph name="SF240000" format="1">
  <advance width="448"/>
  <unicode hex="2551"/>
  <outline>
    <contour>
      <point x="126" y="-202" type="line"/>
      <point x="194" y="-202" type="line"/>
      <point x="194" y="842" type="line"/>
      <point x="126" y="842" type="line"/>
    </contour>
    <contour>
      <point x="254" y="842" type="line"/>
      <point x="254" y="-202" type="line"/>
      <point x="322" y="-202" type="line"/>
      <point x="322" y="842" type="line"/>
    </contour>
  </outline>
</glyph>
<glyph name="SF220000" format="1">
  <advance width="448"/>
  <unicode hex="2555"/>
  <outline>
    <contour>
      <point x="-10" y="192" type="line"/>
      <point x="190" y="192" type="line"/>
      <point x="190" y="-202" type="line"/>
      <point x="258" y="-202" type="line"/>
      <point x="258" y="384" type="line"/>
      <point x="-10" y="384" type="line"/>
      <point x="-10" y="320" type="line"/>
      <point x="190" y="320" type="line"/>
      <point x="190" y="256" type="line"/>
      <point x="-10" y="256" type="line"/>
    </contour>
  </outline>
</glyph>
<glyph name="SF260000" format="1">
  <advance width="448"/>
  <unicode hex="255D"/>
  <outline>
    <contour>
      <point x="254" y="842" type="line"/>
      <point x="254" y="256" type="line"/>
      <point x="-10" y="256" type="line"/>
      <point x="-10" y="192" type="line"/>
      <point x="322" y="192" type="line"/>
      <point x="322" y="842" type="line"/>
    </contour>
    <contour>
      <point x="-10" y="320" type="line"/>
      <point x="194" y="320" type="line"/>
      <point x="194" y="842" type="line"/>
      <point x="126" y="842" type="line"/>
      <point x="126" y="384" type="line"/>
      <point x="-10" y="384" type="line"/>
    </contour>
  </outline>
</glyph>
<glyph name="SF190000" format="1">
  <advance width="448"/>
  <unicode hex="2561"/>
  <outline>
    <contour>
      <point x="190" y="842" type="line"/>
      <point x="190" y="384" type="line"/>
      <point x="-10" y="384" type="line"/>
      <point x="-10" y="320" type="line"/>
      <point x="190" y="320" type="line"/>
      <point x="190" y="256" type="line"/>
      <point x="-10" y="256" type="line"/>
      <point x="-10" y="192" type="line"/>
      <point x="190" y="192" type="line"/>
      <point x="190" y="-202" type="line"/>
      <point x="258" y="-202" type="line"/>
      <point x="258" y="842" type="line"/>
    </contour>
  </outline>
</glyph>
<glyph name="SF230000" format="1">
  <advance width="448"/>
  <unicode hex="2563"/>
  <outline>
    <contour>
      <point x="254" y="842" type="line"/>
      <point x="254" y="-202" type="line"/>
      <point x="322" y="-202" type="line"/>
      <point x="322" y="842" type="line"/>
    </contour>
    <contour>
      <point x="-10" y="320" type="line"/>
      <point x="194" y="320" type="line"/>
      <point x="194" y="842" type="line"/>
      <point x="126" y="842" type="line"/>
      <point x="126" y="384" type="line"/>
      <point x="-10" y="384" type="line"/>
    </contour>
    <contour>
      <point x="-10" y="192" type="line"/>
      <point x="126" y="192" type="line"/>
      <point x="126" y="-202" type="line"/>
      <point x="194" y="-202" type="line"/>
      <point x="194" y="256" type="line"/>
      <point x="-10" y="256" type="line"/>
    </contour>
  </outline>
</glyph>
